<?xml version="1.0" encoding="UTF-8"?>
<svg width="20px" height="12px" viewBox="0 0 20 12" version="1.1" xmlns="http://www.w3.org/2000/svg" xmlns:xlink="http://www.w3.org/1999/xlink">
    <!-- Generator: Sketch 57.1 (83088) - https://sketch.com -->
    <title>Arrowup/12x20/dark</title>
    <desc>Created with Sketch.</desc>
    <g id="Arrowup/12x20/dark" stroke="none" stroke-width="1" fill="none" fill-rule="evenodd">
        <path d="M5.0185079,16 C4.74793547,16.0011528 4.4882595,15.9030265 4.29812842,15.7277728 C3.90062386,15.3654551 3.90062386,14.7784998 4.29812842,14.4161821 L13.5407331,6.00220353 L4.29812842,-2.411775 C3.90062386,-2.77409273 3.90062386,-3.36104805 4.29812842,-3.72336577 C4.4874493,-3.90024218 4.7472273,-4 5.0185079,-4 C5.2897885,-4 5.5495665,-3.90024218 5.73888739,-3.72336577 L15.7018716,5.34640814 C16.0993761,5.70872587 16.0993761,6.29568118 15.7018716,6.65799891 L5.73888739,15.7277728 C5.5487563,15.9030265 5.28908034,16.0011528 5.0185079,16 L5.0185079,16 Z" fill="#484848" fill-rule="nonzero" transform="translate(10.000000, 6.000000) scale(-1, 1) rotate(-90.000000) translate(-10.000000, -6.000000) "></path>
    </g>
</svg>