<?xml version="1.0" encoding="UTF-8"?>
<svg width="12px" height="20px" viewBox="0 0 12 20" version="1.1" xmlns="http://www.w3.org/2000/svg" xmlns:xlink="http://www.w3.org/1999/xlink">
    <!-- Generator: Sketch 57.1 (83088) - https://sketch.com -->
    <title>Arrowright/12x20/dark</title>
    <desc>Created with Sketch.</desc>
    <g id="Arrowright/12x20/dark" stroke="none" stroke-width="1" fill="none" fill-rule="evenodd">
        <path d="M1.0185079,20 C0.747935466,20.0011528 0.4882595,19.9030265 0.298128416,19.7277728 C-0.0993761386,19.3654551 -0.0993761386,18.7784998 0.298128416,18.4161821 L9.54073313,10.0022035 L0.298128416,1.588225 C-0.0993761386,1.22590727 -0.0993761386,0.638951953 0.298128416,0.276634225 C0.487449303,0.0997578165 0.747227298,0 1.0185079,0 C1.2897885,0 1.5495665,0.0997578165 1.73888739,0.276634225 L11.7018716,9.34640814 C12.0993761,9.70872587 12.0993761,10.2956812 11.7018716,10.6579989 L1.73888739,19.7277728 C1.5487563,19.9030265 1.28908034,20.0011528 1.0185079,20 L1.0185079,20 Z" fill="#484848" fill-rule="nonzero" transform="translate(6.000000, 10.000000) scale(-1, 1) rotate(-180.000000) translate(-6.000000, -10.000000) "></path>
    </g>
</svg>