<?xml version="1.0" encoding="UTF-8"?><svg id="a" xmlns="http://www.w3.org/2000/svg" viewBox="0 0 896.82 792.26"><defs><style>.b{fill:#0070ae;}.c{fill:#fff;}.d{fill:#9acc65;}</style></defs><g><rect class="c" x="241.68" y="125.94" width="406.76" height="404.46"/><path class="d" d="M656.8,116.43H235.61v421.2h421.19V116.43Zm-16.71,404.48H252.32V133.13h387.77v387.78Z"/><path class="b" d="M525.47,306.24h-23.29l-29.07-85.17v68.2h12.14v16.96h-41.25v-16.96h10.15v-82.51h-12.14v-16.97h42.75l31.73,93.15,28.84-93.15h42.25v16.97h-12.14v82.51h11.65v16.96h-44.74v-16.96h9.81v-67.04l-26.68,84Z"/><path class="b" d="M339.49,396.22v-37.71h12.85c11.68,0,18.86,6.51,18.86,18.52s-6.34,19.19-18.52,19.19h-13.18Zm-24.36,45.05h-11.52v17.02h47.39v-17.02h-11.51v-28.03h16.36c23.19,0,38.71-15.35,38.71-37.21s-14.52-34.54-42.72-34.54h-48.23v17.02h11.52v82.76Z"/><path class="b" d="M430.67,358.51h-10.52v-17.02h45.39v17.02h-10.51v82.76h10.51v17.02h-45.39v-17.02h10.52v-82.76Z"/><path class="b" d="M587.08,458.29h-84.26v-17.02h10.51v-82.76h-12.51v-17.02h86.27v34.38h-20.02v-17.35h-29.37v30.7h29.37v18.02h-29.37v34.04h29.37v-19.69h20.02v36.71Z"/><polygon class="b" points="418.42 289.29 379.17 244.9 415.41 206.81 423.9 206.81 423.9 189.82 383.65 189.82 383.65 206.81 394.5 206.81 368.75 233.14 345.35 206.81 356.21 206.81 356.21 189.82 307.62 189.82 307.62 206.81 316.1 206.81 352.7 249.43 313.26 289.29 303.62 289.29 303.62 306.24 346.87 306.24 346.87 289.29 336.55 289.29 363.16 261.64 386.8 289.29 376.48 289.29 376.48 306.24 428.06 306.24 428.06 289.29 418.42 289.29"/><g><path class="b" d="M610.3,186.72c7.12,0,12.73,5.58,12.73,12.67s-5.62,12.67-12.79,12.67-12.79-5.58-12.79-12.67,5.62-12.67,12.79-12.67h.05Zm-.11,2.15c-5.8,0-10.37,4.63-10.37,10.52s4.57,10.52,10.43,10.52,10.42-4.63,10.42-10.52-4.57-10.52-10.42-10.52h-.06Zm-5.12,3.02h4.57c2.71,0,4.09,.39,5.11,1.1,1,.68,1.63,1.76,1.63,3.19,0,2.33-1.75,3.49-3.31,4.03l4.07,6.48h-3.37l-3.72-6.11h-1.86v6.11h-3.12v-14.8Zm3.12,6.74h2.03c1.79,0,2.9-.91,2.9-2.37,0-1.91-1.66-2.26-3.52-2.26h-1.41v4.63Z"/><path class="b" d="M610.3,186.72c7.12,0,12.73,5.58,12.73,12.67s-5.62,12.67-12.79,12.67-12.79-5.58-12.79-12.67,5.62-12.67,12.79-12.67h.05Zm-.11,2.15c-5.8,0-10.37,4.63-10.37,10.52s4.57,10.52,10.43,10.52,10.42-4.63,10.42-10.52-4.57-10.52-10.42-10.52h-.06Zm-5.12,3.02h4.57c2.71,0,4.09,.39,5.11,1.1,1,.68,1.63,1.76,1.63,3.19,0,2.33-1.75,3.49-3.31,4.03l4.07,6.48h-3.37l-3.72-6.11h-1.86v6.11h-3.12v-14.8Zm3.12,6.74h2.03c1.79,0,2.9-.91,2.9-2.37,0-1.91-1.66-2.26-3.52-2.26h-1.41v4.63Z"/></g></g><g><path d="M165.79,662.49h-5.79c-.67,0-1.21-.17-1.62-.51s-.72-.76-.93-1.28l-5.17-13.46h-24.81l-5.17,13.46c-.18,.47-.49,.88-.93,1.24-.44,.37-.98,.55-1.62,.55h-5.79l22.11-55.74h7.6l22.11,55.74Zm-36.22-20.69h20.64l-8.68-22.68c-.57-1.4-1.12-3.15-1.66-5.25-.28,1.06-.56,2.04-.83,2.94-.27,.89-.53,1.68-.79,2.35l-8.68,22.64Z"/><path d="M226.63,650.97c.41,0,.78,.17,1.12,.51l2.94,3.23c-2.26,2.64-5.01,4.71-8.24,6.18-3.23,1.48-7.12,2.22-11.67,2.22-3.99,0-7.6-.69-10.84-2.08-3.24-1.39-6.01-3.33-8.29-5.84-2.29-2.5-4.07-5.5-5.32-9-1.26-3.5-1.89-7.35-1.89-11.55s.67-8.05,2.02-11.56c1.35-3.5,3.25-6.51,5.69-9.02,2.44-2.51,5.37-4.47,8.78-5.85,3.41-1.39,7.17-2.08,11.28-2.08s7.57,.64,10.51,1.91,5.56,3,7.85,5.17l-2.43,3.46c-.18,.26-.39,.47-.62,.64-.23,.17-.57,.25-1,.25-.33,0-.69-.12-1.06-.37-.37-.25-.82-.55-1.33-.91-.52-.37-1.12-.75-1.82-1.17-.69-.42-1.52-.8-2.47-1.16-.95-.37-2.06-.67-3.32-.92-1.26-.25-2.72-.37-4.36-.37-2.96,0-5.67,.51-8.12,1.53-2.45,1.03-4.57,2.49-6.34,4.38-1.78,1.89-3.16,4.2-4.15,6.92-.99,2.72-1.49,5.77-1.49,9.14s.5,6.57,1.49,9.29c.99,2.72,2.34,5.03,4.05,6.91,1.71,1.88,3.74,3.31,6.07,4.3s4.86,1.48,7.56,1.48c1.64,0,3.12-.09,4.43-.29s2.53-.5,3.65-.92c1.12-.41,2.16-.94,3.13-1.57,.97-.64,1.93-1.4,2.91-2.28,.44-.39,.86-.59,1.27-.59Z"/><path d="M268.14,662.49h-3.05c-.67,0-1.21-.1-1.62-.31-.41-.21-.68-.65-.81-1.32l-.77-3.65c-1.03,.93-2.03,1.77-3.01,2.51-.98,.74-2.01,1.36-3.09,1.87-1.08,.51-2.23,.89-3.45,1.15-1.22,.26-2.58,.39-4.07,.39s-2.94-.21-4.26-.64c-1.32-.43-2.48-1.07-3.45-1.93-.98-.86-1.75-1.95-2.34-3.26-.58-1.31-.87-2.87-.87-4.66,0-1.56,.43-3.06,1.27-4.51,.85-1.44,2.22-2.73,4.11-3.85,1.89-1.12,4.37-2.04,7.43-2.75,3.06-.71,6.8-1.07,11.23-1.07v-3.09c0-3.08-.65-5.41-1.95-6.99-1.3-1.58-3.22-2.37-5.77-2.37-1.68,0-3.08,.21-4.23,.64-1.14,.43-2.13,.91-2.97,1.44s-1.55,1.01-2.16,1.44c-.6,.43-1.2,.64-1.79,.64-.46,0-.87-.12-1.21-.37-.35-.25-.62-.55-.83-.91l-1.23-2.22c2.16-2.1,4.49-3.67,6.98-4.71,2.5-1.04,5.26-1.56,8.3-1.56,2.19,0,4.13,.36,5.83,1.09,1.7,.73,3.13,1.74,4.28,3.03,1.16,1.3,2.03,2.87,2.62,4.71,.59,1.84,.89,3.87,.89,6.07v25.21Zm-17.83-4.24c1.21,0,2.31-.12,3.32-.37,1-.25,1.95-.6,2.83-1.05,.89-.46,1.74-1.01,2.55-1.65,.81-.65,1.6-1.39,2.37-2.22v-8.13c-3.16,0-5.85,.2-8.06,.6-2.21,.41-4.01,.93-5.4,1.58-1.39,.65-2.4,1.42-3.03,2.31-.63,.89-.94,1.88-.94,2.97s.17,1.94,.5,2.7c.33,.76,.78,1.38,1.35,1.86,.57,.48,1.23,.84,2.01,1.06s1.61,.33,2.51,.33Z"/><path d="M278.55,662.49v-39.41h3.93c.75,0,1.26,.14,1.54,.43,.28,.29,.48,.78,.58,1.48l.46,6.15c1.33-2.75,2.99-4.89,4.96-6.44,1.97-1.54,4.28-2.31,6.92-2.31,1.08,0,2.06,.12,2.93,.37,.88,.25,1.69,.59,2.43,1.03l-.89,5.17c-.18,.65-.58,.97-1.19,.97-.36,0-.91-.12-1.66-.37-.75-.25-1.79-.37-3.13-.37-2.39,0-4.39,.7-6,2.1s-2.95,3.44-4.03,6.11v25.09h-6.86Z"/><path d="M325.11,622.46c2.34,0,4.5,.4,6.48,1.19,1.98,.79,3.69,1.93,5.13,3.42,1.44,1.49,2.57,3.33,3.38,5.52,.81,2.19,1.22,4.69,1.22,7.49,0,1.09-.11,1.82-.35,2.18-.23,.36-.67,.54-1.31,.54h-26c.05,2.49,.38,4.66,1,6.5s1.47,3.38,2.55,4.61c1.08,1.23,2.36,2.15,3.86,2.76,1.49,.61,3.16,.91,5.02,.91,1.72,0,3.21-.2,4.46-.6,1.25-.4,2.32-.84,3.22-1.31,.9-.47,1.65-.9,2.26-1.3,.6-.4,1.12-.6,1.56-.6,.57,0,1,.22,1.31,.66l1.93,2.53c-.85,1.04-1.87,1.94-3.05,2.7-1.18,.77-2.45,1.4-3.8,1.89-1.35,.49-2.75,.86-4.19,1.11s-2.87,.37-4.28,.37c-2.7,0-5.19-.46-7.47-1.38-2.27-.92-4.24-2.27-5.9-4.04-1.66-1.78-2.95-3.98-3.88-6.6-.93-2.62-1.39-5.63-1.39-9.02,0-2.75,.42-5.32,1.26-7.7,.84-2.39,2.04-4.45,3.61-6.2,1.57-1.75,3.48-3.13,5.75-4.12,2.26-1,4.81-1.5,7.64-1.5Zm.15,5.1c-3.32,0-5.93,.97-7.83,2.9-1.9,1.93-3.09,4.61-3.55,8.03h21.26c0-1.61-.22-3.08-.66-4.41s-1.08-2.49-1.93-3.46c-.85-.97-1.88-1.73-3.1-2.26-1.22-.53-2.62-.8-4.19-.8Z"/><path d="M396.64,662.49h-5.79c-.67,0-1.21-.17-1.62-.51-.41-.34-.72-.76-.93-1.28l-5.17-13.46h-24.81l-5.17,13.46c-.18,.47-.49,.88-.93,1.24-.44,.37-.98,.55-1.62,.55h-5.79l22.11-55.74h7.6l22.11,55.74Zm-36.22-20.69h20.64l-8.68-22.68c-.57-1.4-1.12-3.15-1.66-5.25-.28,1.06-.56,2.04-.83,2.94-.27,.89-.53,1.68-.79,2.35l-8.68,22.64Z"/><path d="M411.84,639.23v23.26h-7.45v-55.74h15.63c3.49,0,6.52,.36,9.06,1.07,2.55,.71,4.65,1.74,6.31,3.09,1.66,1.35,2.89,2.97,3.68,4.88s1.19,4.04,1.19,6.4c0,1.97-.31,3.81-.93,5.52s-1.51,3.25-2.68,4.61-2.6,2.52-4.28,3.48c-1.69,.96-3.6,1.69-5.73,2.18,.93,.55,1.75,1.34,2.47,2.37l16.13,22.13h-6.64c-1.36,0-2.36-.53-3.01-1.6l-14.35-19.92c-.44-.62-.91-1.07-1.43-1.34-.52-.27-1.29-.41-2.31-.41h-5.67Zm0-5.48h7.83c2.19,0,4.11-.26,5.77-.8,1.66-.53,3.05-1.28,4.17-2.26,1.12-.97,1.96-2.13,2.53-3.48,.56-1.35,.85-2.84,.85-4.48,0-3.32-1.09-5.82-3.26-7.51-2.17-1.69-5.41-2.53-9.7-2.53h-8.18v21.04Z"/><path d="M507.16,650.97c.41,0,.78,.17,1.12,.51l2.93,3.23c-2.26,2.64-5.01,4.71-8.23,6.18-3.23,1.48-7.12,2.22-11.68,2.22-3.98,0-7.6-.69-10.84-2.08-3.24-1.39-6.01-3.33-8.3-5.84-2.29-2.5-4.06-5.5-5.32-9s-1.89-7.35-1.89-11.55,.68-8.05,2.03-11.56c1.35-3.5,3.24-6.51,5.69-9.02,2.44-2.51,5.37-4.47,8.78-5.85,3.41-1.39,7.17-2.08,11.28-2.08s7.57,.64,10.51,1.91c2.95,1.27,5.56,3,7.85,5.17l-2.43,3.46c-.19,.26-.39,.47-.62,.64-.24,.17-.57,.25-1,.25-.34,0-.69-.12-1.06-.37-.37-.25-.82-.55-1.33-.91-.51-.37-1.11-.75-1.81-1.17s-1.52-.8-2.47-1.16c-.95-.37-2.06-.67-3.32-.92-1.26-.25-2.71-.37-4.36-.37-2.96,0-5.66,.51-8.12,1.53-2.45,1.03-4.57,2.49-6.34,4.38s-3.16,4.2-4.15,6.92c-.99,2.72-1.49,5.77-1.49,9.14s.5,6.57,1.49,9.29c.99,2.72,2.34,5.03,4.05,6.91,1.72,1.88,3.74,3.31,6.08,4.3s4.87,1.48,7.56,1.48c1.64,0,3.12-.09,4.43-.29s2.53-.5,3.65-.92c1.12-.41,2.16-.94,3.13-1.57,.96-.64,1.93-1.4,2.91-2.28,.43-.39,.86-.59,1.27-.59Z"/><path d="M535.79,622.46c2.86,0,5.43,.48,7.74,1.44,2.3,.96,4.26,2.32,5.86,4.08,1.61,1.77,2.84,3.9,3.7,6.4,.86,2.5,1.3,5.3,1.3,8.38s-.43,5.91-1.3,8.4c-.86,2.49-2.1,4.62-3.7,6.38-1.61,1.77-3.56,3.12-5.86,4.07-2.3,.95-4.88,1.42-7.74,1.42s-5.43-.47-7.74-1.42c-2.3-.94-4.26-2.3-5.88-4.07-1.62-1.76-2.87-3.89-3.74-6.38-.88-2.49-1.31-5.29-1.31-8.4s.44-5.88,1.31-8.38c.87-2.5,2.12-4.63,3.74-6.4,1.62-1.76,3.58-3.13,5.88-4.08,2.3-.96,4.88-1.44,7.74-1.44Zm0,35.17c3.86,0,6.74-1.3,8.64-3.91,1.9-2.6,2.85-6.24,2.85-10.91s-.95-8.35-2.85-10.97c-1.91-2.62-4.79-3.93-8.64-3.93-1.96,0-3.65,.34-5.09,1.01-1.44,.68-2.64,1.65-3.61,2.92-.97,1.27-1.69,2.84-2.16,4.69-.47,1.86-.71,3.95-.71,6.28s.24,4.42,.71,6.27c.48,1.84,1.2,3.39,2.16,4.65,.96,1.26,2.16,2.22,3.61,2.9,1.44,.68,3.14,1.01,5.09,1.01Z"/><path d="M562.87,662.49v-39.41h4.09c.98,0,1.59,.48,1.85,1.44l.5,4.04c1.44-1.79,3.05-3.25,4.84-4.4,1.79-1.14,3.86-1.71,6.23-1.71,2.65,0,4.79,.74,6.42,2.22,1.64,1.48,2.81,3.48,3.53,5.99,.54-1.43,1.26-2.66,2.14-3.7,.89-1.03,1.88-1.89,2.99-2.57,1.11-.68,2.28-1.17,3.53-1.48s2.52-.47,3.8-.47c2.06,0,3.89,.33,5.5,.99,1.61,.66,2.97,1.63,4.09,2.9,1.12,1.27,1.97,2.84,2.57,4.69,.59,1.86,.89,3.98,.89,6.36v25.09h-6.87v-25.09c0-3.09-.67-5.43-2.01-7.02-1.33-1.6-3.28-2.39-5.82-2.39-1.13,0-2.21,.2-3.22,.6s-1.91,.99-2.68,1.77-1.38,1.76-1.83,2.94-.67,2.55-.67,4.1v25.09h-6.87v-25.09c0-3.16-.63-5.52-1.89-7.08s-3.1-2.33-5.51-2.33c-1.7,0-3.28,.46-4.73,1.38-1.45,.92-2.78,2.17-3.99,3.75v29.37h-6.87Z"/><path d="M626.22,675.83v-52.75h4.09c.98,0,1.59,.48,1.85,1.44l.58,4.67c1.67-2.05,3.58-3.69,5.73-4.94,2.15-1.24,4.62-1.87,7.42-1.87,2.24,0,4.27,.43,6.1,1.3s3.38,2.15,4.67,3.85c1.28,1.7,2.27,3.81,2.97,6.32,.7,2.51,1.04,5.41,1.04,8.67,0,2.91-.38,5.61-1.16,8.11-.77,2.5-1.88,4.67-3.32,6.5-1.44,1.83-3.21,3.27-5.3,4.32-2.1,1.05-4.46,1.58-7.08,1.58-2.42,0-4.48-.41-6.19-1.21-1.71-.8-3.22-1.94-4.53-3.42v17.43h-6.87Zm17.4-47.85c-2.24,0-4.2,.52-5.88,1.56-1.68,1.04-3.23,2.5-4.65,4.4v19.06c1.26,1.71,2.64,2.92,4.14,3.61,1.51,.7,3.19,1.05,5.04,1.05,3.62,0,6.42-1.31,8.37-3.93,1.95-2.62,2.93-6.35,2.93-11.2,0-2.57-.23-4.77-.67-6.61-.45-1.84-1.1-3.35-1.95-4.53-.85-1.18-1.89-2.04-3.13-2.59-1.23-.55-2.64-.82-4.21-.82Z"/><path d="M697.51,662.49h-3.05c-.67,0-1.21-.1-1.62-.31-.41-.21-.68-.65-.81-1.32l-.77-3.65c-1.03,.93-2.03,1.77-3.01,2.51-.98,.74-2.01,1.36-3.09,1.87-1.08,.51-2.23,.89-3.46,1.15-1.22,.26-2.58,.39-4.07,.39s-2.94-.21-4.26-.64c-1.32-.43-2.48-1.07-3.45-1.93-.98-.86-1.76-1.95-2.34-3.26-.58-1.31-.87-2.87-.87-4.66,0-1.56,.42-3.06,1.27-4.51,.85-1.44,2.22-2.73,4.11-3.85,1.89-1.12,4.37-2.04,7.43-2.75,3.06-.71,6.8-1.07,11.23-1.07v-3.09c0-3.08-.65-5.41-1.95-6.99-1.3-1.58-3.22-2.37-5.77-2.37-1.67,0-3.08,.21-4.22,.64-1.14,.43-2.13,.91-2.97,1.44s-1.56,1.01-2.16,1.44c-.61,.43-1.2,.64-1.79,.64-.46,0-.87-.12-1.22-.37-.35-.25-.62-.55-.83-.91l-1.23-2.22c2.16-2.1,4.49-3.67,6.98-4.71,2.49-1.04,5.26-1.56,8.3-1.56,2.19,0,4.13,.36,5.82,1.09,1.7,.73,3.13,1.74,4.28,3.03,1.16,1.3,2.03,2.87,2.62,4.71,.59,1.84,.89,3.87,.89,6.07v25.21Zm-17.82-4.24c1.21,0,2.31-.12,3.32-.37,1-.25,1.95-.6,2.83-1.05,.89-.46,1.74-1.01,2.54-1.65,.81-.65,1.6-1.39,2.38-2.22v-8.13c-3.16,0-5.85,.2-8.06,.6-2.21,.41-4.01,.93-5.4,1.58s-2.4,1.42-3.03,2.31c-.63,.89-.94,1.88-.94,2.97s.17,1.94,.5,2.7c.33,.76,.78,1.38,1.35,1.86,.56,.48,1.23,.84,2.01,1.06s1.61,.33,2.51,.33Z"/><path d="M707.92,662.49v-39.41h4.09c.98,0,1.59,.48,1.85,1.44l.54,4.28c1.7-1.89,3.6-3.42,5.69-4.59,2.1-1.17,4.52-1.75,7.27-1.75,2.13,0,4.02,.36,5.65,1.07s3,1.73,4.09,3.04c1.09,1.31,1.92,2.88,2.49,4.72s.85,3.88,.85,6.11v25.09h-6.87v-25.09c0-2.98-.67-5.3-2.03-6.94-1.35-1.65-3.41-2.47-6.19-2.47-2.03,0-3.93,.49-5.69,1.48-1.76,.98-3.39,2.32-4.88,4v29.02h-6.87Z"/><path d="M761.04,674.12c-.23,.52-.52,.93-.87,1.24s-.88,.47-1.6,.47h-5.09l7.14-15.64-16.12-37.11h5.94c.59,0,1.05,.15,1.39,.45s.58,.63,.74,.99l10.45,24.82c.23,.57,.43,1.14,.6,1.71s.32,1.15,.44,1.75c.18-.6,.36-1.18,.54-1.75s.39-1.15,.62-1.75l10.15-24.78c.15-.42,.42-.76,.79-1.03,.37-.27,.78-.41,1.21-.41h5.48l-21.8,51.04Z"/></g></svg>