<?xml version="1.0" encoding="utf-8"?>
<svg viewBox="0 0 256 256" xmlns="http://www.w3.org/2000/svg">
  <defs>
    <clipPath id="clip-corner">
      <rect width="337" height="337"/>
    </clipPath>
    <filter id="Path_274" x="-107.921" y="-87" width="477.921" height="471.322" filterUnits="userSpaceOnUse">
      <feOffset dy="3" input="SourceAlpha"/>
      <feGaussianBlur stdDeviation="30" result="blur"/>
      <feFlood flood-opacity="0.902"/>
      <feComposite operator="in" in2="blur"/>
      <feComposite in="SourceGraphic"/>
    </filter>
    <linearGradient id="linear-gradient" x2="0.596" y2="0.55" gradientUnits="objectBoundingBox">
      <stop offset="0" stop-color="#fff"/>
      <stop offset="0.374" stop-color="#dfdfdf"/>
      <stop offset="0.558" stop-color="#bbbcbe"/>
      <stop offset="0.695" stop-color="#b9bbbe"/>
      <stop offset="0.735" stop-color="#acadb0"/>
      <stop offset="0.849" stop-color="#dddfe0"/>
      <stop offset="0.933" stop-color="#bebfbf"/>
      <stop offset="1" stop-color="#b8b8b8"/>
    </linearGradient>
    <filter id="Path_275">
      <feOffset dx="1" dy="-3" input="SourceAlpha"/>
      <feGaussianBlur stdDeviation="3" result="blur-2"/>
      <feFlood flood-opacity="0.161" result="color"/>
      <feComposite operator="out" in="SourceGraphic" in2="blur-2"/>
      <feComposite operator="in" in="color"/>
      <feComposite operator="in" in2="SourceGraphic"/>
    </filter>
    <filter id="Ellipse_30" x="202.647" y="14.927" width="66.426" height="66.426" filterUnits="userSpaceOnUse">
      <feOffset input="SourceAlpha"/>
      <feGaussianBlur stdDeviation="4" result="blur-3"/>
      <feFlood flood-opacity="0.502"/>
      <feComposite operator="in" in2="blur-3"/>
      <feComposite in="SourceGraphic"/>
    </filter>
    <filter id="Ellipse_31" x="-6.657" y="204.23" width="66.426" height="66.426" filterUnits="userSpaceOnUse">
      <feOffset input="SourceAlpha"/>
      <feGaussianBlur stdDeviation="4" result="blur-4"/>
      <feFlood flood-opacity="0.502"/>
      <feComposite operator="in" in2="blur-4"/>
      <feComposite in="SourceGraphic"/>
    </filter>
  </defs>
  <g id="corner" clip-path="url(#clip-corner)" style="" transform="matrix(0.867853045463562, 0, 0, 0.8756769299507141, 0, 0)">
    <g transform="matrix(1, 0, 0, 1, 0, 0)" filter="url(#Path_274)">
      <path id="Path_274-2" data-name="Path 274" d="M0,0H280L-17.921,291.322Z" fill="url(#linear-gradient)"/>
    </g>
    <g data-type="innerShadowGroup">
      <path id="Path_275-2" data-name="Path 275" d="M3875.587-1210.412s233.9,22.329,251.707,17.978,28.2-17.978,28.2-17.978l15.309-63Z" transform="translate(-3876 1210.136)" fill="#fff"/>
      <g transform="matrix(1, 0, 0, 1, 0, 0)" filter="url(#Path_275)">
        <path id="Path_275-3" data-name="Path 275" d="M3875.587-1210.412s233.9,22.329,251.707,17.978,28.2-17.978,28.2-17.978l15.309-63Z" transform="translate(-3876 1210.14)" fill="#fff"/>
      </g>
    </g>
  </g>
  <g id="_45_inner_page_-_2_2" data-name="45 inner page - 2 – 2" clip-path="url(#clip-_45_inner_page_-_2_2)" style="" transform="matrix(0.729388952255249, 0, 0, 0.729388952255249, 42.81111907958984, 33.28171157836914)">
    <g id="Group_465" data-name="Group 465" transform="translate(1 1)">
      <g id="Group_457" data-name="Group 457" transform="translate(-8 -29.584)">
        <g transform="matrix(0.706171, 0.708041, -0.708041, 0.706171, -16.322069, 51.451229)" filter="url(#Ellipse_30)" style="transform-origin: 224.197px 34.693px;">
          <g id="Ellipse_30-2" data-name="Ellipse 30" transform="translate(228.86 4) rotate(45)" stroke="#6f6f6f" stroke-width="4">
            <circle cx="13.895" cy="29.577" r="11" stroke="none"/>
            <circle cx="13.764" cy="29.605" r="13" fill="none"/>
          </g>
        </g>
        <g transform="matrix(1, 0, 0, 1, 33.607967, 2.47312)" filter="url(#Ellipse_31)">
          <g id="Ellipse_31-2" data-name="Ellipse 31" transform="translate(19.56 213.3) rotate(45)" stroke="#6f6f6f" stroke-width="4">
            <circle cx="11" cy="11" r="11" stroke="none"/>
            <circle cx="11" cy="11" r="13" fill="none"/>
          </g>
        </g>
      </g>
    </g>
  </g>
</svg>
