<svg width="201" height="140" viewBox="0 0 201 140" fill="none" xmlns="http://www.w3.org/2000/svg">
<path fill-rule="evenodd" clip-rule="evenodd" d="M134.806 43.8863H117.444C116.88 43.8863 116.423 44.3436 116.423 44.9076V126.613C116.423 127.177 116.88 127.635 117.444 127.635H134.806C135.371 127.635 135.828 127.177 135.828 126.613V44.9076C135.828 44.3436 135.371 43.8863 134.806 43.8863ZM117.444 42.865C116.316 42.865 115.401 43.7795 115.401 44.9076V126.613C115.401 127.742 116.316 128.656 117.444 128.656H134.806C135.935 128.656 136.849 127.742 136.849 126.613V44.9076C136.849 43.7795 135.935 42.865 134.806 42.865H117.444Z" fill="#D6D6D6"/>
<path fill-rule="evenodd" clip-rule="evenodd" d="M136.849 63.2915L116.423 63.2915V62.2701L136.849 62.2701V63.2915Z" fill="#D6D6D6"/>
<path fill-rule="evenodd" clip-rule="evenodd" d="M136.849 55.1209H116.423V54.0996H136.849V55.1209Z" fill="#D6D6D6"/>
<path fill-rule="evenodd" clip-rule="evenodd" d="M136.849 115.379H116.423V114.358H136.849V115.379Z" fill="#D6D6D6"/>
<path fill-rule="evenodd" clip-rule="evenodd" d="M136.849 107.208H116.423V106.187H136.849V107.208Z" fill="#D6D6D6"/>
<path fill-rule="evenodd" clip-rule="evenodd" d="M198.265 19.3812L137.497 43.3058C137.106 43.4596 136.849 43.8365 136.849 44.2562V125.657C136.849 126.377 137.575 126.871 138.245 126.607L199.014 102.682C199.404 102.529 199.661 102.152 199.661 101.732V20.3315C199.661 19.6113 198.935 19.1173 198.265 19.3812ZM137.122 42.3555C136.342 42.663 135.828 43.4169 135.828 44.2562V125.657C135.828 127.097 137.279 128.085 138.619 127.557L199.388 103.633C200.169 103.325 200.682 102.571 200.682 101.732V20.3315C200.682 18.8911 199.231 17.9032 197.891 18.4308L137.122 42.3555Z" fill="#D6D6D6"/>
<path d="M116.934 44.2562C116.934 43.4169 116.42 42.663 115.639 42.3555L54.8705 18.4308C53.5303 17.9032 52.0796 18.8911 52.0796 20.3315V101.732C52.0796 102.571 52.593 103.325 53.374 103.633L114.143 127.557C115.483 128.085 116.934 127.097 116.934 125.657V44.2562Z" fill="#D9D9D9" fill-opacity="0.3"/>
<path fill-rule="evenodd" clip-rule="evenodd" d="M54.4964 19.3812L115.265 43.3058C115.656 43.4596 115.912 43.8365 115.912 44.2562V125.657C115.912 126.377 115.187 126.871 114.517 126.607L53.7481 102.682C53.3576 102.529 53.1009 102.152 53.1009 101.732V20.3315C53.1009 19.6113 53.8263 19.1173 54.4964 19.3812ZM115.639 42.3555C116.42 42.663 116.934 43.4169 116.934 44.2562V125.657C116.934 127.097 115.483 128.085 114.143 127.557L53.374 103.633C52.593 103.325 52.0796 102.571 52.0796 101.732V20.3315C52.0796 18.8911 53.5303 17.9032 54.8705 18.4308L115.639 42.3555Z" fill="#D6D6D6"/>
<path fill-rule="evenodd" clip-rule="evenodd" d="M64.6529 9.45201C64.249 9.20173 63.7223 9.49153 63.7223 9.97859V22.0302C63.7223 22.2559 63.5394 22.4388 63.3138 22.4388C63.0882 22.4388 62.9053 22.2559 62.9053 22.0302V9.97859C62.9053 8.86311 64.1249 8.16367 65.0833 8.75747C67.8521 10.4731 73.8907 14.203 79.6606 17.688C82.5458 19.4306 85.3623 21.1111 87.6686 22.4476C89.9845 23.7896 91.7623 24.7707 92.5843 25.128C93.6109 25.5741 95.9539 26.8914 98.8616 28.5956C101.781 30.3064 105.296 32.4238 108.686 34.486C112.076 36.5484 115.34 38.5564 117.758 40.0488C118.966 40.795 119.963 41.4123 120.658 41.8431C121.005 42.0585 121.277 42.2273 121.462 42.3422L121.745 42.5181C121.745 42.5182 121.745 42.5183 121.529 42.8651C121.313 43.212 121.313 43.2119 121.313 43.2118L121.031 43.0362C120.846 42.9214 120.574 42.7528 120.227 42.5375C119.533 42.1069 118.536 41.4899 117.328 40.744C114.912 39.2522 111.649 37.2452 108.261 35.184C104.873 33.1226 101.362 31.0079 98.4485 29.3005C95.5239 27.5864 93.2297 26.2993 92.2587 25.8773C91.3843 25.4973 89.562 24.4891 87.259 23.1545C84.9464 21.8144 82.125 20.131 79.2382 18.3874C73.4643 14.9 67.4226 11.1682 64.6529 9.45201ZM121.876 43.081C121.757 43.2725 121.505 43.331 121.313 43.2118L121.529 42.8651L121.745 42.5181C121.936 42.6373 121.995 42.8894 121.876 43.081Z" fill="#D6D6D6"/>
<path fill-rule="evenodd" clip-rule="evenodd" d="M75.3023 2.92397C74.9241 2.59747 74.3123 2.85855 74.3123 3.40859L74.3123 14.2682C74.3123 14.4938 74.1293 14.6767 73.9037 14.6767C73.6781 14.6767 73.4952 14.4938 73.4952 14.2682L73.4952 3.40859C73.4952 2.20975 74.8906 1.48919 75.8362 2.30548C79.9699 5.8738 91.1259 15.4978 101.638 24.5116C112.164 33.5366 122.013 41.9225 123.555 43.0378C123.738 43.1701 123.779 43.4255 123.647 43.6083C123.514 43.7911 123.259 43.8321 123.076 43.6999C121.498 42.5584 111.607 34.1356 101.107 25.1319C90.5931 16.1171 79.4362 6.49245 75.3023 2.92397Z" fill="#D6D6D6"/>
<path fill-rule="evenodd" clip-rule="evenodd" d="M187.593 9.47481C187.996 9.2199 188.528 9.50859 188.528 9.99939V22.7021C188.528 22.9278 188.711 23.1107 188.936 23.1107C189.162 23.1107 189.345 22.9278 189.345 22.7021V9.99939C189.345 8.87884 188.115 8.17781 187.156 8.7843C184.351 10.5585 178.203 14.4335 172.325 18.0431C169.385 19.848 166.515 21.5855 164.165 22.9606C161.803 24.3423 159.994 25.3409 159.162 25.685C158.118 26.1163 155.735 27.3905 152.776 29.04C149.806 30.6955 146.229 32.7446 142.78 34.7403C139.33 36.7361 136.008 38.6794 133.549 40.1236C132.319 40.8457 131.305 41.4431 130.598 41.86C130.244 42.0685 129.968 42.2318 129.78 42.343L129.493 42.5127L129.492 42.5132C129.492 42.5134 129.491 42.5134 129.699 42.865C129.908 43.2166 129.908 43.2165 129.908 43.2164L130.195 43.0465C130.383 42.9354 130.66 42.7721 131.013 42.5638C131.719 42.1471 132.733 41.55 133.963 40.8282C136.421 39.3845 139.742 37.4422 143.189 35.4475C146.636 33.4526 150.209 31.406 153.174 29.7536C156.149 28.0951 158.485 26.849 159.474 26.4401C160.37 26.0699 162.231 25.0384 164.577 23.6658C166.935 22.2865 169.811 20.5455 172.752 18.7394C178.635 15.1269 184.787 11.2497 187.593 9.47481ZM129.348 43.0731C129.463 43.2672 129.714 43.3313 129.908 43.2164L129.699 42.865L129.492 42.5132C129.298 42.6281 129.233 42.8789 129.348 43.0731Z" fill="#D6D6D6"/>
<path fill-rule="evenodd" clip-rule="evenodd" d="M178.997 1.24053C179.373 0.920408 179.98 1.17911 179.98 1.73093L179.98 13.2468C179.98 13.4725 180.163 13.6554 180.389 13.6554C180.614 13.6554 180.797 13.4725 180.797 13.2468L180.797 1.73093C180.797 0.540597 179.418 -0.190686 178.468 0.618303C174.209 4.24305 162.427 14.2631 151.295 23.6716C140.149 33.0914 129.686 41.87 128.04 43.0355C127.856 43.1659 127.813 43.4209 127.943 43.605C128.074 43.7891 128.329 43.8326 128.513 43.7022C130.196 42.5101 140.702 33.6938 151.822 24.2957C162.956 14.8863 174.738 4.86544 178.997 1.24053Z" fill="#D6D6D6"/>
<path d="M77.9373 105.232L86.336 84.9693C86.6583 84.1918 85.9546 83.3801 85.1393 83.5887L63.8902 89.0271C62.9067 89.2789 62.853 90.6557 63.8139 90.9833L73.4349 94.2628C73.7834 94.3816 74.041 94.6787 74.1091 95.0405L75.9901 105.03C76.178 106.027 77.5485 106.169 77.9373 105.232Z" fill="#D6D6D6"/>
<path fill-rule="evenodd" clip-rule="evenodd" d="M5.61105 104.939C5.07434 104.766 4.49886 105.06 4.3256 105.597C4.15231 106.134 4.44699 106.71 4.98377 106.883L5.29753 105.911C4.98377 106.883 4.9834 106.883 4.98377 106.883L4.98888 106.884L5.00054 106.888L5.04337 106.902C5.08053 106.913 5.13483 106.93 5.2058 106.952C5.34774 106.995 5.55638 107.058 5.82799 107.136C6.37117 107.293 7.16638 107.512 8.18367 107.765C10.2179 108.272 13.1422 108.916 16.7168 109.471C23.8609 110.58 33.6294 111.337 44.0936 109.911C54.6086 108.478 62.3879 104.677 67.5457 101.223C70.1237 99.4959 72.0468 97.856 73.3306 96.6414C73.9726 96.0341 74.4551 95.5327 74.7801 95.1796C74.9426 95.003 75.0658 94.8635 75.1498 94.7662C75.1918 94.7175 75.2241 94.6794 75.2466 94.6526L75.273 94.6208L75.2808 94.6114L75.2833 94.6083L75.2842 94.6072C75.2846 94.6067 75.2849 94.6063 74.4927 93.9617L75.2849 94.6063C75.6409 94.1688 75.5748 93.5255 75.1373 93.1695C74.7 92.8137 74.0571 92.8795 73.701 93.3165C73.701 93.3165 73.701 93.3165 73.701 93.3165L73.6979 93.3202L73.681 93.3406C73.6649 93.3597 73.6393 93.3901 73.604 93.4309C73.5335 93.5125 73.4246 93.6361 73.277 93.7964C72.9819 94.1171 72.5324 94.5847 71.9268 95.1576C70.7154 96.3037 68.8808 97.8699 66.409 99.5254C61.467 102.835 53.9777 106.503 43.8178 107.887C33.6069 109.278 24.0464 108.541 17.0302 107.452C13.5246 106.908 10.6609 106.277 8.67722 105.783C7.68555 105.536 6.91429 105.323 6.39327 105.173C6.13276 105.098 5.93486 105.039 5.80328 104.999C5.73749 104.979 5.68828 104.963 5.65613 104.953L5.62075 104.942L5.61105 104.939C5.61097 104.939 5.61113 104.939 5.61105 104.939Z" fill="#D6D6D6"/>
<path d="M147.573 51.218C147.573 50.7996 147.828 50.4236 148.217 50.269L188.559 34.2293C189.23 33.9627 189.958 34.4567 189.958 35.1784L189.958 43.7041C189.958 44.1225 189.703 44.4986 189.314 44.6531L148.972 60.6928C148.301 60.9595 147.573 60.4654 147.573 59.7438L147.573 51.218Z" fill="#F1F1F3"/>
<path fill-rule="evenodd" clip-rule="evenodd" d="M188.937 35.1784L148.595 51.2181L148.594 59.7438L188.937 43.7041L188.937 35.1784ZM148.217 50.269C147.828 50.4236 147.573 50.7996 147.573 51.218L147.573 59.7438C147.573 60.4654 148.301 60.9595 148.972 60.6928L189.314 44.6531C189.703 44.4986 189.958 44.1225 189.958 43.7041L189.958 35.1784C189.958 34.4567 189.23 33.9627 188.559 34.2293L148.217 50.269Z" fill="#D6D6D6"/>
<path fill-rule="evenodd" clip-rule="evenodd" d="M151.926 65.3946C151.824 65.1318 151.954 64.8358 152.217 64.7336L190.293 49.9282C190.556 49.826 190.852 49.9562 190.954 50.2191C191.056 50.482 190.926 50.7779 190.663 50.8801L152.587 65.6855C152.324 65.7877 152.028 65.6575 151.926 65.3946Z" fill="#D6D6D6"/>
<path fill-rule="evenodd" clip-rule="evenodd" d="M156.801 70.3542C156.696 70.0924 156.824 69.7951 157.085 69.6901L185.522 58.2822C185.784 58.1772 186.081 58.3042 186.186 58.566C186.291 58.8277 186.164 59.1251 185.902 59.2301L157.466 70.638C157.204 70.743 156.906 70.6159 156.801 70.3542Z" fill="#D6D6D6"/>
</svg>
