<svg width="21" height="21" viewBox="0 0 21 21" fill="none" xmlns="http://www.w3.org/2000/svg">
<path d="M0.999884 1H3.27541C3.50084 1 3.6984 1.15086 3.75776 1.36835L5.3397 7.16434M5.3397 7.16434L7.68705 16.8451C7.74143 17.0694 7.94221 17.2273 8.17297 17.2273H17.408C17.632 17.2273 17.8286 17.0783 17.8893 16.8627L20.44 7.7998C20.5298 7.48082 20.2901 7.16434 19.9587 7.16434H18.5289M5.3397 7.16434H7.0624" stroke="black" stroke-width="0.8" stroke-linecap="round"/>
<path d="M13.6814 11.7181C13.3666 11.9541 13.0598 12.1913 12.7913 12.4363C12.5358 12.1936 12.2511 11.9522 11.9571 11.708C11.8749 11.6398 11.7919 11.5712 11.7082 11.5021C11.3677 11.2209 11.0159 10.9304 10.6635 10.6134C9.79286 9.83042 8.9511 8.91384 8.39398 7.70684C7.99503 6.56431 8.25728 5.4837 8.76372 4.67696C9.01865 4.27088 9.33031 3.94345 9.63666 3.72099C9.95094 3.49278 10.2239 3.4 10.4049 3.4C11.1878 3.4 11.6991 3.68004 12.0145 3.9478C12.1747 4.08374 12.2869 4.21898 12.3579 4.31792C12.3932 4.36725 12.418 4.40701 12.4329 4.43255C12.4404 4.4453 12.4454 4.45443 12.448 4.45934L12.4499 4.46301L12.8424 5.26961L13.1782 4.43832C13.1785 4.43781 13.1788 4.43707 13.1792 4.43612C13.1811 4.43189 13.185 4.42349 13.1911 4.4115C13.2033 4.38748 13.2241 4.34937 13.2548 4.30179C13.3164 4.2064 13.4167 4.07493 13.5664 3.9423C13.8594 3.68282 14.3621 3.4 15.1924 3.4C15.6236 3.4 16.3408 3.74218 16.8486 4.48843C17.3391 5.20911 17.6205 6.29701 17.1823 7.74098C16.8007 8.99833 15.9729 9.90118 15.0571 10.6634C14.6958 10.9641 14.3297 11.236 13.9727 11.5011C13.8748 11.5738 13.7776 11.646 13.6814 11.7181Z" stroke="black" stroke-width="0.8"/>
<circle cx="11.1788" cy="19.3672" r="1.13287" fill="black"/>
<circle cx="11.1788" cy="19.3672" r="1.13287" fill="black"/>
<circle cx="11.1788" cy="19.3672" r="1.13287" fill="black"/>
<circle cx="14.9551" cy="19.3672" r="1.13287" fill="black"/>
<circle cx="14.9551" cy="19.3672" r="1.13287" fill="black"/>
<circle cx="14.9551" cy="19.3672" r="1.13287" fill="black"/>
</svg>
