<svg width="44" height="70" viewBox="0 0 44 70" fill="none" xmlns="http://www.w3.org/2000/svg">
<rect x="1" y="65.7761" width="41.8806" height="3.22388" rx="1.61194" stroke="#636364" stroke-width="2"/>
<rect x="1" y="1" width="41.8806" height="3.22388" rx="1.61194" stroke="#636364" stroke-width="2"/>
<path d="M38.1341 5.22391C38.1341 26.1194 28.7311 21.4179 28.7311 30.8209C28.7311 40.2239 38.1341 40.2239 38.1341 65.2985H5.22363C5.22328 39.1791 16.1938 39.7015 15.149 30.8209C14.1042 21.9403 5.22335 28.209 5.22363 5.22391H38.1341Z" stroke="#636364" stroke-width="2.5"/>
<path d="M22.4632 28.7314C22.4632 28.7314 27.6869 21.9403 27.1645 17.2388C26.6421 12.5373 22.4632 17.2388 17.7617 17.2388C13.0602 17.2388 22.4632 28.7314 22.4632 28.7314ZM22.4632 28.7314V33.9552" stroke="#636364" stroke-width="1.8" stroke-linecap="round"/>
<path d="M12.2209 61.6917C14.6369 61.6784 27.5376 61.6155 31.7892 61.7673C34.2671 61.8558 32.8207 58.189 28.0911 56.367C23.8528 54.7343 21.8457 51.7505 16.3927 54.9296C12.0163 57.4811 11.725 60.2942 11.7805 61.3055C11.7932 61.536 11.99 61.693 12.2209 61.6917Z" stroke="#636364" stroke-width="1.8" stroke-linecap="round"/>
<path d="M22.9854 41.791V39.7015" stroke="#636364" stroke-width="2.5" stroke-linecap="round"/>
<path d="M22.9854 48.0597V45.9702" stroke="#636364" stroke-width="2.5" stroke-linecap="round"/>
</svg>
