<?xml version="1.0" encoding="UTF-8"?>
<svg width="14px" height="12px" viewBox="0 0 14 12" version="1.1" xmlns="http://www.w3.org/2000/svg" xmlns:xlink="http://www.w3.org/1999/xlink">
    <!-- Generator: Sketch 57.1 (83088) - https://sketch.com -->
    <title>correction</title>
    <desc>Created with Sketch.</desc>
    <g id="Symbols" stroke="none" stroke-width="1" fill="none" fill-rule="evenodd">
        <g id="AddedV" fill="#1D892B" fill-rule="nonzero">
            <g id="correction">
                <path d="M6,12 C2.69181818,12 3.63797881e-12,9.30818182 3.63797881e-12,6 C3.63797881e-12,2.69181818 2.69181818,0 6,0 C7.14981818,0 8.26909091,0.328363636 9.23672727,0.948545455 C9.42709091,1.07072727 9.48218182,1.32381818 9.36054545,1.51363636 C9.23836364,1.70345455 8.98472727,1.75909091 8.79545455,1.63690909 C7.95927273,1.10181818 6.99327273,0.818181818 6,0.818181818 C3.14290909,0.818181818 0.818181818,3.14290909 0.818181818,6 C0.818181818,8.85709091 3.14290909,11.1818182 6,11.1818182 C8.85709091,11.1818182 11.1818182,8.85709091 11.1818182,6 C11.1818182,5.82927273 11.1736364,5.66018182 11.1578182,5.49381818 C11.136,5.26909091 11.3007273,5.06890909 11.526,5.04763636 C11.7490909,5.01872727 11.9503636,5.19054545 11.9721818,5.41527273 C11.9907273,5.60781818 12,5.80254545 12,6 C12,9.30818182 9.30818182,12 6,12 Z" id="Path"></path>
                <path d="M7.08799741,7 C6.97505956,7 6.8621217,6.95911918 6.77624188,6.87679754 L4.1292609,4.35674713 C3.95691303,4.19266385 3.95691303,3.92665853 4.1292609,3.76257525 C4.30160878,3.59849197 4.58101232,3.59849197 4.7533602,3.76257525 L7.08858563,5.98581972 L13.2466398,0.123062461 C13.4189877,-0.0410208204 13.6983912,-0.0410208204 13.8707391,0.123062461 C14.043087,0.287145743 14.043087,0.553151063 13.8707391,0.717234345 L7.40034117,6.87735755 C7.31387312,6.95911918 7.20093527,7 7.08799741,7 Z" id="Path"></path>
            </g>
        </g>
    </g>
</svg>