<?xml version="1.0" encoding="UTF-8"?>
<svg width="36px" height="40px" viewBox="0 0 36 40" version="1.1" xmlns="http://www.w3.org/2000/svg" xmlns:xlink="http://www.w3.org/1999/xlink">
    <!-- Generator: Sketch 57.1 (83088) - https://sketch.com -->
    <title>File DOC</title>
    <desc>Created with Sketch.</desc>
    <g id="File-DOC" stroke="none" stroke-width="1" fill="none" fill-rule="evenodd">
        <g id="pdf-(6)" fill-rule="nonzero">
            <path d="M7.89803922,0 C6.50470588,0 5.36470588,1.125 5.36470588,2.5 L5.36470588,37.5 C5.36470588,38.875 6.50470588,40 7.89803922,40 L33.2313725,40 C34.6247059,40 35.7647059,38.875 35.7647059,37.5 L35.7647059,10 L25.6313725,0 L7.89803922,0 Z" id="Path" fill="#E2E5E7"></path>
            <path d="M27.7176471,10.6666667 L35.7647059,10.6666667 L25.0352941,0 L25.0352941,8 C25.0352941,9.46666667 26.2423529,10.6666667 27.7176471,10.6666667 Z" id="Path" fill="#B0B7BD"></path>
            <polygon id="Path" fill="#CAD1D8" points="35.7647059 16.8888889 28.6117647 9.77777778 35.7647059 9.77777778"></polygon>
            <path d="M30.4,32.5185185 C30.4,33.2111111 29.83,33.7777778 29.1333333,33.7777778 L1.26666667,33.7777778 C0.57,33.7777778 0,33.2111111 0,32.5185185 L0,19.9259259 C0,19.2333333 0.57,18.6666667 1.26666667,18.6666667 L29.1333333,18.6666667 C29.83,18.6666667 30.4,19.2333333 30.4,19.9259259 L30.4,32.5185185 Z" id="Path" fill="#27A2DB"></path>
            <path d="M29.1482353,34.2222222 L5.36470588,34.2222222 L5.36470588,35.5555556 L29.1482353,35.5555556 C29.8367059,35.5555556 30.4,34.9555556 30.4,34.2222222 L30.4,32.8888889 C30.4,33.6222222 29.8367059,34.2222222 29.1482353,34.2222222 Z" id="Path" fill="#CAD1D8"></path>
        </g>
        <text id="Doc" font-family="OpenSans-Regular, Open Sans" font-size="10" font-weight="normal" letter-spacing="-0.153846154" fill="#FFFFFF">
            <tspan x="6.68535907" y="30">Doc</tspan>
        </text>
    </g>
</svg>
