<?xml version="1.0" encoding="UTF-8"?>
<svg width="91px" height="70px" viewBox="0 0 91 70" version="1.1" xmlns="http://www.w3.org/2000/svg" xmlns:xlink="http://www.w3.org/1999/xlink">
    <title>Icon button/20px/dummy image - image duc</title>
    <g id="Icon-button/20px/dummy-image---image-duc" stroke="none" stroke-width="1" fill="none" fill-rule="evenodd">
        <g id="Group-9" fill="#D6D6D6" fill-rule="nonzero">
            <g id="gallery-(3)">
                <path d="M81.1178261,70 L10.1895652,70 C4.57282609,70 0.00152173913,65.4302174 0.00152173913,59.8119565 L0.00152173913,10.1880435 C0.00152173913,4.57130435 4.57130435,0 10.1895652,0 L81.1178261,0 C86.736087,0 91.3058696,4.56978261 91.3058696,10.1880435 L91.3058696,59.8119565 C91.3058696,65.4302174 86.736087,70 81.1178261,70 Z M10.1895652,3.04347826 C6.25130435,3.04347826 3.045,6.24826087 3.045,10.1880435 L3.045,59.8119565 C3.045,63.7517391 6.24978261,66.9565217 10.1895652,66.9565217 L81.1178261,66.9565217 C85.0576087,66.9565217 88.2623913,63.7517391 88.2623913,59.8119565 L88.2623913,10.1880435 C88.2623913,6.24826087 85.0576087,3.04347826 81.1178261,3.04347826 L10.1895652,3.04347826 L10.1895652,3.04347826 Z" id="Shape"></path>
                <path d="M59.3493478,33.4782609 C54.3154348,33.4782609 50.218913,29.3832609 50.218913,24.3478261 C50.218913,19.3123913 54.3154348,15.2173913 59.3493478,15.2173913 C64.3847826,15.2173913 68.4797826,19.3123913 68.4797826,24.3478261 C68.4797826,29.3832609 64.3832609,33.4782609 59.3493478,33.4782609 Z M59.3493478,18.2608696 C55.9923913,18.2608696 53.2623913,20.9908696 53.2623913,24.3478261 C53.2623913,27.7047826 55.9923913,30.4347826 59.3493478,30.4347826 C62.7063043,30.4347826 65.4363043,27.7047826 65.4363043,24.3478261 C65.4363043,20.9908696 62.7047826,18.2608696 59.3493478,18.2608696 Z" id="Shape"></path>
                <path d="M81.1178261,70 L46.3293478,70 C45.7297826,70 45.1865217,69.6484783 44.9415217,69.1021739 C44.6965217,68.5558696 44.793913,67.9152174 45.1926087,67.4678261 L68.8647826,40.8373913 C69.4415217,40.1876087 70.5615217,40.1876087 71.1397826,40.8373913 L90.1934783,62.2726087 C90.5876087,62.7169565 90.6880435,63.35 90.4491304,63.8947826 C88.8254348,67.6032609 85.1626087,70 81.1178261,70 Z M49.7182609,66.9565217 L81.1178261,66.9565217 C83.6347826,66.9565217 85.9417391,65.631087 87.2245652,63.5143478 L70.0015217,44.1380435 L49.7182609,66.9565217 Z" id="Shape"></path>
                <path d="M46.3293478,70 L10.1880435,70 C4.57130435,70 0,65.4302174 0,59.8119565 L0,50.4076087 C0,50.0347826 0.136956522,49.6756522 0.385,49.3956522 L26.2545652,20.2923913 C26.8313043,19.6426087 27.9513043,19.6426087 28.5295652,20.2923913 L58.9643478,54.5315217 C59.4771739,55.1082609 59.4771739,55.9771739 58.9643478,56.553913 L47.466087,69.4886957 C47.1784783,69.8143478 46.7645652,70 46.3293478,70 Z M3.045,50.9858696 L3.045,59.8119565 C3.045,63.7517391 6.24978261,66.9565217 10.1895652,66.9565217 L45.6476087,66.9565217 L55.7930435,55.5434783 L27.3928261,23.5945652 L3.045,50.9858696 Z" id="Shape"></path>
            </g>
        </g>
    </g>
</svg>