<svg width="28" height="28" viewBox="0 0 28 28" fill="none" xmlns="http://www.w3.org/2000/svg">
<path d="M28 14C28 21.732 21.732 28 14 28C6.26801 28 0 21.732 0 14C0 6.26801 6.26801 0 14 0C21.732 0 28 6.26801 28 14Z" fill="#2FC943"/>
<path fill-rule="evenodd" clip-rule="evenodd" d="M20.3321 7.7519C21.0214 8.21143 21.2076 9.14273 20.7481 9.83203L14.0668 19.8539C13.3932 20.8644 11.9817 21.0462 11.074 20.2393L7.00347 16.6211C6.3843 16.0707 6.32853 15.1226 6.8789 14.5034C7.42928 13.8843 8.37739 13.8285 8.99656 14.3789L12.2082 17.2336L18.2519 8.16793C18.7115 7.47863 19.6428 7.29237 20.3321 7.7519Z" fill="white"/>
</svg>
