<svg width="23" height="20" viewBox="0 0 23 20" fill="none" xmlns="http://www.w3.org/2000/svg">
<path fill-rule="evenodd" clip-rule="evenodd" d="M4.62049 1.4H0V0.599998H4.62049C5.04087 0.599998 5.40526 0.89102 5.49821 1.301L6.69077 6.56103H21.9406C22.5307 6.56103 22.9611 7.1194 22.8109 7.69007L20.5642 16.2277C20.4601 16.6231 20.1027 16.8987 19.6938 16.8987H8.93301C8.51263 16.8987 8.14824 16.6077 8.05529 16.1977L4.71801 1.47789C4.70768 1.43233 4.6672 1.4 4.62049 1.4ZM6.87214 7.36103L8.83549 16.0208C8.84582 16.0663 8.88631 16.0987 8.93301 16.0987H19.6938C19.7392 16.0987 19.779 16.0681 19.7905 16.0241L22.0373 7.48648C22.054 7.42307 22.0061 7.36103 21.9406 7.36103H6.87214Z" fill="black"/>
<path d="M12.8501 18.8454C12.8501 19.4831 12.3332 20 11.6956 20C11.0579 20 10.541 19.4831 10.541 18.8454C10.541 18.2078 11.0579 17.6909 11.6956 17.6909C12.3332 17.6909 12.8501 18.2078 12.8501 18.8454Z" fill="black"/>
<path d="M12.8501 18.8454C12.8501 19.4831 12.3332 20 11.6956 20C11.0579 20 10.541 19.4831 10.541 18.8454C10.541 18.2078 11.0579 17.6909 11.6956 17.6909C12.3332 17.6909 12.8501 18.2078 12.8501 18.8454Z" fill="black"/>
<path d="M12.8501 18.8454C12.8501 19.4831 12.3332 20 11.6956 20C11.0579 20 10.541 19.4831 10.541 18.8454C10.541 18.2078 11.0579 17.6909 11.6956 17.6909C12.3332 17.6909 12.8501 18.2078 12.8501 18.8454Z" fill="black"/>
<path d="M18.8736 18.8454C18.8736 19.4831 18.3567 20 17.719 20C17.0814 20 16.5645 19.4831 16.5645 18.8454C16.5645 18.2078 17.0814 17.6909 17.719 17.6909C18.3567 17.6909 18.8736 18.2078 18.8736 18.8454Z" fill="black"/>
<path d="M18.8736 18.8454C18.8736 19.4831 18.3567 20 17.719 20C17.0814 20 16.5645 19.4831 16.5645 18.8454C16.5645 18.2078 17.0814 17.6909 17.719 17.6909C18.3567 17.6909 18.8736 18.2078 18.8736 18.8454Z" fill="black"/>
<path d="M18.8736 18.8454C18.8736 19.4831 18.3567 20 17.719 20C17.0814 20 16.5645 19.4831 16.5645 18.8454C16.5645 18.2078 17.0814 17.6909 17.719 17.6909C18.3567 17.6909 18.8736 18.2078 18.8736 18.8454Z" fill="black"/>
</svg>
