<svg width="21" height="20" viewBox="0 0 21 20" fill="none" xmlns="http://www.w3.org/2000/svg">
<path fill-rule="evenodd" clip-rule="evenodd" d="M7.78842 14.577C11.5376 14.577 14.5768 11.5377 14.5768 7.78851C14.5768 4.03931 11.5376 1 7.78842 1C4.03929 1 1 4.03931 1 7.78851C1 11.5377 4.03929 14.577 7.78842 14.577ZM7.78842 15.577C12.0899 15.577 15.5768 12.09 15.5768 7.78851C15.5768 3.48703 12.0899 0 7.78842 0C3.487 0 0 3.48703 0 7.78851C0 12.09 3.487 15.577 7.78842 15.577Z" fill="black"/>
<path fill-rule="evenodd" clip-rule="evenodd" d="M19.9305 18.7423L13.0955 12.8871L13.7461 12.1277L20.5811 17.9829C20.7908 18.1625 20.8152 18.4781 20.6355 18.6879C20.4559 18.8976 20.1402 18.9219 19.9305 18.7423Z" fill="black"/>
</svg>
