<svg width="24" height="24" viewBox="0 0 24 24" fill="none" xmlns="http://www.w3.org/2000/svg">
<g clip-path="url(#clip0_1367_45672)">
<path d="M0.800016 4.40002V5.20003C0.800016 5.42095 0.979125 5.60002 1.2 5.60002C1.42088 5.60002 1.59998 5.42091 1.59998 5.20003V4.40002C2.04183 4.40002 2.4 4.04184 2.4 3.6V2.4H3.6C4.04184 2.4 4.40002 2.04183 4.40002 1.59998H5.20003C5.42095 1.59998 5.60002 1.42088 5.60002 1.2C5.60002 0.979125 5.42091 0.800016 5.20003 0.800016H4.40002C4.40002 0.358172 4.04184 0 3.6 0H1.2C0.537281 0 0 0.537281 0 1.2V3.6C0 4.04184 0.358172 4.40002 0.800016 4.40002ZM0.800016 1.2C0.800016 0.979078 0.979125 0.800016 1.2 0.800016H3.6V1.60003H2.4C1.95816 1.60003 1.59998 1.9582 1.59998 2.40005V3.60005H0.800016V1.2Z" fill="black"/>
<path fill-rule="evenodd" clip-rule="evenodd" d="M1.59977 11.5992C1.59977 11.3783 1.42066 11.1992 1.19979 11.1992C0.978914 11.1992 0.799805 11.3783 0.799805 11.5992V12.3992C0.799805 12.6201 0.978914 12.7992 1.19979 12.7992C1.42066 12.7992 1.59977 12.6201 1.59977 12.3992V11.5992Z" fill="black"/>
<path fill-rule="evenodd" clip-rule="evenodd" d="M1.59977 9.20077C1.59977 8.97984 1.42066 8.80078 1.19979 8.80078C0.978914 8.80078 0.799805 8.97989 0.799805 9.20077V10.0008C0.799805 10.2217 0.978914 10.4008 1.19979 10.4008C1.42066 10.4008 1.59977 10.2217 1.59977 10.0008V9.20077Z" fill="black"/>
<path fill-rule="evenodd" clip-rule="evenodd" d="M1.59977 6.79842C1.59977 6.5775 1.42066 6.39844 1.19979 6.39844C0.978914 6.39844 0.799805 6.57755 0.799805 6.79842V7.59844C0.799805 7.81936 0.978914 7.99842 1.19979 7.99842C1.42066 7.99842 1.59977 7.81931 1.59977 7.59844V6.79842Z" fill="black"/>
<path fill-rule="evenodd" clip-rule="evenodd" d="M1.59977 14.0015C1.59977 13.7806 1.42066 13.6016 1.19979 13.6016C0.978914 13.6016 0.799805 13.7806 0.799805 14.0015V14.8016C0.799805 15.0225 0.978914 15.2015 1.19979 15.2015C1.42066 15.2015 1.59977 15.0224 1.59977 14.8016V14.0015Z" fill="black"/>
<path fill-rule="evenodd" clip-rule="evenodd" d="M1.19979 16C0.978867 16 0.799805 16.1791 0.799805 16.4V17.2C0.799805 17.4209 0.978914 17.6 1.19979 17.6C1.42066 17.6 1.59977 17.4209 1.59977 17.2V16.4C1.59977 16.1791 1.42071 16 1.19979 16Z" fill="black"/>
<path d="M1.2 23.9985H3.6C4.04184 23.9985 4.40002 23.6403 4.40002 23.1984H5.20003C5.42095 23.1984 5.60002 23.0194 5.60002 22.7985C5.60002 22.5775 5.42091 22.3985 5.20003 22.3985H4.40002C4.40002 21.9566 4.04184 21.5985 3.6 21.5985H2.4V20.3985C2.4 19.9566 2.04183 19.5984 1.59998 19.5984V18.7984C1.59998 18.5775 1.42088 18.3984 1.2 18.3984C0.979125 18.3984 0.800016 18.5775 0.800016 18.7984V19.5984C0.358172 19.5984 0 19.9566 0 20.3985V22.7985C0 23.4612 0.537281 23.9985 1.2 23.9985ZM0.800016 20.3985H1.60003V21.5985C1.60003 22.0403 1.9582 22.3985 2.40005 22.3985H3.60005V23.1985H1.2C0.979078 23.1985 0.800016 23.0194 0.800016 22.7985V20.3985Z" fill="black"/>
<path fill-rule="evenodd" clip-rule="evenodd" d="M12.4002 23.1984C12.6211 23.1984 12.8002 23.0193 12.8002 22.7984C12.8002 22.5775 12.6211 22.3984 12.4002 22.3984H11.6002C11.3793 22.3984 11.2002 22.5775 11.2002 22.7984C11.2002 23.0193 11.3793 23.1984 11.6002 23.1984H12.4002Z" fill="black"/>
<path fill-rule="evenodd" clip-rule="evenodd" d="M9.9998 23.1984C10.2207 23.1984 10.3998 23.0193 10.3998 22.7984C10.3998 22.5775 10.2207 22.3984 9.9998 22.3984H9.19979C8.97887 22.3984 8.7998 22.5775 8.7998 22.7984C8.7998 23.0193 8.97891 23.1984 9.19979 23.1984H9.9998Z" fill="black"/>
<path fill-rule="evenodd" clip-rule="evenodd" d="M7.60039 23.1984C7.82131 23.1984 8.00037 23.0193 8.00037 22.7984C8.00037 22.5775 7.82127 22.3984 7.60039 22.3984H6.80037C6.57945 22.3984 6.40039 22.5775 6.40039 22.7984C6.40039 23.0193 6.5795 23.1984 6.80037 23.1984H7.60039Z" fill="black"/>
<path d="M23.2004 19.5984V18.7984C23.2004 18.5775 23.0213 18.3984 22.8004 18.3984C22.5795 18.3984 22.4004 18.5775 22.4004 18.7984V19.5984C21.9586 19.5984 21.6004 19.9566 21.6004 20.3985V21.5985H20.4004C19.9586 21.5985 19.6004 21.9566 19.6004 22.3985H18.8004C18.5795 22.3985 18.4004 22.5775 18.4004 22.7985C18.4004 23.0194 18.5795 23.1984 18.8004 23.1984H19.6004C19.6004 23.6403 19.9586 23.9985 20.4004 23.9985H22.8004C23.4631 23.9985 24.0004 23.4612 24.0004 22.7985V20.3985C24.0004 19.9566 23.6422 19.5984 23.2004 19.5984ZM23.2004 22.7985C23.2004 23.0194 23.0213 23.1984 22.8004 23.1984H20.4004V22.3984H21.6004C22.0422 22.3984 22.4004 22.0403 22.4004 21.5984V20.3984H23.2004L23.2004 22.7985Z" fill="black"/>
<path fill-rule="evenodd" clip-rule="evenodd" d="M22.4004 12.3992C22.4004 12.6201 22.5795 12.7992 22.8004 12.7992C23.0213 12.7992 23.2004 12.6201 23.2004 12.3992V11.5992C23.2004 11.3783 23.0213 11.1992 22.8004 11.1992C22.5795 11.1992 22.4004 11.3783 22.4004 11.5992V12.3992Z" fill="black"/>
<path fill-rule="evenodd" clip-rule="evenodd" d="M22.4004 14.8016C22.4004 15.0225 22.5795 15.2015 22.8004 15.2015C23.0213 15.2015 23.2004 15.0224 23.2004 14.8016V14.0015C23.2004 13.7806 23.0213 13.6016 22.8004 13.6016C22.5795 13.6016 22.4004 13.7806 22.4004 14.0015V14.8016Z" fill="black"/>
<path fill-rule="evenodd" clip-rule="evenodd" d="M22.4004 17.2C22.4004 17.4209 22.5795 17.6 22.8004 17.6C23.0213 17.6 23.2004 17.4209 23.2004 17.2V16.4C23.2004 16.1791 23.0213 16 22.8004 16C22.5795 16 22.4004 16.1791 22.4004 16.4V17.2Z" fill="black"/>
<path d="M22.8004 0H20.4004C19.9586 0 19.6004 0.358172 19.6004 0.800016H18.8004C18.5795 0.800016 18.4004 0.979125 18.4004 1.2C18.4004 1.42088 18.5795 1.59998 18.8004 1.59998H19.6004C19.6004 2.04183 19.9586 2.4 20.4004 2.4H21.6004V3.6C21.6004 4.04184 21.9586 4.40002 22.4004 4.40002V5.20003C22.4004 5.42095 22.5795 5.60002 22.8004 5.60002C23.0213 5.60002 23.2004 5.42091 23.2004 5.20003V4.40002C23.6422 4.40002 24.0004 4.04184 24.0004 3.6V1.2C24.0004 0.537281 23.4632 0 22.8004 0ZM22.4004 3.6V2.4C22.4004 1.95816 22.0422 1.59998 21.6004 1.59998H20.4004V0.800016H22.8004C23.0213 0.800016 23.2004 0.979125 23.2004 1.2V3.6H22.4004Z" fill="black"/>
<path fill-rule="evenodd" clip-rule="evenodd" d="M11.6002 1.60075H12.4002C12.6211 1.60075 12.8002 1.42164 12.8002 1.20077C12.8002 0.979891 12.6211 0.800781 12.4002 0.800781H11.6002C11.3793 0.800781 11.2002 0.979891 11.2002 1.20077C11.2002 1.42164 11.3793 1.60075 11.6002 1.60075Z" fill="black"/>
<path fill-rule="evenodd" clip-rule="evenodd" d="M14.0006 1.60075H14.8006C15.0215 1.60075 15.2006 1.42164 15.2006 1.20077C15.2006 0.979891 15.0215 0.800781 14.8006 0.800781H14.0006C13.7796 0.800781 13.6006 0.979891 13.6006 1.20077C13.6006 1.42164 13.7796 1.60075 14.0006 1.60075Z" fill="black"/>
<path fill-rule="evenodd" clip-rule="evenodd" d="M16.4 1.60075H17.2C17.4209 1.60075 17.6 1.42164 17.6 1.20077C17.6 0.979891 17.4209 0.800781 17.2 0.800781H16.4C16.1791 0.800781 16 0.979891 16 1.20077C16 1.42164 16.1791 1.60075 16.4 1.60075Z" fill="black"/>
<path fill-rule="evenodd" clip-rule="evenodd" d="M9.20077 1.60075H10.0008C10.2217 1.60075 10.4008 1.42164 10.4008 1.20077C10.4008 0.979891 10.2217 0.800781 10.0008 0.800781H9.20077C8.97984 0.800781 8.80078 0.979891 8.80078 1.20077C8.80078 1.42164 8.97984 1.60075 9.20077 1.60075Z" fill="black"/>
<path fill-rule="evenodd" clip-rule="evenodd" d="M6.80038 1.60075H7.60039C7.82131 1.60075 8.00038 1.42164 8.00038 1.20077C8.00038 0.979891 7.82127 0.800781 7.60039 0.800781H6.80038C6.57945 0.800781 6.40039 0.979891 6.40039 1.20077C6.40039 1.42164 6.57945 1.60075 6.80038 1.60075Z" fill="black"/>
<path fill-rule="evenodd" clip-rule="evenodd" d="M22.4004 10.0008C22.4004 10.2217 22.5795 10.4008 22.8004 10.4008C23.0213 10.4008 23.2004 10.2217 23.2004 10.0008V9.20077C23.2004 8.97984 23.0213 8.80078 22.8004 8.80078C22.5795 8.80078 22.4004 8.97989 22.4004 9.20077V10.0008Z" fill="black"/>
<path fill-rule="evenodd" clip-rule="evenodd" d="M22.8004 8.00233C23.0213 8.00233 23.2004 7.82322 23.2004 7.60234V6.80233C23.2004 6.58141 23.0213 6.40234 22.8004 6.40234C22.5795 6.40234 22.4004 6.58145 22.4004 6.80233V7.60234C22.4004 7.82322 22.5795 8.00233 22.8004 8.00233Z" fill="black"/>
<path fill-rule="evenodd" clip-rule="evenodd" d="M14.8006 23.2023C15.0215 23.2023 15.2006 23.0232 15.2006 22.8023C15.2006 22.5814 15.0215 22.4023 14.8006 22.4023H14.0006C13.7796 22.4023 13.6006 22.5814 13.6006 22.8023C13.6006 23.0232 13.7796 23.2023 14.0006 23.2023H14.8006Z" fill="black"/>
<path fill-rule="evenodd" clip-rule="evenodd" d="M17.2 23.2023C17.4209 23.2023 17.6 23.0232 17.6 22.8023C17.6 22.5814 17.4209 22.4023 17.2 22.4023H16.4C16.1791 22.4023 16 22.5814 16 22.8023C16 23.0232 16.1791 23.2023 16.4 23.2023H17.2Z" fill="black"/>
<path d="M17.0099 5.32311L14.9892 4.15645C14.7213 4.0017 14.4029 3.95968 14.1041 4.03965C13.8052 4.11962 13.5503 4.31501 13.3955 4.58286L7.5126 14.7731C7.30135 15.1392 7.19348 15.5557 7.20052 15.9783L7.2326 17.9225C7.23586 18.1241 7.29128 18.3213 7.39345 18.4951C7.49562 18.6688 7.64107 18.8131 7.81561 18.9139C7.99015 19.0147 8.18783 19.0686 8.38938 19.0703C8.59094 19.072 8.78949 19.0214 8.96569 18.9235L10.6661 17.9791C11.0362 17.7737 11.3431 17.4712 11.5539 17.1041L17.4369 6.9162C17.5914 6.64829 17.6332 6.32999 17.5531 6.03127C17.4731 5.73254 17.2776 5.47783 17.0099 5.32311ZM10.5436 16.5231C10.438 16.706 10.2845 16.8566 10.0997 16.9589L8.39927 17.9039L8.36719 15.9602C8.36383 15.7486 8.41764 15.54 8.52294 15.3564L14.4059 5.16736L16.4265 6.33403L10.5436 16.5231Z" fill="black"/>
</g>
<defs>
<clipPath id="clip0_1367_45672">
<rect width="24" height="24" fill="white"/>
</clipPath>
</defs>
</svg>
