<svg width="24" height="28" viewBox="0 0 24 28" fill="none" xmlns="http://www.w3.org/2000/svg">
<path d="M15.1078 9.85156C15.0297 9.22656 14.9438 8.73047 14.85 8.36328C14.8344 8.20703 14.6742 7.93359 14.3695 7.54297C13.4867 7.46484 12.8383 7.42578 12.4242 7.42578H10.8656C10.7563 8.54297 10.6977 9.42969 10.6898 10.0859V18.9922C10.6898 19.4375 10.7094 19.9062 10.7484 20.3984C10.7953 20.8828 10.8344 21.2617 10.8656 21.5352L13.0219 21.6992L12.8578 23.1172C12.6625 23.1016 12.2289 23.0781 11.557 23.0469C10.8852 23.0156 10.1508 23 9.35391 23C8.92422 23.0156 8.40859 23.0352 7.80703 23.0586C7.20547 23.082 6.77578 23.1016 6.51797 23.1172L6.40078 21.9219L8.29922 21.5352C8.43984 20.5898 8.51016 19.9805 8.51016 19.707V9.37109C8.51016 9.14453 8.46328 8.69531 8.36953 8.02344L8.29922 7.42578H6.7875C6.37344 7.42578 5.725 7.46484 4.84219 7.54297C4.5375 7.92578 4.37734 8.19922 4.36172 8.36328C4.26797 8.73047 4.17813 9.22656 4.09219 9.85156L2.69766 9.72266L2.87344 6.27734L3.33047 5.84375C3.57266 5.875 4.0375 5.92188 4.725 5.98438C5.4125 6.04687 5.85781 6.07812 6.06094 6.07812H13.1391C13.35 6.07812 13.7992 6.04687 14.4867 5.98438C15.1742 5.92188 15.6391 5.875 15.8813 5.84375L16.3383 6.27734L16.5023 9.72266L15.1078 9.85156Z" fill="black"/>
<path d="M14.875 16.25C14.4608 16.25 14.125 16.5858 14.125 17C14.125 17.4142 14.4608 17.75 14.875 17.75H18.25V21.125C18.25 21.5392 18.5858 21.875 19 21.875C19.4142 21.875 19.75 21.5392 19.75 21.125V17.75H23.125C23.5392 17.75 23.875 17.4142 23.875 17C23.875 16.5858 23.5392 16.25 23.125 16.25H19.75V12.875C19.75 12.4608 19.4142 12.125 19 12.125C18.5858 12.125 18.25 12.4608 18.25 12.875V16.25H14.875Z" fill="black"/>
</svg>
