<svg width="50" height="50" viewBox="0 0 50 50" fill="none" xmlns="http://www.w3.org/2000/svg">
<rect width="50" height="50" rx="4" fill="white"/>
<path fill-rule="evenodd" clip-rule="evenodd" d="M39.25 34.3687C39.25 35.3155 38.5038 36.083 37.5833 36.083H10.9167C9.99617 36.083 9.25 35.3155 9.25 34.3687C9.25 33.422 9.99617 32.6544 10.9167 32.6544H37.5833C38.5038 32.6544 39.25 33.422 39.25 34.3687Z" fill="black"/>
<path fill-rule="evenodd" clip-rule="evenodd" d="M39.25 24.0826C39.25 25.0294 38.5038 25.7969 37.5833 25.7969L20.9167 25.7969C19.9962 25.7969 19.25 25.0294 19.25 24.0826C19.25 23.1358 19.9962 22.3683 20.9167 22.3683L37.5833 22.3683C38.5038 22.3683 39.25 23.1358 39.25 24.0826Z" fill="black"/>
<path fill-rule="evenodd" clip-rule="evenodd" d="M39.25 13.7974C39.25 14.7442 38.5038 15.5117 37.5833 15.5117L14.25 15.5117C13.3295 15.5117 12.5833 14.7442 12.5833 13.7974C12.5833 12.8506 13.3295 12.0831 14.25 12.0831L37.5833 12.0831C38.5038 12.0831 39.25 12.8506 39.25 13.7974Z" fill="black"/>
</svg>
