<svg width="30" height="28" viewBox="0 0 30 28" fill="none" xmlns="http://www.w3.org/2000/svg">
<path d="M8.0223 18.1862C8.30078 18.4744 8.67664 18.6369 9.06886 18.6386C9.26667 18.6378 9.46235 18.596 9.64457 18.5156C9.82678 18.4353 9.9919 18.318 10.1304 18.1706C10.4088 17.8782 10.5651 17.4828 10.5651 17.0706C10.5651 16.6584 10.4088 16.263 10.1304 15.9706L5.12185 10.8375H15.0492C18.2213 10.8375 21.2636 12.1525 23.5066 14.4933C25.7497 16.8341 27.0098 20.0089 27.0098 23.3193V26.4398C27.0098 26.8536 27.1674 27.2504 27.4477 27.543C27.7281 27.8356 28.1084 28 28.5049 28C28.9014 28 29.2817 27.8356 29.5621 27.543C29.8425 27.2504 30 26.8536 30 26.4398V23.3193C30 19.1813 28.4248 15.2128 25.621 12.2868C22.8172 9.36082 19.0144 7.71701 15.0492 7.71701H5.15175L10.1154 2.58386C10.3625 2.28722 10.4932 1.90418 10.4814 1.51132C10.4696 1.11846 10.3162 0.744729 10.0517 0.464834C9.78731 0.18494 9.43139 0.0195104 9.05514 0.0016186C8.67889 -0.0162731 8.31003 0.114691 8.0223 0.368329L0.442243 8.16948C0.302111 8.31452 0.190885 8.48709 0.114982 8.67721C0.0390789 8.86734 0 9.07127 0 9.27724C0 9.48321 0.0390789 9.68714 0.114982 9.87727C0.190885 10.0674 0.302111 10.24 0.442243 10.385L8.0223 18.1862Z" fill="black"/>
</svg>
