<svg width="14" height="16" viewBox="0 0 14 16" fill="none" xmlns="http://www.w3.org/2000/svg">
<path d="M10.9746 15C10.5059 15 9.97201 15.013 9.37305 15.0391C8.77409 15.0651 8.35417 15.0846 8.11328 15.0977L8.03516 14.1211L9.5 13.7207L8.95312 11.5625L8.5332 10.3613H4.13867L3.49414 12.4609L3.29883 13.7207L4.69531 13.916L4.59766 15H2.87891C2.38411 15 1.86328 15.013 1.31641 15.0391C0.769531 15.0651 0.388672 15.0846 0.173828 15.0977L0.0957031 14.1211L1.35547 13.7793L2.21484 11.7969L5.79883 0.898438L6.95117 0.703125L11.0723 12.0215L11.8535 13.7207L13.0938 13.916L12.9961 15H10.9746ZM6.25781 3.85742L4.5 9.35547L8.13281 9.27734L6.25781 3.85742Z" fill="black"/>
</svg>
