<svg width="50" height="50" viewBox="0 0 50 50" fill="none" xmlns="http://www.w3.org/2000/svg">
<rect width="50" height="50" rx="4" fill="white"/>
<path fill-rule="evenodd" clip-rule="evenodd" d="M10.75 15.7215C10.75 14.7249 11.4962 13.917 12.4167 13.917H39.0833C40.0038 13.917 40.75 14.7249 40.75 15.7215C40.75 16.7181 40.0038 17.526 39.0833 17.526H12.4167C11.4962 17.526 10.75 16.7181 10.75 15.7215Z" fill="black"/>
<path fill-rule="evenodd" clip-rule="evenodd" d="M10.75 26.5487C10.75 25.552 11.4962 24.7441 12.4167 24.7441H29.0833C30.0038 24.7441 30.75 25.552 30.75 26.5487C30.75 27.5453 30.0038 28.3532 29.0833 28.3532H12.4167C11.4962 28.3532 10.75 27.5453 10.75 26.5487Z" fill="black"/>
<path fill-rule="evenodd" clip-rule="evenodd" d="M10.75 37.3758C10.75 36.3792 11.4962 35.5713 12.4167 35.5713H35.75C36.6705 35.5713 37.4167 36.3792 37.4167 37.3758C37.4167 38.3724 36.6705 39.1803 35.75 39.1803H12.4167C11.4962 39.1803 10.75 38.3724 10.75 37.3758Z" fill="black"/>
</svg>
