<svg width="20" height="20" viewBox="0 0 20 20" fill="none" xmlns="http://www.w3.org/2000/svg">
<path d="M9.04356 10.0031L0.190711 18.9178C-0.0552365 19.1654 -0.0552365 19.5667 0.190711 19.8143C0.313528 19.9383 0.474784 20 0.635728 20C0.796984 20 0.957928 19.9383 1.08075 19.8143L10.0002 10.8326L18.9196 19.8143C19.0427 19.9383 19.2036 20 19.3646 20C19.5255 20 19.6868 19.9383 19.8096 19.8143C20.0555 19.5667 20.0555 19.1654 19.8096 18.9178L10.9571 10.0031L19.8155 1.08208C20.0615 0.834415 20.0615 0.433178 19.8155 0.185513C19.5696 -0.0618377 19.1711 -0.0618377 18.9255 0.185513L10.0005 9.17353L1.0745 0.185828C0.828548 -0.061523 0.430407 -0.061523 0.18446 0.185828C-0.0614868 0.433493 -0.0614868 0.83473 0.18446 1.0824L9.04356 10.0031Z" fill="black"/>
</svg>
