<svg width="24" height="24" viewBox="0 0 24 24" fill="none" xmlns="http://www.w3.org/2000/svg">
<path d="M2.5 7C2.5 4.51472 4.51472 2.5 7 2.5H14.25C14.6642 2.5 15 2.16421 15 1.75C15 1.33579 14.6642 1 14.25 1H7C3.68629 1 1 3.68629 1 7V14.25C1 14.6642 1.33579 15 1.75 15C2.16421 15 2.5 14.6642 2.5 14.25V7Z" fill="black"/>
<path fill-rule="evenodd" clip-rule="evenodd" d="M2.5 13C2.5 12.5858 2.16421 12.25 1.75 12.25C1.33579 12.25 1 12.5858 1 13V17.5C1 20.8137 3.68629 23.5 7 23.5H17.5C20.8137 23.5 23.5 20.8137 23.5 17.5V11.25C23.5 10.8358 23.1642 10.5 22.75 10.5C22.3358 10.5 22 10.8358 22 11.25V16.9531C20.2813 14.2657 16.333 14.2991 14.6188 16.8883L12.6806 14.5978C10.3828 11.8822 6.10626 12.1899 4.22087 15.2065L2.52007 17.9278C2.50679 17.787 2.5 17.6443 2.5 17.5V13ZM20.9206 18.0915L21.5673 19.4278C21.025 20.5699 20.0158 21.4474 18.7862 21.8135L15.6508 18.108C16.6803 15.9183 19.8411 15.8608 20.9206 18.0915ZM3.1251 19.7895C3.90863 21.1127 5.35071 22 7 22H16.9791L11.5356 15.5667C9.89421 13.627 6.83957 13.8468 5.49284 16.0015L3.136 19.7725C3.13243 19.7782 3.1288 19.7839 3.1251 19.7895Z" fill="black"/>
<path d="M14.5 5.125C14.0858 5.125 13.75 5.46077 13.75 5.875C13.75 6.28923 14.0858 6.625 14.5 6.625H17.875V10C17.875 10.4142 18.2108 10.75 18.625 10.75C19.0392 10.75 19.375 10.4142 19.375 10V6.625H22.75C23.1642 6.625 23.5 6.28923 23.5 5.875C23.5 5.46077 23.1642 5.125 22.75 5.125H19.375V1.75C19.375 1.33579 19.0392 1 18.625 1C18.2108 1 17.875 1.33579 17.875 1.75V5.125H14.5Z" fill="black"/>
</svg>
