<svg width="106" height="105" viewBox="0 0 106 105" fill="none" xmlns="http://www.w3.org/2000/svg">
<rect x="0.985352" width="104.999" height="104.752" rx="4" fill="white"/>
<g clip-path="url(#clip0_336_45720)">
<path fill-rule="evenodd" clip-rule="evenodd" d="M63.2023 55.1465C63.2023 60.8401 59.67 64.839 53.4869 64.839C47.3037 64.839 43.7715 60.8401 43.7715 55.1465C43.7715 48.0086 50.5528 44.8599 52.9803 40.231C53.0747 40.0377 53.2713 39.915 53.4869 39.915C53.7024 39.915 53.8991 40.0377 53.9935 40.231C56.4209 44.8599 63.2023 48.0086 63.2023 55.1465Z" fill="#3B97D3"/>
<path fill-rule="evenodd" clip-rule="evenodd" d="M53.4871 12.2227V19.146C47.6357 19.1342 41.8869 20.6779 36.8321 23.6185L33.3623 17.6091V17.5952C39.4775 14.0632 46.421 12.2096 53.4871 12.2227Z" fill="#2980BA"/>
<path fill-rule="evenodd" clip-rule="evenodd" d="M36.8315 23.618C31.7818 26.537 27.5855 30.7235 24.6595 35.7613L18.6359 32.2997H18.6221C22.1676 26.2009 27.2486 21.1319 33.3617 17.5947V17.6086L36.8315 23.618Z" fill="#285680"/>
<path fill-rule="evenodd" clip-rule="evenodd" d="M24.66 35.7614C21.7125 40.8043 20.1651 46.5396 20.177 52.3772H13.2374C13.2242 45.3278 15.0822 38.4006 18.6226 32.2998H18.6364L24.66 35.7614Z" fill="#3D324C"/>
<path fill-rule="evenodd" clip-rule="evenodd" d="M24.66 68.9937L18.6364 72.4553H18.6226C15.0822 66.3546 13.2242 59.4274 13.2374 52.3779H20.177C20.1651 58.2155 21.7125 63.9508 24.66 68.9937Z" fill="#802D40"/>
<path fill-rule="evenodd" clip-rule="evenodd" d="M36.8315 81.1365L33.3617 87.1459V87.1598C27.2486 83.6226 22.1676 78.5536 18.6221 72.4548H18.6359L24.6595 68.9932C27.5855 74.031 31.7818 78.2175 36.8315 81.1365Z" fill="#C03A2B"/>
<path fill-rule="evenodd" clip-rule="evenodd" d="M53.4871 85.6091V92.5325C46.421 92.5456 39.4775 90.692 33.3623 87.1599V87.1461L36.8321 81.1367C41.8869 84.0772 47.6357 85.621 53.4871 85.6091Z" fill="#D25627"/>
<path fill-rule="evenodd" clip-rule="evenodd" d="M73.6121 87.1461V87.1599C67.4969 90.692 60.5534 92.5456 53.4873 92.5325V85.6091C59.3386 85.621 65.0875 84.0772 70.1423 81.1367L73.6121 87.1461Z" fill="#E57E25"/>
<path fill-rule="evenodd" clip-rule="evenodd" d="M88.351 72.4548C84.8055 78.5536 79.7245 83.6226 73.6114 87.1598V87.1459L70.1416 81.1365C75.1914 78.2175 79.3877 74.031 82.3136 68.9932L88.3372 72.4548H88.351Z" fill="#F3D55B"/>
<path fill-rule="evenodd" clip-rule="evenodd" d="M93.7361 52.3779C93.7493 59.4274 91.8913 66.3546 88.3509 72.4553H88.337L82.3135 68.9937C85.2609 63.9508 86.8083 58.2155 86.7964 52.3779H93.7361Z" fill="#F0C419"/>
<path fill-rule="evenodd" clip-rule="evenodd" d="M93.7361 52.3772H86.7964C86.8083 46.5396 85.2609 40.8043 82.3135 35.7614L88.337 32.2998H88.3509C91.8913 38.4006 93.7493 45.3278 93.7361 52.3772Z" fill="#24AE5F"/>
<path fill-rule="evenodd" clip-rule="evenodd" d="M88.351 32.2997H88.3372L82.3136 35.7613C79.3877 30.7235 75.1914 26.537 70.1416 23.618L73.6114 17.6086V17.5947C79.7245 21.1319 84.8055 26.2009 88.351 32.2997Z" fill="#33907C"/>
<path fill-rule="evenodd" clip-rule="evenodd" d="M73.6121 17.5952V17.6091L70.1423 23.6185C65.0875 20.6779 59.3386 19.1342 53.4873 19.146V12.2227C60.5534 12.2096 67.4969 14.0632 73.6121 17.5952Z" fill="#3B97D3"/>
<path fill-rule="evenodd" clip-rule="evenodd" d="M53.487 19.1456V26.0689C48.8566 26.0642 44.3075 27.2824 40.3018 29.5997L36.832 23.6181C41.8868 20.6775 47.6357 19.1338 53.487 19.1456Z" fill="#3B97D3"/>
<path fill-rule="evenodd" clip-rule="evenodd" d="M40.302 29.5999C36.3018 31.9152 32.9768 35.2324 30.6559 39.2232L24.6602 35.7615C27.5861 30.7237 31.7824 26.5372 36.8322 23.6182L40.302 29.5999Z" fill="#4482C3"/>
<path fill-rule="evenodd" clip-rule="evenodd" d="M30.6556 65.5321L24.6599 68.9937C21.7124 63.9508 20.165 58.2155 20.1768 52.3779H27.1165C27.1118 56.9974 28.3329 61.5359 30.6556 65.5321Z" fill="#C03A2B"/>
<path fill-rule="evenodd" clip-rule="evenodd" d="M53.487 78.6861V85.6094C47.6357 85.6212 41.8868 84.0775 36.832 81.137L40.3018 75.1553C44.3075 77.4726 48.8566 78.6908 53.487 78.6861Z" fill="#E57E25"/>
<path fill-rule="evenodd" clip-rule="evenodd" d="M82.3137 68.9939C79.3877 74.0317 75.1914 78.2182 70.1417 81.1372L66.6719 75.1555C70.6721 72.8402 73.9971 69.523 76.3179 65.5322L82.3137 68.9939Z" fill="#F9EAB0"/>
<path fill-rule="evenodd" clip-rule="evenodd" d="M86.7972 52.3775H79.8575C79.8622 47.758 78.6411 43.2196 76.3184 39.2233L82.3141 35.7617C85.2616 40.8046 86.809 46.5399 86.7972 52.3775Z" fill="#4FBA6F"/>
<path fill-rule="evenodd" clip-rule="evenodd" d="M82.3137 35.7615L76.3179 39.2232C73.9971 35.2324 70.6721 31.9152 66.6719 29.5999L70.1417 23.6182C75.1914 26.5372 79.3877 30.7237 82.3137 35.7615Z" fill="#14A085"/>
<path fill-rule="evenodd" clip-rule="evenodd" d="M70.1423 23.6181L66.6725 29.5997C62.6668 27.2824 58.1177 26.0642 53.4873 26.0689V19.1456C59.3386 19.1338 65.0875 20.6775 70.1423 23.6181Z" fill="#84B5CB"/>
<path fill-rule="evenodd" clip-rule="evenodd" d="M66.6725 29.6002L63.2027 35.5957C60.2532 33.8833 56.8999 32.9848 53.4873 32.9926V26.0693C58.1177 26.0647 62.6668 27.2829 66.6725 29.6002Z" fill="#9FC9D3"/>
<path fill-rule="evenodd" clip-rule="evenodd" d="M76.3179 39.2239L70.3083 42.6855C68.5974 39.7464 66.1482 37.3029 63.2021 35.5961L66.6719 29.6006C70.6721 31.9159 73.9971 35.2331 76.3179 39.2239Z" fill="#26B99A"/>
<path fill-rule="evenodd" clip-rule="evenodd" d="M79.8575 52.3778H72.9179C72.9257 48.9732 72.0251 45.6279 70.3086 42.6853L76.3183 39.2236C78.641 43.2199 79.8621 47.7583 79.8575 52.3778Z" fill="#71C285"/>
<path fill-rule="evenodd" clip-rule="evenodd" d="M76.3179 65.5319C73.9971 69.5227 70.6721 72.8399 66.6719 75.1552L63.2021 69.1597C66.1482 67.4529 68.5974 65.0094 70.3083 62.0703L76.3179 65.5319Z" fill="#F5EFCA"/>
<path fill-rule="evenodd" clip-rule="evenodd" d="M53.4869 71.7623V78.6856C48.8565 78.6902 44.3074 77.472 40.3018 75.1547L43.7715 69.1592C46.7211 70.8716 50.0743 71.7701 53.4869 71.7623Z" fill="#F29C1F"/>
<path fill-rule="evenodd" clip-rule="evenodd" d="M36.6651 62.0705L30.6554 65.5321C28.3326 61.5359 27.1116 56.9974 27.1162 52.3779H34.0558C34.048 55.7825 34.9486 59.1279 36.6651 62.0705Z" fill="#E64C3C"/>
<path fill-rule="evenodd" clip-rule="evenodd" d="M43.7711 35.5961C40.825 37.3029 38.3758 39.7464 36.6649 42.6855L30.6553 39.2239C32.9761 35.2331 36.3011 31.9159 40.3013 29.6006L43.7711 35.5961Z" fill="#91BAE2"/>
<path fill-rule="evenodd" clip-rule="evenodd" d="M53.4869 26.0693V32.9926C50.0743 32.9848 46.7211 33.8833 43.7715 35.5957L40.3018 29.6002C44.3074 27.2829 48.8565 26.0647 53.4869 26.0693Z" fill="#84B5CB"/>
<path fill-rule="evenodd" clip-rule="evenodd" d="M30.6556 39.2233C28.3329 43.2196 27.1118 47.758 27.1165 52.3775H20.1768C20.165 46.5399 21.7124 40.8046 24.6599 35.7617L30.6556 39.2233Z" fill="#5D4C72"/>
<path fill-rule="evenodd" clip-rule="evenodd" d="M36.6651 42.6853C34.9486 45.6279 34.048 48.9732 34.0558 52.3778H27.1162C27.1116 47.7583 28.3326 43.2199 30.6554 39.2236L36.6651 42.6853Z" fill="#7D6599"/>
<path fill-rule="evenodd" clip-rule="evenodd" d="M40.302 75.1555L36.8322 81.1372C31.7824 78.2182 27.5861 74.0317 24.6602 68.9939L30.6559 65.5322C32.9768 69.523 36.3018 72.8402 40.302 75.1555Z" fill="#E64C3C"/>
<path fill-rule="evenodd" clip-rule="evenodd" d="M43.7711 69.1597L40.3013 75.1552C36.3011 72.8399 32.9761 69.5227 30.6553 65.5319L36.6649 62.0703C38.3758 65.0094 40.825 67.4529 43.7711 69.1597Z" fill="#FB7B76"/>
<path fill-rule="evenodd" clip-rule="evenodd" d="M70.1423 81.137C65.0875 84.0775 59.3386 85.6212 53.4873 85.6094V78.6861C58.1177 78.6908 62.6668 77.4726 66.6725 75.1553L70.1423 81.137Z" fill="#F29C1F"/>
<path fill-rule="evenodd" clip-rule="evenodd" d="M66.6725 75.1547C62.6668 77.472 58.1177 78.6902 53.4873 78.6856V71.7623C56.8999 71.7701 60.2532 70.8716 63.2027 69.1592L66.6725 75.1547Z" fill="#FAC176"/>
<path fill-rule="evenodd" clip-rule="evenodd" d="M86.7972 52.3779C86.809 58.2155 85.2616 63.9508 82.3141 68.9937L76.3184 65.5321C78.6411 61.5359 79.8622 56.9974 79.8575 52.3779H86.7972Z" fill="#F3D55B"/>
<path fill-rule="evenodd" clip-rule="evenodd" d="M79.8575 52.3779C79.8621 56.9974 78.641 61.5359 76.3183 65.5321L70.3086 62.0705C72.0251 59.1279 72.9257 55.7825 72.9179 52.3779H79.8575Z" fill="#F9EAB0"/>
</g>
<defs>
<clipPath id="clip0_336_45720">
<rect width="80.4991" height="80.3097" fill="white" transform="translate(13.2373 12.2227)"/>
</clipPath>
</defs>
</svg>
