<svg width="50" height="50" viewBox="0 0 50 50" fill="none" xmlns="http://www.w3.org/2000/svg">
<rect width="50" height="50" rx="4" fill="white"/>
<path d="M32.4167 24.9374C32.8845 24.9374 33.2743 25.12 33.5863 25.4851C33.9177 25.8289 34.0833 26.2586 34.0833 26.7741C34.0833 27.2682 33.9177 27.6978 33.5863 28.0632C33.2743 28.4283 32.8845 28.6109 32.4167 28.6109H19.0833C18.635 28.6109 18.2451 28.4283 17.9138 28.0632C17.5824 27.6978 17.4167 27.2682 17.4167 26.7741C17.4167 26.2586 17.5824 25.8289 17.9138 25.4851C18.2451 25.12 18.635 24.9374 19.0833 24.9374H32.4167ZM39.0833 13.917C39.5512 13.917 39.941 14.0996 40.253 14.4648C40.5843 14.8085 40.75 15.2382 40.75 15.7537C40.75 16.2478 40.5843 16.6775 40.253 17.0427C39.941 17.4079 39.5512 17.5905 39.0833 17.5905H12.4167C11.9683 17.5905 11.5785 17.4079 11.2471 17.0427C10.9157 16.6775 10.75 16.2478 10.75 15.7537C10.75 15.2382 10.9157 14.8085 11.2471 14.4648C11.5785 14.0996 11.9683 13.917 12.4167 13.917H39.0833ZM35.75 35.9578C36.2178 35.9578 36.6077 36.1404 36.9197 36.5055C37.251 36.8494 37.4167 37.279 37.4167 37.7945C37.4167 38.2886 37.251 38.7182 36.9197 39.0836C36.6077 39.4487 36.2178 39.6313 35.75 39.6313H15.75C15.3017 39.6313 14.9118 39.4487 14.5804 39.0836C14.249 38.7182 14.0833 38.2886 14.0833 37.7945C14.0833 37.279 14.249 36.8494 14.5804 36.5055C14.9118 36.1404 15.3017 35.9578 15.75 35.9578H35.75Z" fill="black"/>
</svg>
