<svg width="23" height="20" viewBox="0 0 23 20" fill="none" xmlns="http://www.w3.org/2000/svg">
<path fill-rule="evenodd" clip-rule="evenodd" d="M8.00817 15.0497C11.8975 15.0497 15.0503 11.8969 15.0503 8.00788C15.0503 4.11882 11.8975 0.966053 8.00817 0.966053C4.11888 0.966053 0.966053 4.11882 0.966053 8.00788C0.966053 11.8969 4.11888 15.0497 8.00817 15.0497ZM8.00817 16.0158C12.431 16.0158 16.0163 12.4305 16.0163 8.00788C16.0163 3.58525 12.431 0 8.00817 0C3.58538 0 0 3.58525 0 8.00788C0 12.4305 3.58538 16.0158 8.00817 16.0158Z" fill="black" fill-opacity="0.85"/>
<path fill-rule="evenodd" clip-rule="evenodd" d="M8.00817 15.0497C11.8975 15.0497 15.0503 11.8969 15.0503 8.00788C15.0503 4.11882 11.8975 0.966053 8.00817 0.966053C4.11888 0.966053 0.966053 4.11882 0.966053 8.00788C0.966053 11.8969 4.11888 15.0497 8.00817 15.0497ZM8.00817 16.0158C12.431 16.0158 16.0163 12.4305 16.0163 8.00788C16.0163 3.58525 12.431 0 8.00817 0C3.58538 0 0 3.58525 0 8.00788C0 12.4305 3.58538 16.0158 8.00817 16.0158Z" fill="black" fill-opacity="0.2"/>
<path fill-rule="evenodd" clip-rule="evenodd" d="M22.3076 19.5409C22.1429 19.7507 21.8392 19.7872 21.6294 19.6225L13.5006 13.2398L14.0973 12.48L22.226 18.8627C22.4359 19.0274 22.4724 19.3311 22.3076 19.5409Z" fill="black" fill-opacity="0.85"/>
<path fill-rule="evenodd" clip-rule="evenodd" d="M3.99609 8.07971C3.99609 7.81294 4.21235 7.59668 4.47912 7.59668H11.5052C11.772 7.59668 11.9882 7.81294 11.9882 8.07971C11.9882 8.34647 11.772 8.56273 11.5052 8.56273H4.47912C4.21235 8.56273 3.99609 8.34647 3.99609 8.07971Z" fill="black"/>
<path fill-rule="evenodd" clip-rule="evenodd" d="M7.99279 12.0757C7.72602 12.0757 7.50977 11.8594 7.50977 11.5926V4.56679C7.50977 4.30002 7.72602 4.08376 7.99279 4.08376C8.25956 4.08376 8.47582 4.30002 8.47582 4.56679V11.5926C8.47582 11.8594 8.25956 12.0757 7.99279 12.0757Z" fill="black"/>
</svg>
