<svg width="18" height="18" viewBox="0 0 18 18" fill="none" xmlns="http://www.w3.org/2000/svg">
<path d="M3.11719 2.19996H14.4366C14.768 2.19996 15.0366 2.46859 15.0366 2.79996V16.5C15.0366 17.1075 14.5441 17.6 13.9366 17.6H3.61719C3.00967 17.6 2.51719 17.1075 2.51719 16.5V2.79996C2.51719 2.46859 2.78582 2.19996 3.11719 2.19996Z" stroke="black" stroke-width="0.8"/>
<rect x="0.225001" y="2.02499" width="16.9677" height="0.450001" rx="0.225001" stroke="black" stroke-width="0.450001"/>
<path d="M6.53672 0.4H10.8841C11.1603 0.4 11.3841 0.623857 11.3841 0.9V2.30001H6.03672V0.900001C6.03672 0.623858 6.26058 0.4 6.53672 0.4Z" stroke="black" stroke-width="0.8"/>
<path d="M6.28906 4.95007L6.28906 14.8501" stroke="black" stroke-width="0.8" stroke-linecap="round"/>
<path d="M8.84082 4.95007V14.8501" stroke="black" stroke-width="0.8" stroke-linecap="round"/>
<path d="M11.2764 4.95007V14.8501" stroke="black" stroke-width="0.8" stroke-linecap="round"/>
</svg>
