<svg width="17" height="22" viewBox="0 0 17 22" fill="none" xmlns="http://www.w3.org/2000/svg">
<path fill-rule="evenodd" clip-rule="evenodd" d="M12.9617 0.947004C13.6211 0.930662 14.3474 1.1387 15.1262 1.67036C15.9045 2.20161 16.3536 2.79572 16.5586 3.40981C16.7628 4.02174 16.7103 4.61072 16.5617 5.10891C16.414 5.60439 16.1679 6.0228 15.9641 6.3132C15.8614 6.45959 15.7673 6.57652 15.6979 6.65784C15.6631 6.69856 15.6344 6.73055 15.6137 6.75303C15.6092 6.75794 15.6051 6.76239 15.6014 6.76639L6.86434 18.9983L1.2537 21.6917C0.999403 21.6917 0.462352 21.3201 0.499403 20.8438L1.25433 15.1732L10.0066 2.91984C10.01 2.91381 10.0141 2.90676 10.0187 2.89876C10.034 2.87246 10.056 2.83576 10.0845 2.79069C10.1415 2.7007 10.2252 2.57659 10.335 2.43505C10.5529 2.15392 10.8813 1.79385 11.3158 1.49815C11.7524 1.20111 12.305 0.96328 12.9617 0.947004ZM10.4429 3.68536L2.20748 15.2151L6.49363 18.141L14.7291 6.61123L10.4429 3.68536ZM15.2191 5.97712C15.2476 5.93957 15.2779 5.89833 15.3092 5.8537C15.4829 5.60614 15.68 5.26623 15.7951 4.8803C15.9094 4.49706 15.9394 4.08152 15.7997 3.66307C15.6608 3.24679 15.3397 2.78467 14.6752 2.33109C14.0113 1.87791 13.4469 1.73523 12.9815 1.74676C12.5135 1.75836 12.1076 1.92701 11.7659 2.15955C11.4222 2.39343 11.1526 2.68605 10.9672 2.92521C10.9406 2.95957 10.9158 2.99263 10.893 3.02399L15.2191 5.97712ZM5.82947 18.6562L1.9897 16.0351L1.25433 20.8438L5.82947 18.6562Z" fill="black"/>
</svg>
