<svg width="20" height="22" viewBox="0 0 20 22" fill="none" xmlns="http://www.w3.org/2000/svg">
<path fill-rule="evenodd" clip-rule="evenodd" d="M14.9011 13.4069C14.567 13.0895 14.0035 12.7431 13.1349 12.7431C12.0602 12.7431 10.1651 13.9227 10.9872 16.2818C11.7324 17.9359 13.0108 19.0101 14.0828 19.9109C14.3585 20.1426 14.6206 20.3629 14.8565 20.5786C15.0116 20.7204 15.1553 20.8602 15.2841 21C15.4109 20.8608 15.5574 20.7237 15.7184 20.5859C15.9708 20.3698 16.2587 20.1522 16.5623 19.9228C17.7052 19.0591 19.0695 18.0281 19.5903 16.2818C20.4405 13.4312 18.5259 12.7431 17.4512 12.7431C16.5519 12.7431 15.9996 13.0807 15.6805 13.3947C15.4031 13.6676 15.3019 13.9227 15.3019 13.9227C15.3019 13.9227 15.1835 13.6752 14.9011 13.4069ZM15.2905 20.1625C15.4976 19.9829 15.7198 19.8095 15.9413 19.6406C16.0299 19.573 16.1187 19.5059 16.2077 19.4387C16.5287 19.196 16.852 18.9517 17.1722 18.6805C17.9819 17.9947 18.6897 17.2023 19.0154 16.1103C19.3995 14.8222 19.1225 14.1851 18.8095 13.8588C18.4557 13.4899 17.8931 13.3431 17.4512 13.3431C16.7667 13.3431 16.3706 13.5778 16.1478 13.7786C16.0315 13.8835 15.9543 13.9868 15.9079 14.0598C15.8849 14.0961 15.87 14.1241 15.8622 14.1398C15.8596 14.1451 15.8577 14.1489 15.8567 14.1511L15.3529 15.4202L14.7631 14.1868C14.7618 14.1843 14.7589 14.179 14.7544 14.1712C14.7441 14.1533 14.7256 14.1229 14.6982 14.084C14.6431 14.0058 14.5544 13.8968 14.4272 13.787C14.1802 13.5736 13.7741 13.3431 13.1349 13.3431C12.7775 13.3431 12.1999 13.5578 11.8054 14.0182C11.4481 14.4352 11.2138 15.0866 11.5453 16.0597C12.0294 17.122 12.7608 17.935 13.5319 18.6407C13.8456 18.9278 14.158 19.1903 14.4646 19.448C14.5405 19.5118 14.616 19.5753 14.6911 19.6387C14.8961 19.8119 15.0992 19.9862 15.2905 20.1625Z" fill="black"/>
<path fill-rule="evenodd" clip-rule="evenodd" d="M0.5 3C0.5 1.61929 1.61929 0.5 3 0.5H14.6575C16.0382 0.5 17.1575 1.61929 17.1575 3V10.7859C17.1575 11.0621 16.9336 11.2859 16.6575 11.2859C16.3814 11.2859 16.1575 11.0621 16.1575 10.7859V3C16.1575 2.17157 15.4859 1.5 14.6575 1.5H3C2.17157 1.5 1.5 2.17157 1.5 3V18.5719C1.5 19.4003 2.17157 20.0719 3 20.0719H11.7645C12.0407 20.0719 12.2645 20.2957 12.2645 20.5719C12.2645 20.848 12.0407 21.0719 11.7645 21.0719H3C1.61929 21.0719 0.5 19.9526 0.5 18.5719V3Z" fill="black"/>
<path fill-rule="evenodd" clip-rule="evenodd" d="M13.7215 6.87155H3.93555V5.87155H13.7215V6.87155Z" fill="black"/>
<path fill-rule="evenodd" clip-rule="evenodd" d="M13.7215 10.7859H3.93555V9.78592H13.7215V10.7859Z" fill="black"/>
</svg>
