<?xml version="1.0" encoding="UTF-8"?>
<svg width="24px" height="24px" viewBox="0 0 24 24" version="1.1" xmlns="http://www.w3.org/2000/svg" xmlns:xlink="http://www.w3.org/1999/xlink">
    <!-- Generator: Sketch 57.1 (83088) - https://sketch.com -->
    <title>Close/24x24/ultradark</title>
    <desc>Created with Sketch.</desc>
    <g id="Close/24x24/ultradark" stroke="none" stroke-width="1" fill="none" fill-rule="evenodd">
        <path d="M10.8522677,12.0036819 L0.22885269,22.7013146 C-0.0662838392,22.9985131 -0.0662838392,23.4799972 0.22885269,23.7771956 C0.376233447,23.9259836 0.569741006,24 0.76287355,24 C0.956381109,24 1.14951365,23.9259836 1.29689441,23.7771956 L12.0001875,12.9991267 L22.7034806,23.7771956 C22.8512364,23.9259836 23.0443689,24 23.2375015,24 C23.430634,24 23.6241416,23.9259836 23.7715223,23.7771956 C24.0666589,23.4799972 24.0666589,22.9985131 23.7715223,22.7013146 L13.1484824,12.0036819 L23.7786476,1.29849654 C24.0737841,1.00129812 24.0737841,0.519814015 23.7786476,0.222615592 C23.4835111,-0.0742051972 23.0053674,-0.0742051972 22.7106059,0.222615592 L12.0005625,11.0082372 L1.28939412,0.222993226 C0.994257588,-0.0738275626 0.516488925,-0.0738275626 0.221352397,0.222993226 C-0.0737841322,0.52019165 -0.0737841322,1.00167575 0.221352397,1.29887418 L10.8522677,12.0036819 Z" fill="#000000" fill-rule="nonzero"></path>
    </g>
</svg>