<svg width="17" height="20" viewBox="0 0 17 20" fill="none" xmlns="http://www.w3.org/2000/svg">
<path fill-rule="evenodd" clip-rule="evenodd" d="M6.49691 15.2835L15.0263 4.53179C15.2254 4.28073 15.2786 3.94374 15.1665 3.64352C14.8253 2.72985 14.0063 2.08015 13.039 1.95575C12.7211 1.91488 12.4051 2.04337 12.2059 2.29443L3.67659 13.0461L3.06247 16.7166L6.49691 15.2835ZM6.99541 15.9424L15.653 5.02898C16.0264 4.55829 16.1262 3.92649 15.916 3.36365C15.4709 2.17194 14.4027 1.32453 13.141 1.16229C12.5451 1.08566 11.9526 1.32655 11.5792 1.79724L2.92161 12.7106L2.18385 17.12C2.11895 17.5078 2.50659 17.8153 2.86954 17.6639L6.99541 15.9424Z" fill="black"/>
<path fill-rule="evenodd" clip-rule="evenodd" d="M14.3116 5.92342L10.6259 2.99956L11.0971 2.40561L14.7828 5.32947L14.3116 5.92342Z" fill="black"/>
<path fill-rule="evenodd" clip-rule="evenodd" d="M6.51373 15.7523L2.82804 12.8284L3.29922 12.2345L6.98492 15.1583L6.51373 15.7523Z" fill="black"/>
</svg>
