<svg width="82" height="90" viewBox="0 0 82 90" fill="none" xmlns="http://www.w3.org/2000/svg">
<path fill-rule="evenodd" clip-rule="evenodd" d="M2.19512 63.6585C1.97343 63.6585 1.75942 63.6257 1.55769 63.5646C1.38011 63.5108 1.21204 63.4351 1.05663 63.3406C0.915017 63.2545 0.783923 63.1529 0.665709 63.038C0.650421 63.0232 0.635343 63.0081 0.620491 62.9928C0.505651 62.8746 0.404012 62.7435 0.317941 62.6019C0.223486 62.4465 0.147783 62.2784 0.0939799 62.1008C0.0328618 61.8991 0 61.6851 0 61.4634V58.7783C0.606166 58.7783 1.09756 59.2697 1.09756 59.8759V61.4634C1.09756 61.5761 1.11419 61.6829 1.14439 61.7826C1.22711 62.0556 1.19829 62.3359 1.08412 62.5744C1.32265 62.4602 1.60291 62.4314 1.87594 62.5141C1.97561 62.5443 2.08243 62.561 2.19512 62.561H3.72387C4.33004 62.561 4.82143 63.0524 4.82143 63.6585H2.19512ZM12.9747 63.6585C12.9747 63.0524 12.4833 62.561 11.8772 62.561H8.81969C8.21352 62.561 7.72213 63.0524 7.72213 63.6585H12.9747ZM21.128 63.6585C21.128 63.0524 20.6367 62.561 20.0305 62.561H16.973C16.3668 62.561 15.8754 63.0524 15.8754 63.6585H21.128ZM29.2814 63.6585C29.2814 63.0524 28.79 62.561 28.1838 62.561H25.1263C24.5201 62.561 24.0287 63.0524 24.0287 63.6585H29.2814ZM37.4347 63.6585C37.4347 63.0524 36.9433 62.561 36.3371 62.561H33.2796C32.6735 62.561 32.1821 63.0524 32.1821 63.6585H37.4347ZM45.588 63.6585C45.588 63.0524 45.0966 62.561 44.4904 62.561H41.4329C40.8268 62.561 40.3354 63.0524 40.3354 63.6585H45.588ZM53.7413 63.6585C53.7413 63.0524 53.2499 62.561 52.6437 62.561H49.5862C48.9801 62.561 48.4887 63.0524 48.4887 63.6585H53.7413ZM61.4634 50.3114C60.8573 50.3114 60.3659 50.8028 60.3659 51.409V54.5841C60.3659 55.1902 60.8573 55.6816 61.4634 55.6816V50.3114ZM61.4634 41.8445C60.8573 41.8445 60.3659 42.3359 60.3659 42.9421V46.1172C60.3659 46.7233 60.8573 47.2147 61.4634 47.2147V41.8445ZM61.4634 33.3776C60.8573 33.3776 60.3659 33.869 60.3659 34.4752V37.6503C60.3659 38.2564 60.8573 38.7478 61.4634 38.7478V33.3776ZM61.4634 24.9107C60.8573 24.9107 60.3659 25.4021 60.3659 26.0083V29.1834C60.3659 29.7895 60.8573 30.2809 61.4634 30.2809V24.9107ZM61.4634 16.4438C60.8573 16.4438 60.3659 16.9352 60.3659 17.5414V20.7165C60.3659 21.3226 60.8573 21.814 61.4634 21.814V16.4438ZM61.4634 7.97692C60.8573 7.97692 60.3659 8.46831 60.3659 9.07448V12.2496C60.3659 12.8557 60.8573 13.3471 61.4634 13.3471V7.97692ZM48.4887 0C48.4887 0.606166 48.9801 1.09756 49.5862 1.09756H52.6437C53.2499 1.09756 53.7413 0.606166 53.7413 0H48.4887ZM40.3354 0C40.3354 0.606166 40.8268 1.09756 41.4329 1.09756H44.4904C45.0966 1.09756 45.588 0.606166 45.588 0H40.3354ZM32.1821 0C32.1821 0.606166 32.6735 1.09756 33.2796 1.09756H36.3371C36.9433 1.09756 37.4347 0.606166 37.4347 0H32.1821ZM24.0287 0C24.0287 0.606166 24.5201 1.09756 25.1263 1.09756H28.1838C28.79 1.09756 29.2814 0.606166 29.2814 0H24.0287ZM15.8754 0C15.8754 0.606166 16.3668 1.09756 16.973 1.09756H20.0305C20.6367 1.09756 21.128 0.606166 21.128 0H15.8754ZM7.72213 0C7.72213 0.606166 8.21352 1.09756 8.81969 1.09756H11.8772C12.4833 1.09756 12.9747 0.606166 12.9747 0H7.72213ZM4.82143 0C4.82143 0.606166 4.33003 1.09756 3.72387 1.09756H2.19512C2.08243 1.09756 1.97561 1.11419 1.87594 1.14439C1.60291 1.22711 1.32265 1.19829 1.08412 1.08412C1.19829 1.32265 1.22711 1.60291 1.14439 1.87594C1.11419 1.97561 1.09756 2.08243 1.09756 2.19512V3.78266C1.09756 4.38883 0.606166 4.88023 0 4.88023V2.19512C0 1.97344 0.032862 1.75943 0.0939803 1.5577C0.147784 1.38011 0.223485 1.21204 0.317941 1.05663C0.404011 0.915021 0.505654 0.783921 0.620492 0.665709C0.635345 0.650419 0.650419 0.635345 0.665708 0.620492C0.78392 0.505654 0.91502 0.404011 1.05663 0.317942C1.21204 0.223485 1.38011 0.147784 1.5577 0.0939804C1.75943 0.032862 1.97344 0 2.19512 0H4.82143ZM0 13.3471C0.606166 13.3471 1.09756 12.8557 1.09756 12.2496V9.07448C1.09756 8.46831 0.606166 7.97692 0 7.97692V13.3471ZM0 21.814C0.606166 21.814 1.09756 21.3226 1.09756 20.7165V17.5414C1.09756 16.9352 0.606166 16.4438 0 16.4438V21.814ZM0 30.2809C0.606166 30.2809 1.09756 29.7895 1.09756 29.1834V26.0083C1.09756 25.4021 0.606166 24.9107 0 24.9107V30.2809ZM0 38.7478C0.606166 38.7478 1.09756 38.2564 1.09756 37.6503V34.4752C1.09756 33.869 0.606166 33.3776 0 33.3776V38.7478ZM0 47.2147C0.606166 47.2147 1.09756 46.7233 1.09756 46.1172V42.9421C1.09756 42.3359 0.606166 41.8445 0 41.8445V47.2147ZM0 55.6816C0.606166 55.6816 1.09756 55.1902 1.09756 54.5841V51.409C1.09756 50.8028 0.606166 50.3114 0 50.3114V55.6816ZM56.642 0C56.642 0.606166 57.1334 1.09756 57.7395 1.09756H59.2683C59.381 1.09756 59.4878 1.11419 59.5875 1.14439C59.8605 1.22711 60.1408 1.19829 60.3793 1.08412C60.2651 1.32265 60.2363 1.60291 60.319 1.87594C60.3492 1.97561 60.3659 2.08243 60.3659 2.19512V3.78267C60.3659 4.38883 60.8573 4.88023 61.4634 4.88023V2.19512C61.4634 1.97344 61.4306 1.75943 61.3694 1.5577C61.3156 1.38011 61.2399 1.21204 61.1455 1.05663C61.0594 0.915018 60.9578 0.783923 60.8429 0.66571C60.8281 0.650421 60.813 0.635344 60.7977 0.620491C60.6795 0.505652 60.5484 0.404012 60.4068 0.317942C60.2514 0.223487 60.0833 0.147783 59.9057 0.0939801C59.704 0.0328615 59.49 0 59.2683 0H56.642ZM61.4634 58.7783C60.8573 58.7783 60.3659 59.2697 60.3659 59.8759V61.4634C60.3659 61.5761 60.3492 61.6829 60.319 61.7826C60.2363 62.0556 60.2651 62.3359 60.3793 62.5744C60.1408 62.4602 59.8605 62.4314 59.5875 62.5141C59.4878 62.5443 59.381 62.561 59.2683 62.561H57.7395C57.1334 62.561 56.642 63.0524 56.642 63.6585H59.2683C59.49 63.6585 59.704 63.6257 59.9057 63.5646C60.0833 63.5108 60.2514 63.4351 60.4068 63.3406C60.5484 63.2545 60.6795 63.1529 60.7977 63.038C60.813 63.0232 60.8281 63.0081 60.8429 62.9928C60.9578 62.8746 61.0594 62.7435 61.1455 62.6019C61.2399 62.4465 61.3156 62.2784 61.3694 62.1008C61.4306 61.8991 61.4634 61.6851 61.4634 61.4634V58.7783Z" fill="#969696"/>
<path d="M61.3655 25.2438H26.2319C25.6864 25.2438 25.2441 25.686 25.2441 26.2316V87.9145C25.2441 88.4601 25.6864 88.9023 26.2319 88.9023H72.549C73.0946 88.9023 73.5368 88.4601 73.5368 87.9145V38.7906C73.5368 38.5483 73.4478 38.3146 73.2867 38.1337L62.1033 25.5747C61.9158 25.3642 61.6474 25.2438 61.3655 25.2438Z" fill="white"/>
<path fill-rule="evenodd" clip-rule="evenodd" d="M24.1465 26.2316C24.1465 25.0799 25.0801 24.1462 26.2319 24.1462H61.3654C61.9605 24.1462 62.5271 24.4004 62.9228 24.8448L62.106 25.5721L62.9228 24.8448L74.1063 37.4038C74.4464 37.7857 74.6343 38.2792 74.6343 38.7906V87.9145C74.6343 89.0663 73.7006 89.9999 72.5489 89.9999H26.2319C25.0801 89.9999 24.1465 89.0662 24.1465 87.9145V26.2316ZM26.3416 26.3414V87.8048H72.4392V38.8324L61.3162 26.3414H26.3416Z" fill="#979797"/>
<path d="M32.8179 17.5609H68.3945L80.1228 30.7316V80.2316C80.1228 80.7772 79.6805 81.2195 79.135 81.2195H32.8179C32.2723 81.2195 31.8301 80.7772 31.8301 80.2316V18.5487C31.8301 18.0032 32.2723 17.5609 32.8179 17.5609Z" fill="white"/>
<path fill-rule="evenodd" clip-rule="evenodd" d="M30.7324 18.5487C30.7324 17.397 31.6661 16.4634 32.8178 16.4634H68.8867L81.2202 30.3138V80.2317C81.2202 81.3834 80.2866 82.317 79.1349 82.317H32.8178C31.6661 82.317 30.7324 81.3834 30.7324 80.2317V18.5487ZM32.9275 18.6585V80.1219H79.0251V31.8292H69.3822C68.2305 31.8292 67.2969 30.8956 67.2969 29.7439V18.6585H32.9275ZM69.492 20.4439L77.6757 29.6341H69.492V20.4439Z" fill="#979797"/>
<path fill-rule="evenodd" clip-rule="evenodd" d="M38.5801 38.4146C38.5801 37.8994 38.9978 37.4817 39.513 37.4817H72.4398C72.9551 37.4817 73.3728 37.8994 73.3728 38.4146C73.3728 38.9299 72.9551 39.3475 72.4398 39.3475H39.513C38.9978 39.3475 38.5801 38.9299 38.5801 38.4146Z" fill="#969696"/>
<path fill-rule="evenodd" clip-rule="evenodd" d="M38.5801 47.1951C38.5801 46.6799 38.9978 46.2622 39.513 46.2622H72.4398C72.9551 46.2622 73.3728 46.6799 73.3728 47.1951C73.3728 47.7104 72.9551 48.1281 72.4398 48.1281H39.513C38.9978 48.1281 38.5801 47.7104 38.5801 47.1951Z" fill="#969696"/>
<path fill-rule="evenodd" clip-rule="evenodd" d="M38.5801 55.9757C38.5801 55.4604 38.9978 55.0427 39.513 55.0427H72.4398C72.9551 55.0427 73.3728 55.4604 73.3728 55.9757C73.3728 56.4909 72.9551 56.9086 72.4398 56.9086H39.513C38.9978 56.9086 38.5801 56.4909 38.5801 55.9757Z" fill="#969696"/>
<path fill-rule="evenodd" clip-rule="evenodd" d="M38.5801 63.6585C38.5801 63.1433 38.9978 62.7256 39.513 62.7256H72.4398C72.9551 62.7256 73.3728 63.1433 73.3728 63.6585C73.3728 64.1738 72.9551 64.5914 72.4398 64.5914H39.513C38.9978 64.5914 38.5801 64.1738 38.5801 63.6585Z" fill="#969696"/>
<path fill-rule="evenodd" clip-rule="evenodd" d="M38.5801 71.3415C38.5801 70.8263 38.9978 70.4086 39.513 70.4086H72.4398C72.9551 70.4086 73.3728 70.8263 73.3728 71.3415C73.3728 71.8567 72.9551 72.2744 72.4398 72.2744H39.513C38.9978 72.2744 38.5801 71.8567 38.5801 71.3415Z" fill="#969696"/>
<path fill-rule="evenodd" clip-rule="evenodd" d="M59.2687 24.695H40.6102C40.3071 24.695 40.0614 24.9407 40.0614 25.2438V29.6341C40.0614 29.9372 40.3071 30.1829 40.6102 30.1829H59.2687C59.5718 30.1829 59.8175 29.9372 59.8175 29.6341V25.2438C59.8175 24.9407 59.5718 24.695 59.2687 24.695ZM40.6102 23.0487C39.3978 23.0487 38.415 24.0315 38.415 25.2438V29.6341C38.415 30.8464 39.3978 31.8292 40.6102 31.8292H59.2687C60.481 31.8292 61.4638 30.8464 61.4638 29.6341V25.2438C61.4638 24.0315 60.481 23.0487 59.2687 23.0487H40.6102Z" fill="#969696"/>
</svg>
