<svg width="206" height="140" viewBox="0 0 206 140" fill="none" xmlns="http://www.w3.org/2000/svg">
<path fill-rule="evenodd" clip-rule="evenodd" d="M86.8842 46.0918H68.6492C68.0568 46.0918 67.5766 46.5721 67.5766 47.1645V132.976C67.5766 133.569 68.0568 134.049 68.6492 134.049H86.8842C87.4766 134.049 87.9569 133.569 87.9569 132.976V47.1645C87.9569 46.5721 87.4766 46.0918 86.8842 46.0918ZM68.6492 45.0192C67.4644 45.0192 66.5039 45.9797 66.5039 47.1645V132.976C66.5039 134.161 67.4644 135.122 68.6492 135.122H86.8842C88.0691 135.122 89.0295 134.161 89.0295 132.976V47.1645C89.0295 45.9796 88.0691 45.0192 86.8842 45.0192H68.6492Z" fill="#D6D6D6"/>
<path fill-rule="evenodd" clip-rule="evenodd" d="M89.0301 66.4722H67.5771V65.3995H89.0301V66.4722Z" fill="#D6D6D6"/>
<path fill-rule="evenodd" clip-rule="evenodd" d="M89.0301 57.891H67.5771V56.8184H89.0301V57.891Z" fill="#D6D6D6"/>
<path fill-rule="evenodd" clip-rule="evenodd" d="M89.0301 121.177H67.5771V120.105H89.0301V121.177Z" fill="#D6D6D6"/>
<path fill-rule="evenodd" clip-rule="evenodd" d="M89.0301 112.596H67.5771V111.524H89.0301V112.596Z" fill="#D6D6D6"/>
<path d="M87.957 46.4802C87.957 45.5987 88.4962 44.807 89.3164 44.484L153.139 19.357C154.547 18.8028 156.07 19.8404 156.07 21.3532V106.845C156.07 107.726 155.531 108.518 154.711 108.841L90.8882 133.968C89.4806 134.522 87.957 133.484 87.957 131.972V46.4802Z" fill="#D9D9D9" fill-opacity="0.3"/>
<path fill-rule="evenodd" clip-rule="evenodd" d="M153.532 20.3551L89.7094 45.4821C89.2993 45.6436 89.0297 46.0395 89.0297 46.4802V131.972C89.0297 132.728 89.7915 133.247 90.4953 132.97L154.318 107.843C154.728 107.681 154.998 107.285 154.998 106.845V21.3532C154.998 20.5968 154.236 20.078 153.532 20.3551ZM89.3164 44.484C88.4962 44.807 87.957 45.5987 87.957 46.4802V131.972C87.957 133.484 89.4806 134.522 90.8882 133.968L154.711 108.841C155.531 108.518 156.07 107.726 156.07 106.845V21.3532C156.07 19.8404 154.547 18.8028 153.139 19.357L89.3164 44.484Z" fill="#D6D6D6"/>
<path fill-rule="evenodd" clip-rule="evenodd" d="M2.5383 20.3551L66.3609 45.4821C66.771 45.6436 67.0406 46.0395 67.0406 46.4802V131.972C67.0406 132.728 66.2788 133.247 65.575 132.97L1.75241 107.843C1.34231 107.681 1.0727 107.285 1.0727 106.845V21.3532C1.0727 20.5968 1.83451 20.078 2.5383 20.3551ZM66.7539 44.484C67.5741 44.807 68.1133 45.5987 68.1133 46.4802V131.972C68.1133 133.484 66.5897 134.522 65.1821 133.968L1.35946 108.841C0.539256 108.518 5.44786e-05 107.726 5.44786e-05 106.845V21.3532C5.44786e-05 19.8404 1.52366 18.8028 2.93124 19.357L66.7539 44.484Z" fill="#D6D6D6"/>
<path fill-rule="evenodd" clip-rule="evenodd" d="M13.2056 9.92699C12.7813 9.66414 12.2282 9.9685 12.2282 10.48V23.1373C12.2282 23.3743 12.0361 23.5664 11.7992 23.5664C11.5622 23.5664 11.3701 23.3743 11.3701 23.1373V10.48C11.3701 9.3085 12.6511 8.57391 13.6575 9.19756C16.5655 10.9994 22.9076 14.9168 28.9675 18.5769C31.9977 20.4071 34.9557 22.172 37.378 23.5757C39.8102 24.9851 41.6774 26.0156 42.5407 26.3908C43.6189 26.8593 46.0796 28.2428 49.1334 30.0326C52.1991 31.8294 55.8916 34.0532 59.4514 36.2191C63.0115 38.3851 66.4403 40.4941 68.979 42.0614C70.2484 42.8451 71.2953 43.4935 72.0248 43.9459C72.3896 44.1721 72.6751 44.3494 72.8694 44.4701L73.1666 44.6548C73.1668 44.655 73.1669 44.655 72.9402 45.0193C72.7135 45.3836 72.7134 45.3835 72.7132 45.3834L72.4165 45.199C72.2224 45.0784 71.9372 44.9013 71.5726 44.6752C70.8434 44.223 69.797 43.575 68.5282 42.7916C65.9905 41.2248 62.5634 39.1169 59.0054 36.9521C55.4471 34.7872 51.7592 32.5662 48.6995 30.773C45.628 28.9727 43.2185 27.621 42.1987 27.1778C41.2804 26.7787 39.3665 25.7198 36.9477 24.3181C34.5189 22.9107 31.5558 21.1427 28.5239 19.3115C22.4598 15.6488 16.1144 11.7294 13.2056 9.92699ZM73.3045 45.246C73.1793 45.4472 72.9144 45.5086 72.7132 45.3834L72.9402 45.0193L73.1666 44.6548C73.3677 44.78 73.4297 45.0448 73.3045 45.246Z" fill="#D6D6D6"/>
<path fill-rule="evenodd" clip-rule="evenodd" d="M24.3901 3.07098C23.9928 2.72807 23.3502 3.00227 23.3502 3.57995L23.3502 14.9853C23.3502 15.2222 23.1582 15.4143 22.9212 15.4143C22.6842 15.4143 22.4921 15.2222 22.4921 14.9853L22.4921 3.57995C22.4921 2.32086 23.9576 1.56408 24.9508 2.4214C29.2922 6.16905 41.0089 16.2767 52.0498 25.7435C63.1042 35.222 73.448 44.0293 75.0677 45.2008C75.2597 45.3396 75.3028 45.6079 75.1639 45.7999C75.025 45.9919 74.7568 46.035 74.5648 45.8961C72.9072 44.6972 62.5196 35.8512 51.4912 26.395C40.4492 16.9271 28.7317 6.81879 24.3901 3.07098Z" fill="#D6D6D6"/>
<path fill-rule="evenodd" clip-rule="evenodd" d="M142.324 9.95092C142.748 9.6832 143.306 9.9864 143.306 10.5019V23.843C143.306 24.08 143.498 24.2721 143.735 24.2721C143.972 24.2721 144.164 24.08 144.164 23.843V10.5019C144.164 9.325 142.873 8.58874 141.866 9.22571C138.92 11.0891 132.463 15.1588 126.289 18.9498C123.201 20.8455 120.187 22.6703 117.718 24.1144C115.238 25.5656 113.339 26.6144 112.464 26.9758C111.368 27.4287 108.865 28.767 105.758 30.4993C102.638 32.2381 98.881 34.3901 95.2588 36.4861C91.6362 38.5823 88.1473 40.6232 85.5641 42.14C84.2725 42.8984 83.2072 43.5258 82.4649 43.9637C82.0937 44.1826 81.8032 44.3541 81.6055 44.4709L81.3041 44.6492L81.3031 44.6497C81.3029 44.6498 81.3028 44.6499 81.5213 45.0191C81.7399 45.3884 81.74 45.3883 81.7402 45.3882L82.042 45.2097C82.2395 45.093 82.5298 44.9216 82.9008 44.7028C83.6428 44.2652 84.7075 43.6381 85.9986 42.88C88.5809 41.3637 92.0681 39.3238 95.6886 37.2288C99.3093 35.1337 103.062 32.9843 106.175 31.2489C109.3 29.5069 111.753 28.1982 112.792 27.7688C113.733 27.38 115.688 26.2967 118.152 24.8551C120.628 23.4065 123.648 21.578 126.738 19.6811C132.916 15.8871 139.377 11.815 142.324 9.95092ZM81.1521 45.2377C81.2728 45.4416 81.5362 45.5089 81.7402 45.3882L81.5213 45.0191L81.3031 44.6497C81.0992 44.7704 81.0314 45.0337 81.1521 45.2377Z" fill="#D6D6D6"/>
<path fill-rule="evenodd" clip-rule="evenodd" d="M133.296 1.30287C133.691 0.966663 134.328 1.23837 134.328 1.81792L134.328 13.9126C134.328 14.1495 134.52 14.3416 134.757 14.3416C134.994 14.3416 135.186 14.1495 135.186 13.9126L135.186 1.81792C135.186 0.567764 133.738 -0.200269 132.739 0.649376C128.266 4.45629 115.893 14.9799 104.201 24.8612C92.4946 34.7544 81.5061 43.9742 79.778 45.1983C79.5846 45.3352 79.5389 45.603 79.6759 45.7964C79.8129 45.9897 80.0806 46.0355 80.274 45.8985C82.0415 44.6464 93.0755 35.387 104.755 25.5166C116.448 15.6344 128.822 5.10995 133.296 1.30287Z" fill="#D6D6D6"/>
<path d="M124.152 103.484L115.331 82.2037C114.993 81.3872 115.732 80.5347 116.588 80.7538L138.905 86.4655C139.938 86.7299 139.995 88.176 138.985 88.52L128.881 91.9643C128.515 92.089 128.244 92.4011 128.173 92.7811L126.197 103.272C126 104.32 124.56 104.469 124.152 103.484Z" fill="#D6D6D6"/>
<path fill-rule="evenodd" clip-rule="evenodd" d="M200.112 103.177C200.676 102.995 201.28 103.305 201.462 103.868C201.644 104.432 201.335 105.037 200.771 105.219L200.442 104.198C200.771 105.219 200.771 105.218 200.771 105.219L200.766 105.22L200.753 105.224L200.709 105.238C200.669 105.251 200.612 105.268 200.538 105.291C200.389 105.337 200.17 105.403 199.884 105.485C199.314 105.649 198.479 105.879 197.41 106.145C195.274 106.677 192.203 107.354 188.448 107.936C180.945 109.101 170.686 109.896 159.696 108.399C148.652 106.894 140.482 102.902 135.065 99.2738C132.358 97.4604 130.338 95.7381 128.989 94.4625C128.315 93.8246 127.808 93.298 127.467 92.9272C127.296 92.7417 127.167 92.5951 127.079 92.4929C127.035 92.4419 127.001 92.4019 126.977 92.3736L126.949 92.3403L126.941 92.3304L126.939 92.3271L126.938 92.3259C126.937 92.3255 126.937 92.3251 127.769 91.6481L126.937 92.3251C126.563 91.8655 126.632 91.1899 127.092 90.816C127.551 90.4423 128.227 90.5115 128.601 90.9705C128.601 90.9705 128.601 90.9705 128.601 90.9705L128.604 90.9743L128.621 90.9957C128.638 91.0158 128.665 91.0477 128.702 91.0905C128.776 91.1763 128.891 91.3061 129.046 91.4745C129.356 91.8113 129.828 92.3023 130.464 92.9041C131.736 94.1077 133.663 95.7526 136.259 97.4914C141.449 100.968 149.315 104.819 159.985 106.273C170.71 107.735 180.75 106.961 188.119 105.817C191.801 105.245 194.809 104.582 196.892 104.063C197.934 103.804 198.744 103.581 199.291 103.423C199.564 103.344 199.772 103.282 199.91 103.24C199.98 103.219 200.031 103.203 200.065 103.192L200.102 103.18L200.112 103.177C200.112 103.177 200.112 103.177 200.112 103.177Z" fill="#D6D6D6"/>
<path d="M100.294 53.792C100.294 53.3526 100.562 52.9576 100.97 52.7953L143.34 35.9495C144.044 35.6695 144.808 36.1883 144.808 36.9462L144.808 45.9004C144.808 46.3398 144.54 46.7348 144.132 46.8972L101.762 63.743C101.058 64.023 100.293 63.5041 100.293 62.7462L100.294 53.792Z" fill="#F1F1F3"/>
<path fill-rule="evenodd" clip-rule="evenodd" d="M143.736 36.9462L101.366 53.792L101.366 62.7462L143.736 45.9004L143.736 36.9462ZM100.97 52.7953C100.562 52.9576 100.294 53.3526 100.294 53.792L100.293 62.7462C100.293 63.5041 101.058 64.023 101.762 63.743L144.132 46.8972C144.54 46.7348 144.809 46.3398 144.808 45.9004L144.808 36.9462C144.808 36.1883 144.044 35.6695 143.34 35.9495L100.97 52.7953Z" fill="#D6D6D6"/>
<path fill-rule="evenodd" clip-rule="evenodd" d="M104.864 68.681C104.757 68.4049 104.894 68.0941 105.17 67.9868L145.159 52.4373C145.435 52.33 145.746 52.4667 145.853 52.7428C145.961 53.0189 145.824 53.3297 145.548 53.437L105.559 68.9865C105.282 69.0939 104.972 68.9571 104.864 68.681Z" fill="#D6D6D6"/>
<path fill-rule="evenodd" clip-rule="evenodd" d="M111.057 73.2901C110.947 73.0152 111.08 72.703 111.355 72.5927L141.221 60.6114C141.496 60.5011 141.808 60.6346 141.918 60.9095C142.029 61.1844 141.895 61.4967 141.62 61.607L111.755 73.5882C111.48 73.6985 111.167 73.565 111.057 73.2901Z" fill="#D6D6D6"/>
</svg>
