<?xml version="1.0" encoding="UTF-8"?>
<svg width="20px" height="20px" viewBox="0 0 20 20" version="1.1" xmlns="http://www.w3.org/2000/svg" xmlns:xlink="http://www.w3.org/1999/xlink">
    <title>Icon button/20px/NG cart - Wish list</title>
    <g id="Icon-button/20px/NG-cart---Wish-list" stroke="none" stroke-width="1" fill="none" fill-rule="evenodd">
        <g id="Group-9" fill="#000000" fill-rule="nonzero">
            <g id="like" transform="translate(8.8235, 10.5882)">
                <path d="M9.8761024,0.924555528 C9.3506534,0.3283406 8.62170814,0 7.82357831,0 C6.70106128,0 5.99038491,0.670414077 5.59188179,1.23283781 C5.48848987,1.37878083 5.40053704,1.5251192 5.32669161,1.6628225 C5.25284619,1.5251192 5.16491416,1.37878083 5.06150144,1.23283781 C4.66299832,0.670414077 3.95232195,0 2.82980492,0 C2.03167509,0 1.30272983,0.328361408 0.777260021,0.924576336 C0.276051631,1.49332551 0,2.25504241 0,3.06940201 C0,3.9558592 0.346089303,4.780352 1.08916278,5.66408343 C1.75327222,6.45393192 2.70868511,7.26808344 3.8150348,8.21084544 C4.2272916,8.56215739 4.65361419,8.92545441 5.10748577,9.32256343 L5.12111461,9.33450687 C5.17995791,9.38602597 5.25332476,9.41176471 5.32669161,9.41176471 C5.40005847,9.41176471 5.47342532,9.38600516 5.53226862,9.33450687 L5.54589746,9.32256343 C5.99976904,8.92545441 6.42609163,8.5621782 6.83841086,8.21080382 C7.94469812,7.26810425 8.90011101,6.45395273 9.56422045,5.66408343 C10.3072939,4.78033119 10.6533832,3.9558592 10.6533832,3.06940201 C10.6533832,2.25504241 10.3773316,1.49332551 9.8761024,0.924555528 Z M6.43349906,7.73572951 C6.07810886,8.03856025 5.71235657,8.35023414 5.32669161,8.6855036 C4.94104746,8.35027575 4.57527437,8.03858106 4.21982174,7.7356879 C2.05462564,5.89063428 0.624221674,4.67171662 0.624221674,3.06940201 C0.624221674,2.40710281 0.844884035,1.79195316 1.24557193,1.3372909 C1.65085825,0.877468407 2.21346925,0.624221674 2.82980492,0.624221674 C3.68559203,0.624221674 4.23879808,1.1514393 4.55215736,1.59372116 C4.83324438,1.99039323 4.97991567,2.39026963 5.02993663,2.54376574 C5.07178029,2.67225137 5.19156843,2.75920545 5.32669161,2.75920545 C5.4618148,2.75920545 5.58160294,2.67225137 5.6234466,2.54376574 C5.67346756,2.39026963 5.82013885,1.99039323 6.10122587,1.59370035 C6.41458515,1.1514393 6.9677912,0.624221674 7.82357831,0.624221674 C8.43991398,0.624221674 9.00252498,0.877468407 9.40779049,1.3372909 C9.80849919,1.79195316 10.0291616,2.40710281 10.0291616,3.06940201 C10.0291616,4.67171662 8.59875759,5.89063428 6.43349906,7.73572951 Z" id="Shape"></path>
            </g>
            <g id="save">
                <path d="M9.25568132,18.487395 L2.30011961,18.487395 C1.02979863,18.487395 0,17.5041342 0,16.2912207 L0,2.19617426 C0,0.98326071 1.02979863,0 2.30011961,0 L12.9496734,0 C14.2199944,0 15.249793,0.98326071 15.249793,2.19617426 L15.249793,7.4669925 C15.268344,7.65465477 15.1739601,7.83615453 15.0061712,7.93547623 C14.8383823,8.03479794 14.6261499,8.03479794 14.458361,7.93547623 C14.2905721,7.83615453 14.1961882,7.65465477 14.2147392,7.4669925 L14.2147392,2.19617426 C14.2147415,1.87971756 14.0827655,1.57628582 13.8479746,1.35292962 C13.6131837,1.12957341 13.2949065,1.00468008 12.9634741,1.00584781 L2.30011961,1.00584781 C1.96709887,1.00232762 1.64644782,1.12618091 1.40965945,1.3497931 C1.17287108,1.57340529 1.03963366,1.87818367 1.03965407,2.19617426 L1.03965407,16.3043977 C1.03963366,16.6223883 1.17287108,16.9271667 1.40965945,17.1507789 C1.64644782,17.3743911 1.96709887,17.4982444 2.30011961,17.4947242 L9.25568132,17.4947242 C9.54277386,17.4947242 9.77550835,17.7169411 9.77550835,17.9910596 C9.77550835,18.265178 9.54277386,18.487395 9.25568132,18.487395 L9.25568132,18.487395 Z" id="_4"></path>
                <path d="M12.0115862,5.54416662 L3.33746741,5.54416662 C3.14241472,5.56066027 2.95376724,5.47674362 2.8505341,5.32756255 C2.74730096,5.17838148 2.74730096,4.98968574 2.8505341,4.84050468 C2.95376724,4.69132361 3.14241472,4.60740696 3.33746741,4.62390061 L12.0115862,4.62390061 C12.2765426,4.64630532 12.4789916,4.84560438 12.4789916,5.08403361 C12.4789916,5.32246285 12.2765426,5.52176191 12.0115862,5.54416662 Z" id="_3"></path>
                <path d="M8.24732726,9.24369748 L3.30729459,9.24369748 C3.01227217,9.24369748 2.77310924,9.03677026 2.77310924,8.78151261 C2.77310924,8.52625495 3.01227217,8.31932773 3.30729459,8.31932773 L8.24732726,8.31932773 C8.54234968,8.31932773 8.78151261,8.52625495 8.78151261,8.78151261 C8.78151261,9.03677026 8.54234968,9.24369748 8.24732726,9.24369748 Z" id="_2"></path>
            </g>
        </g>
    </g>
</svg>