<svg width="26" height="21" viewBox="0 0 26 21" fill="none" xmlns="http://www.w3.org/2000/svg">
<path fill-rule="evenodd" clip-rule="evenodd" d="M4.62049 2.4H0V1.6H4.62049C5.04087 1.6 5.40526 1.89102 5.49821 2.301L6.69077 7.56103H21.9406C22.5307 7.56103 22.9611 8.1194 22.8109 8.69007L20.5642 17.2277C20.4601 17.6231 20.1027 17.8987 19.6938 17.8987H8.93301C8.51263 17.8987 8.14824 17.6077 8.05529 17.1977L4.71801 2.47789C4.70768 2.43233 4.6672 2.4 4.62049 2.4ZM6.87214 8.36103L8.83549 17.0208C8.84582 17.0663 8.88631 17.0987 8.93301 17.0987H19.6938C19.7392 17.0987 19.779 17.0681 19.7905 17.0241L22.0373 8.48648C22.054 8.42307 22.0061 8.36103 21.9406 8.36103H6.87214Z" fill="black"/>
<path d="M12.8501 19.8454C12.8501 20.4831 12.3332 21 11.6956 21C11.0579 21 10.541 20.4831 10.541 19.8454C10.541 19.2078 11.0579 18.6909 11.6956 18.6909C12.3332 18.6909 12.8501 19.2078 12.8501 19.8454Z" fill="black"/>
<path d="M12.8501 19.8454C12.8501 20.4831 12.3332 21 11.6956 21C11.0579 21 10.541 20.4831 10.541 19.8454C10.541 19.2078 11.0579 18.6909 11.6956 18.6909C12.3332 18.6909 12.8501 19.2078 12.8501 19.8454Z" fill="black"/>
<path d="M12.8501 19.8454C12.8501 20.4831 12.3332 21 11.6956 21C11.0579 21 10.541 20.4831 10.541 19.8454C10.541 19.2078 11.0579 18.6909 11.6956 18.6909C12.3332 18.6909 12.8501 19.2078 12.8501 19.8454Z" fill="black"/>
<path d="M18.8736 19.8454C18.8736 20.4831 18.3567 21 17.719 21C17.0814 21 16.5645 20.4831 16.5645 19.8454C16.5645 19.2078 17.0814 18.6909 17.719 18.6909C18.3567 18.6909 18.8736 19.2078 18.8736 19.8454Z" fill="black"/>
<path d="M18.8736 19.8454C18.8736 20.4831 18.3567 21 17.719 21C17.0814 21 16.5645 20.4831 16.5645 19.8454C16.5645 19.2078 17.0814 18.6909 17.719 18.6909C18.3567 18.6909 18.8736 19.2078 18.8736 19.8454Z" fill="black"/>
<path d="M18.8736 19.8454C18.8736 20.4831 18.3567 21 17.719 21C17.0814 21 16.5645 20.4831 16.5645 19.8454C16.5645 19.2078 17.0814 18.6909 17.719 18.6909C18.3567 18.6909 18.8736 19.2078 18.8736 19.8454Z" fill="black"/>
<path d="M26 7.5C26 11.6421 22.6421 15 18.5 15C14.3579 15 11 11.6421 11 7.5C11 3.35786 14.3579 0 18.5 0C22.6421 0 26 3.35786 26 7.5Z" fill="#187790"/>
</svg>
