<svg width="26" height="26" viewBox="0 0 26 26" fill="none" xmlns="http://www.w3.org/2000/svg">
<path d="M26 13C26 20.1797 20.1797 26 13 26C5.8203 26 0 20.1797 0 13C0 5.8203 5.8203 0 13 0C20.1797 0 26 5.8203 26 13Z" fill="#187790"/>
<path fill-rule="evenodd" clip-rule="evenodd" d="M13 6C13.5523 6 14 6.44772 14 7V19C14 19.5523 13.5523 20 13 20C12.4477 20 12 19.5523 12 19V7C12 6.44772 12.4477 6 13 6Z" fill="white"/>
<path fill-rule="evenodd" clip-rule="evenodd" d="M20 13C20 13.5523 19.5523 14 19 14H7C6.44771 14 6 13.5523 6 13C6 12.4477 6.44771 12 7 12H19C19.5523 12 20 12.4477 20 13Z" fill="white"/>
</svg>
