<?xml version="1.0" encoding="UTF-8"?>
<svg width="24px" height="24px" viewBox="0 0 24 24" version="1.1" xmlns="http://www.w3.org/2000/svg" xmlns:xlink="http://www.w3.org/1999/xlink">
    <!-- Generator: Sketch 57.1 (83088) - https://sketch.com -->
    <title>Info/24x24/medium</title>
    <desc>Created with Sketch.</desc>
    <g id="Info/24x24/medium" stroke="none" stroke-width="1" fill="none" fill-rule="evenodd">
        <g fill="#767676" fill-rule="nonzero">
            <path d="M11.9999487,24 C8.79463748,24 5.78116709,22.75175 3.5147072,20.485234 C1.24819604,18.218718 0,15.2052925 0,11.9999231 C0,8.79455373 1.24819604,5.78123071 3.5147072,3.51471471 C5.78121836,1.24819871 8.79463748,0 11.9999487,0 C15.20526,0 18.2187304,1.24819871 20.4852415,3.51471471 C22.7517527,5.78117944 24,8.79465627 24,11.9999744 C24,15.2052925 22.7517527,18.218718 20.4852415,20.4852853 C18.2187304,22.75175 15.20526,24 11.9999487,24 Z M11.9999487,1.02534087 C9.06850544,1.02534087 6.31254886,2.16690413 4.23972418,4.23973324 C2.1668995,6.31256235 1.02533868,9.06857608 1.02533868,11.9999231 C1.02533868,14.9313727 2.1668995,17.6873351 4.23972418,19.7602155 C6.31254886,21.8330446 9.06850544,22.9746079 11.9999487,22.9746079 C14.931392,22.9746079 17.6873486,21.8329933 19.7602245,19.7602155 C21.8330492,17.6873351 22.9746101,14.9314239 22.9746101,11.9999231 C22.9746101,9.06847355 21.832998,6.31251108 19.7602245,4.23968197 C17.6873486,2.16690413 14.9314433,1.02534087 11.9999487,1.02534087 Z" id="Shape"></path>
            <rect id="Rectangle" x="10.6666667" y="10.6666667" width="2.66666667" height="8"></rect>
            <rect id="Rectangle" x="10.6666667" y="5.33333333" width="2.66666667" height="2.66666667"></rect>
        </g>
    </g>
</svg>