<?xml version="1.0" encoding="UTF-8"?>
<svg width="4px" height="17px" viewBox="0 0 4 17" version="1.1" xmlns="http://www.w3.org/2000/svg" xmlns:xlink="http://www.w3.org/1999/xlink">
    <title>Icon button/20px/menu 2</title>
    <g id="Icon-button/20px/menu-2" stroke="none" stroke-width="1" fill="none" fill-rule="evenodd">
        <g id="dots-(2)" fill="#484848" fill-rule="nonzero">
            <path d="M0,8.16666717 C0,9.20571851 0.845564154,10.0512827 1.8846155,10.0512827 C2.92366685,10.0512827 3.769231,9.20571851 3.769231,8.16666717 C3.769231,7.12761582 2.92366685,6.28205167 1.8846155,6.28205167 C0.845564154,6.28205167 0,7.12761582 0,8.16666717 Z M0,14.4487188 C0,15.4877702 0.845564154,16.3333343 1.8846155,16.3333343 C2.92366685,16.3333343 3.769231,15.4877702 3.769231,14.4487188 C3.769231,13.4096675 2.92366685,12.5641033 1.8846155,12.5641033 C0.845564154,12.5641033 0,13.4096675 0,14.4487188 Z M0,1.8846155 C0,2.92366685 0.845564154,3.769231 1.8846155,3.769231 C2.92366685,3.769231 3.769231,2.92366685 3.769231,1.8846155 C3.769231,0.845564154 2.92366685,0 1.8846155,0 C0.845564154,0 0,0.845564154 0,1.8846155 Z" id="Shape"></path>
        </g>
    </g>
</svg>