<?xml version="1.0" encoding="UTF-8"?>
<svg width="24px" height="24px" viewBox="0 0 24 24" version="1.1" xmlns="http://www.w3.org/2000/svg" xmlns:xlink="http://www.w3.org/1999/xlink">
    <!-- Generator: Sketch 57.1 (83088) - https://sketch.com -->
    <title>Edit/24x24/ultradark</title>
    <desc>Created with Sketch.</desc>
    <g id="Edit/24x24/ultradark" stroke="none" stroke-width="1" fill="none" fill-rule="evenodd">
        <g stroke="#000000" stroke-width="0.8">
            <path d="M16.3698783,2.484 L2.44883478,16.3476522 C2.45196522,16.356 2.45092174,16.3653913 2.44883478,16.3737391 L7.62448696,21.5493913 L7.62657391,21.5493913 C7.63492174,21.5493913 7.64222609,21.5514783 7.64848696,21.5556522 L21.5737043,7.68678261 L16.3698783,2.484 Z" id="Stroke-1"></path>
            <path d="M2.44090435,16.3661217 C2.43881739,16.3629913 2.43464348,16.3640348 2.4336,16.3671652 L0.5376,22.7271652 C0.4896,22.9327304 0.551165217,23.1497739 0.701426087,23.2989913 C0.850643478,23.4482087 1.06664348,23.5108174 1.2722087,23.4628174 L7.62386087,21.5689043 C7.63116522,21.5668174 7.63325217,21.5584696 7.62803478,21.5532522 L2.44090435,16.3661217 Z" id="Stroke-3"></path>
            <path d="M21.5736,7.6872 L22.3833391,6.82006957 C23.323513,5.89241739 23.6939478,4.5338087 23.3548174,3.2565913 C23.015687,1.98041739 22.0191652,0.983895652 20.7429913,0.644765217 C19.4668174,0.306678261 18.1071652,0.677113043 17.179513,1.61728696 L16.3697739,2.48441739 L21.5736,7.6872 Z" id="Stroke-5"></path>
        </g>
    </g>
</svg>