<svg width="50" height="50" viewBox="0 0 50 50" fill="none" xmlns="http://www.w3.org/2000/svg">
<rect width="50" height="50" rx="4" fill="white"/>
<path d="M26.3312 16.435C26.1529 16.2984 25.9427 16.1914 25.7125 16.12C25.256 15.97 24.744 15.97 24.2875 16.12C24.0573 16.1914 23.8471 16.2984 23.6687 16.435L16.1687 22.435C15.9939 22.5749 15.8553 22.7409 15.7606 22.9236C15.666 23.1064 15.6173 23.3022 15.6173 23.5C15.6173 23.6978 15.666 23.8936 15.7606 24.0764C15.8553 24.2591 15.9939 24.4251 16.1687 24.565C16.3436 24.7049 16.5511 24.8158 16.7795 24.8915C17.0079 24.9672 17.2528 25.0061 17.5 25.0061C17.7472 25.0061 17.9921 24.9672 18.2205 24.8915C18.4489 24.8158 18.6564 24.7049 18.8313 24.565L23.125 21.115V38.5C23.125 38.8978 23.3225 39.2794 23.6742 39.5607C24.0258 39.842 24.5027 40 25 40C25.4973 40 25.9742 39.842 26.3258 39.5607C26.6775 39.2794 26.875 38.8978 26.875 38.5V21.115L31.1688 24.565C31.3431 24.7056 31.5504 24.8172 31.7789 24.8933C32.0074 24.9695 32.2525 25.0087 32.5 25.0087C32.7475 25.0087 32.9926 24.9695 33.2211 24.8933C33.4496 24.8172 33.6569 24.7056 33.8312 24.565C34.007 24.4256 34.1465 24.2597 34.2417 24.0769C34.3369 23.8941 34.3859 23.698 34.3859 23.5C34.3859 23.302 34.3369 23.1059 34.2417 22.9231C34.1465 22.7403 34.007 22.5744 33.8312 22.435L26.3312 16.435ZM38.125 10H11.875C11.3777 10 10.9008 10.158 10.5492 10.4393C10.1975 10.7206 10 11.1022 10 11.5C10 11.8978 10.1975 12.2794 10.5492 12.5607C10.9008 12.842 11.3777 13 11.875 13H38.125C38.6223 13 39.0992 12.842 39.4508 12.5607C39.8025 12.2794 40 11.8978 40 11.5C40 11.1022 39.8025 10.7206 39.4508 10.4393C39.0992 10.158 38.6223 10 38.125 10Z" fill="black"/>
</svg>
