<svg width="50" height="50" viewBox="0 0 50 50" fill="none" xmlns="http://www.w3.org/2000/svg">
<rect width="50" height="50" rx="4" fill="white"/>
<path d="M24.1836 11.549V16.6441C22.3738 15.2583 21.045 14.549 20.6944 14.8996L12.7705 22.8145V11.549C12.779 10.8857 12.9331 10.2323 13.2219 9.63499C13.5107 9.03773 13.9271 8.51116 14.4417 8.09249C15.5726 7.14823 17.0039 6.63935 18.477 6.65771C21.6328 6.65771 24.1836 8.85064 24.1836 11.549Z" fill="#FCFCFC"/>
<path d="M24.1851 27.8527C25.0856 27.8527 25.8156 27.1227 25.8156 26.2222C25.8156 25.3218 25.0856 24.5918 24.1851 24.5918C23.2847 24.5918 22.5547 25.3218 22.5547 26.2222C22.5547 27.1227 23.2847 27.8527 24.1851 27.8527Z" fill="#0091FF"/>
<path d="M24.1845 24.5924C23.862 24.5924 23.5468 24.688 23.2786 24.8671C23.0105 25.0463 22.8015 25.3009 22.6781 25.5989C22.5547 25.8968 22.5224 26.2246 22.5854 26.5409C22.6483 26.8572 22.8036 27.1477 23.0316 27.3757C23.2596 27.6037 23.5501 27.759 23.8664 27.8219C24.1827 27.8848 24.5105 27.8525 24.8084 27.7291C25.1063 27.6057 25.361 27.3967 25.5401 27.1286C25.7193 26.8605 25.8149 26.5453 25.8149 26.2228C25.8136 25.7908 25.6414 25.3768 25.3359 25.0713C25.0304 24.7658 24.6165 24.5936 24.1845 24.5924ZM34.1301 29.4918C34.3419 29.5131 34.5473 29.5758 34.7347 29.6766C34.9222 29.7773 35.0879 29.914 35.2225 30.0788L34.9209 30.2989L21.2668 43.9603C20.3211 44.906 16.2369 42.3552 12.1445 38.2628C8.05212 34.1704 5.5013 30.0861 6.44695 29.1405L12.7714 22.8144L20.6953 14.8994C20.4182 15.1684 20.785 16.0326 21.6165 17.2554C22.4071 18.3843 23.2646 19.4648 24.1845 20.491C25.0078 21.4285 25.9453 22.4231 26.9644 23.4421L27.372 23.8497C29.4056 25.9702 31.6882 27.837 34.1701 29.4095L34.1301 29.4918Z" fill="#E4E4E4"/>
<path d="M40.4891 36.8208V41.7122C40.4891 42.3608 40.2314 42.9828 39.7728 43.4415C39.3141 43.9001 38.6921 44.1578 38.0434 44.1578C37.3948 44.1578 36.7728 43.9001 36.3141 43.4415C35.8555 42.9828 35.5978 42.3608 35.5978 41.7122V31.1143C35.5958 30.7107 35.445 30.322 35.1742 30.0226C34.9035 29.7233 34.5318 29.5344 34.1304 29.492L34.1712 29.4105C31.6893 27.838 29.4067 25.9712 27.373 23.8507L27.4456 23.7773H32.3369C35.3638 23.7773 38.2668 24.9798 40.4072 27.1202C42.5475 29.2605 43.75 32.1635 43.75 35.1904V36.8208C43.7487 37.2529 43.5765 37.6668 43.271 37.9723C42.9655 38.2778 42.5516 38.45 42.1195 38.4513C41.6881 38.4481 41.2753 38.2753 40.9702 37.9702C40.6651 37.6651 40.4923 37.2523 40.4891 36.8208Z" fill="#0091FF"/>
<path d="M29.2383 21.1684C27.6463 19.5597 25.9585 18.0488 24.184 16.6439C22.3742 15.258 21.0454 14.5488 20.6949 14.8993C20.4177 15.1683 20.7845 16.0325 21.6161 17.2553C22.4066 18.3842 23.2641 19.4647 24.184 20.4909C25.0074 21.4284 25.9449 22.423 26.9639 23.442L27.3715 23.8496L27.4449 23.7771H31.7166C30.9666 22.9366 30.1351 22.0561 29.2383 21.1684Z" fill="#9C9C9C"/>
<path d="M24.184 20.4909C25.0074 21.4284 25.9449 22.423 26.9639 23.442L27.3715 23.8496L27.4449 23.777H30.1955C29.8824 23.4509 29.5694 23.1249 29.2384 22.7988C27.6464 21.1901 25.9585 19.6792 24.184 18.2743C23.2839 17.4806 22.2416 16.8643 21.1123 16.458C21.2542 16.7026 21.4213 16.9683 21.6161 17.2553C22.4066 18.3842 23.2642 19.4647 24.184 20.4909Z" fill="#595959"/>
<path d="M18.4778 5.84222C16.8103 5.82385 15.1912 6.40212 13.9126 7.47266C13.307 7.96657 12.8177 8.5879 12.4795 9.29241C12.1414 9.99692 11.9626 10.7673 11.9561 11.5487V23.6311L12.7713 22.8159L13.5865 22.0007V11.5487C13.5947 11.003 13.7232 10.4657 13.9627 9.97519C14.2023 9.4847 14.547 9.05305 14.9724 8.71097C15.9559 7.89366 17.1991 7.45451 18.4778 7.47266C21.1754 7.47266 23.3691 9.30119 23.3691 11.5487V24.8197C23.6149 24.6707 23.8969 24.5919 24.1843 24.5919C24.4718 24.5919 24.7537 24.6707 24.9995 24.8197V11.5487C24.9995 8.40201 22.0737 5.84222 18.4778 5.84222Z" fill="#595959"/>
<path d="M24.1839 23.7773C23.7002 23.7773 23.2274 23.9208 22.8252 24.1895C22.423 24.4582 22.1096 24.8402 21.9244 25.2871C21.7393 25.734 21.6909 26.2257 21.7853 26.7001C21.8796 27.1745 22.1126 27.6103 22.4546 27.9523C22.7966 28.2944 23.2324 28.5273 23.7068 28.6217C24.1812 28.716 24.673 28.6676 25.1198 28.4825C25.5667 28.2974 25.9487 27.9839 26.2174 27.5817C26.4862 27.1795 26.6296 26.7067 26.6296 26.223C26.6296 25.5744 26.3719 24.9523 25.9133 24.4937C25.4546 24.035 24.8326 23.7773 24.1839 23.7773ZM24.1839 27.8534C23.8615 27.8534 23.5462 27.7578 23.2781 27.5787C23.01 27.3995 22.801 27.1449 22.6776 26.8469C22.5542 26.549 22.5219 26.2212 22.5848 25.9049C22.6477 25.5886 22.803 25.2981 23.031 25.0701C23.2591 24.8421 23.5496 24.6868 23.8659 24.6239C24.1821 24.561 24.51 24.5933 24.8079 24.7167C25.1058 24.8401 25.3604 25.0491 25.5396 25.3172C25.7188 25.5853 25.8144 25.9005 25.8144 26.223C25.8144 26.6554 25.6426 27.0701 25.3368 27.3759C25.0311 27.6817 24.6164 27.8534 24.1839 27.8534Z" fill="#9C9C9C"/>
<path d="M34.1288 29.4912L34.1696 29.4096C33.6755 29.1343 33.199 28.8286 32.7429 28.4941C28.415 33.5191 17.7813 39.2094 6.60624 28.9833L6.4489 29.1406C5.50325 30.0863 8.05407 34.1705 12.1465 38.2629C16.2389 42.3553 20.3231 44.9061 21.2688 43.9605L34.9196 30.299L35.2212 30.0789C35.0867 29.914 34.921 29.7771 34.7335 29.6763C34.5461 29.5754 34.3406 29.5125 34.1288 29.4912Z" fill="#CFCFCF"/>
<path d="M39.3405 36.514C39.1929 36.3996 39.0731 36.2535 38.9898 36.0863C38.9065 35.9192 38.862 35.7355 38.8595 35.5488V39.6575C38.804 40.2528 38.5161 40.8022 38.0584 41.1867C37.6006 41.5712 37.0098 41.7599 36.4139 41.7119C36.1374 41.7098 35.8627 41.6672 35.5986 41.5855V41.7119C35.5986 42.3605 35.8563 42.9826 36.3149 43.4412C36.7736 43.8999 37.3957 44.1575 38.0443 44.1575C38.6929 44.1575 39.315 43.8999 39.7736 43.4412C40.2323 42.9826 40.4899 42.3605 40.4899 41.7119V36.9184C40.0708 36.9252 39.6631 36.7818 39.3405 36.514Z" fill="#00A6FF"/>
<path d="M32.3377 23.7773H27.4464L27.373 23.8507C27.6315 24.1059 27.8874 24.3496 28.1426 24.5934H30.7073C37.0089 24.5934 42.1204 28.8871 42.1204 34.1803V35.5499C42.082 35.9443 41.8911 36.3082 41.5884 36.5639C41.2856 36.8196 40.895 36.9469 40.4997 36.9187C40.5246 37.3322 40.7059 37.7208 41.0069 38.0055C41.3079 38.2901 41.7061 38.4495 42.1204 38.4513C42.5524 38.45 42.9663 38.2778 43.2718 37.9723C43.5773 37.6668 43.7495 37.2529 43.7508 36.8208V35.1904C43.7508 32.1635 42.5483 29.2605 40.408 27.1202C38.2676 24.9798 35.3647 23.7773 32.3377 23.7773Z" fill="#31C4FF"/>
<path d="M12.1104 30.5572C12.6331 30.0344 12.4669 29.0206 11.7391 28.2929C11.0113 27.5651 9.9976 27.3989 9.47485 27.9216C8.95209 28.4444 9.1183 29.4581 9.84608 30.1859C10.5739 30.9137 11.5876 31.0799 12.1104 30.5572Z" fill="#F6FAFD"/>
<path d="M42.4309 34.8157C42.6936 34.5531 42.6102 34.0439 42.2447 33.6784C41.8793 33.3129 41.3701 33.2296 41.1074 33.4922C40.8448 33.7549 40.9281 34.2641 41.2936 34.6295C41.6591 34.995 42.1683 35.0784 42.4309 34.8157Z" fill="#F6FAFD"/>
<path d="M13.0842 27.4671C13.3469 27.2044 13.2635 26.6952 12.8981 26.3298C12.5326 25.9643 12.0234 25.8809 11.7607 26.1436C11.4981 26.4062 11.5814 26.9154 11.9469 27.2809C12.3124 27.6464 12.8216 27.7297 13.0842 27.4671Z" fill="#F6FAFD"/>
<path d="M41.8959 32.4461C42.0274 32.3147 41.9859 32.0599 41.8031 31.8772C41.6204 31.6945 41.3657 31.6529 41.2342 31.7844C41.1027 31.9159 41.1442 32.1706 41.327 32.3533C41.5097 32.5361 41.7644 32.5776 41.8959 32.4461Z" fill="#F6FAFD"/>
<path d="M24.7748 25.9178C24.9063 25.7863 24.8648 25.5316 24.682 25.3489C24.4993 25.1661 24.2446 25.1246 24.1131 25.2561C23.9816 25.3876 24.0231 25.6423 24.2059 25.825C24.3886 26.0078 24.6433 26.0493 24.7748 25.9178Z" fill="#F6FAFD"/>
</svg>
