<svg width="70" height="69" viewBox="0 0 70 69" fill="none" xmlns="http://www.w3.org/2000/svg">
<path d="M48.3356 59.7584L51.3267 57.1731H66.9404L40.1387 35.7326V66.8428L44.9421 62.6918" stroke="black" stroke-width="2" stroke-miterlimit="10" stroke-linecap="round" stroke-linejoin="round"/>
<path d="M10.4272 33.9835L14.8064 29.7458L32.6336 46.9951H2.53516V41.6213L6.91433 37.3837" stroke="black" stroke-width="2" stroke-miterlimit="10" stroke-linecap="round" stroke-linejoin="round"/>
<path d="M32.2878 27.6964L38.5702 21.6151L54.0875 36.6268M22.4883 37.1777L28.7707 31.0965" stroke="black" stroke-width="2" stroke-miterlimit="10" stroke-linecap="round" stroke-linejoin="round"/>
<path d="M21.1713 21.2021C24.4478 21.2021 27.121 18.8654 27.121 16.0006C27.121 13.136 24.4478 10.7991 21.1713 10.7991C17.8946 10.7991 15.2217 13.136 15.2217 16.0006C15.2217 18.8654 17.8946 21.2021 21.1713 21.2021Z" stroke="black" stroke-width="2" stroke-miterlimit="10" stroke-linecap="round" stroke-linejoin="round"/>
<path d="M54.7328 41.7455V6.31836C54.7328 3.55694 52.4942 1.31836 49.7328 1.31836H7.43126C4.69303 1.31836 2.46418 3.52086 2.43161 6.2589L2.01135 41.594C1.97823 44.3785 4.22632 46.6534 7.01099 46.6534H34.3031" stroke="black" stroke-width="2"/>
</svg>
