<svg width="26" height="30" viewBox="0 0 26 30" fill="none" xmlns="http://www.w3.org/2000/svg">
<path d="M17.1049 10.8691C16.7169 10.8691 16.4023 11.1837 16.4023 11.5717V24.8504C16.4023 25.2382 16.7169 25.5529 17.1049 25.5529C17.493 25.5529 17.8075 25.2382 17.8075 24.8504V11.5717C17.8075 11.1837 17.493 10.8691 17.1049 10.8691Z" fill="black"/>
<path d="M8.81586 10.8691C8.42779 10.8691 8.11328 11.1837 8.11328 11.5717V24.8504C8.11328 25.2382 8.42779 25.5529 8.81586 25.5529C9.20392 25.5529 9.51843 25.2382 9.51843 24.8504V11.5717C9.51843 11.1837 9.20392 10.8691 8.81586 10.8691Z" fill="black"/>
<path d="M2.77277 8.93129V26.2412C2.77277 27.2644 3.14793 28.2252 3.8033 28.9146C4.45565 29.6059 5.36351 29.9984 6.31363 30H19.6066C20.5569 29.9984 21.4648 29.6059 22.1169 28.9146C22.7723 28.2252 23.1474 27.2644 23.1474 26.2412V8.93129C24.4502 8.58549 25.2944 7.3269 25.1201 5.99008C24.9456 4.65355 23.8069 3.65375 22.4588 3.65348H18.8617V2.77526C18.8658 2.03673 18.5738 1.32757 18.051 0.805857C17.5282 0.284415 16.8179 -0.00594543 16.0794 9.23125e-05H9.84077C9.10225 -0.00594543 8.39199 0.284415 7.86917 0.805857C7.34636 1.32757 7.05435 2.03673 7.05847 2.77526V3.65348H3.46135C2.11328 3.65375 0.974618 4.65355 0.800072 5.99008C0.625801 7.3269 1.46999 8.58549 2.77277 8.93129ZM19.6066 28.5949H6.31363C5.11239 28.5949 4.17792 27.5629 4.17792 26.2412V8.99304H21.7423V26.2412C21.7423 27.5629 20.8078 28.5949 19.6066 28.5949ZM8.46362 2.77526C8.45895 2.40943 8.60276 2.05732 8.86238 1.79907C9.12173 1.54082 9.47466 1.39893 9.84077 1.40524H16.0794C16.4455 1.39893 16.7985 1.54082 17.0578 1.79907C17.3174 2.05704 17.4612 2.40943 17.4566 2.77526V3.65348H8.46362V2.77526ZM3.46135 5.05862H22.4588C23.1573 5.05862 23.7235 5.6248 23.7235 6.32326C23.7235 7.02172 23.1573 7.58789 22.4588 7.58789H3.46135C2.76289 7.58789 2.19671 7.02172 2.19671 6.32326C2.19671 5.6248 2.76289 5.05862 3.46135 5.05862Z" fill="black"/>
<path d="M12.9604 10.8691C12.5723 10.8691 12.2578 11.1837 12.2578 11.5717V24.8504C12.2578 25.2382 12.5723 25.5529 12.9604 25.5529C13.3484 25.5529 13.663 25.2382 13.663 24.8504V11.5717C13.663 11.1837 13.3484 10.8691 12.9604 10.8691Z" fill="black"/>
</svg>
