<svg width="18" height="14" viewBox="0 0 18 14" fill="none" xmlns="http://www.w3.org/2000/svg">
<path fill-rule="evenodd" clip-rule="evenodd" d="M9.5951 9.76532V12.7321H9.59324C9.59324 12.8107 9.57197 12.8879 9.53168 12.9554C9.4914 13.0229 9.4336 13.0782 9.36442 13.1155C9.29524 13.1528 9.21725 13.1707 9.13871 13.1673C9.06018 13.1639 8.98403 13.1393 8.91834 13.0962L0.20356 7.37055C0.141854 7.33169 0.0908864 7.27797 0.0553265 7.2143C0.0197665 7.15063 0.000750989 7.07906 2.17932e-05 7.00614C-0.000707403 6.93322 0.0168731 6.86129 0.0511528 6.79692C0.0854325 6.73256 0.135315 6.67783 0.196231 6.63774L8.88493 0.929568C8.9493 0.878182 9.02687 0.846011 9.10871 0.836756C9.19056 0.8275 9.27335 0.841536 9.34757 0.877249C9.42179 0.912962 9.48442 0.968903 9.52826 1.03863C9.5721 1.10836 9.59536 1.18905 9.59537 1.27142V4.23822H17.2563C17.3723 4.23822 17.4836 4.28431 17.5656 4.36636C17.6477 4.4484 17.6938 4.55968 17.6938 4.67572V9.32771C17.6938 9.44374 17.6477 9.55502 17.5656 9.63707C17.4836 9.71911 17.3723 9.76521 17.2563 9.76521L9.5951 9.76532Z" fill="black"/>
</svg>
