<svg width="24" height="24" viewBox="0 0 24 24" fill="none" xmlns="http://www.w3.org/2000/svg">
    <path fill-rule="evenodd" clip-rule="evenodd" d="M2.85164 22.7724L3.23469 21.8486C3.46912 21.9458 3.72697 22 4 22H5V23H4C3.59323 23 3.20536 22.919 2.85164 22.7724ZM19 23V22H20C20.273 22 20.5309 21.9458 20.7653 21.8486L21.1484 22.7724C20.7946 22.919 20.4068 23 20 23H19ZM23 5H22V4C22 3.72697 21.9458 3.46912 21.8486 3.23469L22.7724 2.85164C22.919 3.20536 23 3.59323 23 4V5ZM5 1H4C3.59323 1 3.20536 1.08096 2.85164 1.22764L3.23469 2.15137C3.46912 2.05415 3.72697 2 4 2H5V1ZM1 19H2V20C2 20.273 2.05415 20.5309 2.15137 20.7653L1.22764 21.1484C1.08096 20.7946 1 20.4068 1 20V19ZM1 17H2V15H1V17ZM1 13H2V11H1V13ZM1 9H2V7H1V9ZM1 5H2V4C2 3.72697 2.05415 3.46912 2.15137 3.23469L1.22764 2.85164C1.08096 3.20536 1 3.59323 1 4V5ZM7 1V2H9V1H7ZM11 1V2H13V1H11ZM15 1V2H17V1H15ZM19 1V2H20C20.273 2 20.5309 2.05415 20.7653 2.15137L21.1484 1.22764C20.7946 1.08096 20.4068 1 20 1H19ZM23 7H22V9H23V7ZM23 11H22V13H23V11ZM23 15H22V17H23V15ZM23 19H22V20C22 20.273 21.9458 20.5309 21.8486 20.7653L22.7724 21.1484C22.919 20.7946 23 20.4068 23 20V19ZM17 23V22H15V23H17ZM13 23V22H11V23H13ZM9 23V22H7V23H9Z" fill="black"/>
    <path d="M5.5 1H3H1V5H2.5V2.5H5.5V1Z" fill="white"/>
    <path fill-rule="evenodd" clip-rule="evenodd" d="M0.75 0.75H5.75V2.75H2.75V5.25H0.75V0.75ZM1.25 1.25V4.75H2.25V2.25H5.25V1.25H1.25Z" fill="black"/>
    <path d="M18.5 1H21H23V5H21.5V2.5H18.5V1Z" fill="white"/>
    <path fill-rule="evenodd" clip-rule="evenodd" d="M23.25 0.75H18.25V2.75H21.25V5.25H23.25V0.75ZM22.75 1.25V4.75H21.75V2.25H18.75V1.25H22.75Z" fill="black"/>
    <path d="M5.5 23H3H1V19H2.5V21.5H5.5V23Z" fill="white"/>
    <path fill-rule="evenodd" clip-rule="evenodd" d="M0.75 23.25H5.75V21.25H2.75V18.75H0.75V23.25ZM1.25 22.75V19.25H2.25V21.75H5.25V22.75H1.25Z" fill="black"/>
    <path d="M18.5 23H21H23V19H21.5V21.5H18.5V23Z" fill="white"/>
    <path fill-rule="evenodd" clip-rule="evenodd" d="M23.25 23.25H18.25V21.25H21.25V18.75H23.25V23.25ZM22.75 22.75V19.25H21.75V21.75H18.75V22.75H22.75Z" fill="black"/>
    <path fill-rule="evenodd" clip-rule="evenodd" d="M5.50004 12.5L5.19901 12.7634L5.4113 13.006C9.12199 17.2468 15.7571 17.1256 19.3105 12.7522L19 12.5L19.3221 12.2627L19.1503 12.0296C15.6484 7.27702 8.50349 7.40198 5.16992 12.2741L5.50004 12.5ZM6.00927 12.4745L6.01336 12.4792C9.32957 16.2692 15.2068 16.2392 18.4909 12.4834C15.3718 8.27836 9.09688 8.31237 6.00927 12.4745Z" fill="black"/>
    <path fill-rule="evenodd" clip-rule="evenodd" d="M12.2998 14.1C13.2387 14.1 13.9998 13.3389 13.9998 12.4C13.9998 11.4611 13.2387 10.7 12.2998 10.7C11.3609 10.7 10.5998 11.4611 10.5998 12.4C10.5998 13.3389 11.3609 14.1 12.2998 14.1ZM12.2998 14.9C13.6805 14.9 14.7998 13.7807 14.7998 12.4C14.7998 11.0193 13.6805 9.90002 12.2998 9.90002C10.9191 9.90002 9.7998 11.0193 9.7998 12.4C9.7998 13.7807 10.9191 14.9 12.2998 14.9Z" fill="black"/>
    <path fill-rule="evenodd" clip-rule="evenodd" d="M6.29422 17.9717C6.10692 17.7688 6.11957 17.4525 6.32248 17.2652L17.3445 7.09097C17.5474 6.90367 17.8638 6.91632 18.0511 7.11923C18.2384 7.32214 18.2257 7.63847 18.0228 7.82577L7.00076 18C6.79785 18.1873 6.48152 18.1746 6.29422 17.9717Z" fill="black"/>
</svg>
