<svg width="50" height="50" viewBox="0 0 50 50" fill="none" xmlns="http://www.w3.org/2000/svg">
<rect width="50" height="50" rx="4" fill="white"/>
<line x1="16.8155" y1="43.4944" x2="41.2983" y2="21.8679" stroke="#0091FF" stroke-width="4" stroke-linecap="round"/>
<mask id="mask0_367_46649" style="mask-type:luminance" maskUnits="userSpaceOnUse" x="2" y="2" width="46" height="46">
<path d="M2.81709 31.8761L18.1226 2.81727L47.1815 18.1228L31.876 47.1816L2.81709 31.8761Z" fill="white"/>
</mask>
<g mask="url(#mask0_367_46649)">
<path d="M24.1209 23.0874L26.5847 31.0348L26.2555 33.0365L26.5241 33.9029C26.6724 34.3812 26.6126 34.8747 26.3962 35.2856C26.1797 35.6965 25.8067 36.0249 25.3284 36.1732C24.3712 36.4694 23.3547 35.934 23.0581 34.9774L22.7895 34.1109L21.3858 32.6466L20.5337 29.8981L24.1209 23.0874Z" fill="black"/>
<path d="M21.652 15.1152L20.1591 10.2998C19.7142 8.86407 18.1895 8.06104 16.7538 8.50617C15.3182 8.95122 14.5152 10.4758 14.9602 11.9115L16.4531 16.7269" stroke="black" stroke-miterlimit="10" stroke-linecap="round" stroke-linejoin="round"/>
<path d="M17.364 19.6735L21.3857 32.6463L22.7894 34.1106L23.058 34.9771C23.3547 35.9341 24.3712 36.4695 25.3283 36.1728C26.2853 35.8761 26.8207 34.8597 26.524 33.9026L26.2554 33.0361L26.5846 31.0345L22.5629 18.0618" stroke="black" stroke-miterlimit="10" stroke-linecap="round" stroke-linejoin="round"/>
<path d="M25.1097 17.0829L14.7118 20.3063L13.9059 17.7069L24.3038 14.4834L25.1097 17.0829Z" stroke="black" stroke-miterlimit="10" stroke-linecap="round" stroke-linejoin="round"/>
</g>
</svg>
