<svg width="24" height="24" viewBox="0 0 24 24" fill="none" xmlns="http://www.w3.org/2000/svg">
<path d="M2.5 7C2.5 4.51472 4.51472 2.5 7 2.5H13.25C13.6642 2.5 14 2.21421 14 1.8C14 1.38579 13.6642 1 13.25 1H7C3.68629 1 1 3.68629 1 7V14.25C1 14.6642 1.33579 15 1.75 15C2.16421 15 2.5 14.6642 2.5 14.25V7Z" fill="black"/>
<path d="M22 7C22 4.51472 19.9853 2.5 17.5 2.5H11.25C10.8358 2.5 10.5 2.21421 10.5 1.8C10.5 1.38579 10.8358 1 11.25 1H17.5C20.8137 1 23.5 3.68629 23.5 7V14.25C23.5 14.6642 23.1642 15 22.75 15C22.3358 15 22 14.6642 22 14.25V7Z" fill="black"/>
<path fill-rule="evenodd" clip-rule="evenodd" d="M2.5 13C2.5 12.5858 2.16421 12.25 1.75 12.25C1.33579 12.25 1 12.5858 1 13V17.5C1 20.8137 3.68629 23.5 7 23.5H17.5C20.8137 23.5 23.5 20.8137 23.5 17.5V12.25C23.5 11.8358 23.1642 11.5 22.75 11.5C22.3358 11.5 22 11.8358 22 12.25V16.9531C20.2813 14.2657 16.333 14.2992 14.6188 16.8883L12.6806 14.5978C10.3828 11.8822 6.10626 12.1899 4.22087 15.2065L2.52007 17.9278C2.50679 17.787 2.5 17.6443 2.5 17.5V13ZM20.9206 18.0915L21.5673 19.4278C21.025 20.5699 20.0158 21.4474 18.7862 21.8135L15.6508 18.108C16.6803 15.9183 19.8411 15.8608 20.9206 18.0915ZM3.1251 19.7895C3.90863 21.1127 5.35071 22 7 22H16.9791L11.5356 15.5667C9.89421 13.627 6.83957 13.8468 5.49284 16.0015L3.136 19.7725C3.13243 19.7782 3.1288 19.7839 3.1251 19.7895Z" fill="black"/>
</svg>
