<svg width="25" height="18" viewBox="0 0 25 18" fill="none" xmlns="http://www.w3.org/2000/svg">
<path fill-rule="evenodd" clip-rule="evenodd" d="M2.99961 2.40004C2.11595 2.40004 1.39961 3.11638 1.39961 4.00004V15C1.39961 15.8837 2.11595 16.6 2.99961 16.6H18.9996C19.8833 16.6 20.5996 15.8837 20.5996 15V11.5C20.5996 11.2791 20.7787 11.1 20.9996 11.1C21.2205 11.1 21.3996 11.2791 21.3996 11.5V15C21.3996 16.3255 20.3251 17.4 18.9996 17.4H2.99961C1.67413 17.4 0.599609 16.3255 0.599609 15V4.00004C0.599609 2.67455 1.67413 1.60004 2.99961 1.60004H15.4996C15.7205 1.60004 15.8996 1.77912 15.8996 2.00004C15.8996 2.22095 15.7205 2.40004 15.4996 2.40004H2.99961Z" fill="black"/>
<path fill-rule="evenodd" clip-rule="evenodd" d="M13.9051 12.5715L22.0975 4.57729C22.3255 4.35477 22.4133 4.02521 22.3262 3.71873C22.092 2.8946 21.4576 2.24442 20.6394 1.99013C20.3352 1.89556 20.0036 1.97527 19.7755 2.19779L11.5832 10.192L10.8114 13.2677L13.9051 12.5715ZM14.3017 13.3023L22.6562 5.14986C23.0944 4.72227 23.2631 4.08898 23.0958 3.50005C22.7877 2.41596 21.9531 1.56069 20.8769 1.22618C20.2922 1.04445 19.655 1.19763 19.2168 1.62523L10.8624 9.77763L9.91689 13.5457C9.82624 13.907 10.1483 14.237 10.5116 14.1552L14.3017 13.3023Z" fill="black"/>
<path fill-rule="evenodd" clip-rule="evenodd" d="M21.8372 5.95064L18.398 2.42614L18.8768 1.95889L22.3161 5.4834L21.8372 5.95064Z" fill="black"/>
<path fill-rule="evenodd" clip-rule="evenodd" d="M14.2044 13.4002L10.7651 9.87572L11.244 9.40847L14.6832 12.933L14.2044 13.4002Z" fill="black"/>
</svg>
