<svg width="62" height="64" viewBox="0 0 62 64" fill="none" xmlns="http://www.w3.org/2000/svg">
<g clip-path="url(#clip0_492_17276)">
<path d="M39.3412 38.1776C38.1168 35.355 35.4121 33.5293 32.4518 33.5293C28.2788 33.5293 24.8828 37.0667 24.8828 41.4137C24.8828 44.4973 26.6354 47.3147 29.3451 48.592C29.4578 48.6445 29.5756 48.6691 29.6916 48.6691C30.0112 48.6691 30.3173 48.4763 30.4586 48.154C30.6487 47.7124 30.4603 47.1938 30.0382 46.9941C27.9289 46.0006 26.5649 43.8105 26.5649 41.4137C26.5649 38.0322 29.2056 35.2814 32.4519 35.2814C34.7529 35.2814 36.8554 36.7023 37.8091 38.8994C37.9992 39.3409 38.4987 39.5389 38.9208 39.3374C39.3446 39.1377 39.533 38.6191 39.3412 38.1776Z" fill="black"/>
<path d="M59.468 44.3464L53.1437 37.1069C51.8923 35.8033 49.8537 35.8016 48.5906 37.1174C48.1903 37.5344 47.9178 38.0337 47.7765 38.5664C46.5184 37.5624 44.7035 37.6623 43.5446 38.8695C43.146 39.2865 42.8735 39.7858 42.7288 40.3167C41.4707 39.3163 39.6558 39.4144 38.4986 40.6216C38.1067 41.0298 37.8376 41.5169 37.6912 42.0355L34.7107 38.9308C33.4593 37.6272 31.4207 37.6255 30.1576 38.9413C28.9045 40.2449 28.9045 42.3684 30.1576 43.6737L41.6086 55.6018L34.8167 56.7126C32.9816 56.9859 31.5973 58.6469 31.5973 60.5794C31.5973 62.0284 32.7293 63.2076 34.1203 63.2076H49.9799C52.4508 63.2076 54.7736 62.2054 56.5211 60.385L59.1669 57.629C60.9128 55.812 61.8732 53.3942 61.8732 50.8239C61.8732 48.4235 61.0188 46.1231 59.468 44.3464ZM57.9777 56.3902L55.3319 59.1462C53.9023 60.6355 52.0016 61.4554 49.9798 61.4554H34.1203C33.656 61.4554 33.2792 61.0629 33.2792 60.5794C33.2792 59.5141 34.0428 58.5978 35.0672 58.4453L43.5024 57.0647C43.8153 57.0138 44.0726 56.7844 44.1719 56.4707C44.2694 56.1589 44.1904 55.8137 43.9666 55.5807L31.3467 42.4349C30.7496 41.8129 30.7496 40.8002 31.3551 40.1677C31.6545 39.8576 32.0464 39.7017 32.4384 39.7017C32.8303 39.7017 33.2221 39.8576 33.5216 40.1695L41.9366 48.9351C42.2646 49.2768 42.7979 49.2768 43.1258 48.9351C43.289 48.7634 43.3714 48.5392 43.3714 48.3149C43.3714 48.0906 43.2891 47.8664 43.1242 47.6947L39.6879 44.1152C39.0908 43.4932 39.0908 42.4822 39.698 41.8497C40.2934 41.2295 41.2673 41.2295 41.8627 41.8497L45.3007 45.431C45.6287 45.7726 46.1619 45.7726 46.4899 45.431C46.653 45.2592 46.7355 45.035 46.7355 44.8107C46.7355 44.5864 46.6531 44.3622 46.4882 44.1905L44.7339 42.363C44.1368 41.7411 44.1368 40.7301 44.744 40.0976C45.3394 39.4774 46.3133 39.4774 46.9087 40.0976L48.6714 41.9338C48.6748 41.9355 48.673 41.9355 48.673 41.9355L48.6747 41.9372C48.6764 41.9389 48.6764 41.9389 48.6764 41.9389C48.678 41.9407 48.678 41.9407 48.678 41.9407H48.6797C48.6813 41.9407 48.6813 41.9424 48.6813 41.9424C49.011 42.2683 49.5324 42.2613 49.8537 41.9249C50.1816 41.5832 50.1816 41.0278 49.8537 40.6861L49.7814 40.6108C49.4921 40.3095 49.3323 39.9082 49.3323 39.4825C49.3323 39.0567 49.4903 38.6572 49.7898 38.3454C50.3886 37.7251 51.3574 37.7269 51.9276 38.3156L58.225 45.5254C59.4915 46.978 60.1912 48.8598 60.1912 50.8239C60.1912 52.9264 59.4057 54.9027 57.9777 56.3902Z" fill="black"/>
<path d="M6.76151 27.5815L9.74443 24.1421L21.8876 38.1416H1.38574V33.7802L4.36866 30.341" stroke="black" stroke-width="2" stroke-miterlimit="10" stroke-linecap="round" stroke-linejoin="round"/>
<path d="M21.6525 22.4788L25.9319 17.5433L36.5016 29.7267M14.9775 30.1738L19.2569 25.2383" stroke="black" stroke-width="2" stroke-miterlimit="10" stroke-linecap="round" stroke-linejoin="round"/>
<path d="M14.08 17.208C16.3118 17.208 18.1327 15.3115 18.1327 12.9865C18.1327 10.6616 16.3118 8.76495 14.08 8.76495C11.848 8.76495 10.0273 10.6616 10.0273 12.9865C10.0273 15.3115 11.848 17.208 14.08 17.208Z" stroke="black" stroke-width="2" stroke-miterlimit="10" stroke-linecap="round" stroke-linejoin="round"/>
<path d="M36.941 33.8808V6.07032C36.941 3.30889 34.7024 1.07031 31.941 1.07031H6.3059C3.56395 1.07031 1.33352 3.27859 1.30615 6.0204L1.03869 32.8141C1.01093 35.5949 3.25751 37.864 6.03844 37.864H23.0251" stroke="black" stroke-width="2"/>
</g>
<defs>
<clipPath id="clip0_492_17276">
<rect width="62" height="64" fill="black"/>
</clipPath>
</defs>
</svg>
