<svg width="50" height="50" viewBox="0 0 50 50" fill="none" xmlns="http://www.w3.org/2000/svg">
<rect width="50" height="50" rx="4" fill="white"/>
<path fill-rule="evenodd" clip-rule="evenodd" d="M40 35.2857C40 36.2325 39.2538 37 38.3333 37H11.6667C10.7462 37 10 36.2325 10 35.2857C10 34.3389 10.7462 33.5714 11.6667 33.5714H38.3333C39.2538 33.5714 40 34.3389 40 35.2857Z" fill="black"/>
<path fill-rule="evenodd" clip-rule="evenodd" d="M40 24.9996C40 25.9464 38.8807 26.7139 37.5 26.7139L12.5 26.7139C11.1192 26.7139 10 25.9464 10 24.9996C10 24.0527 11.1192 23.2852 12.5 23.2852L37.5 23.2852C38.8807 23.2852 40 24.0527 40 24.9996Z" fill="black"/>
<path fill-rule="evenodd" clip-rule="evenodd" d="M40 14.7144C40 15.6612 39.1605 16.4287 38.125 16.4287L11.875 16.4287C10.8394 16.4287 10 15.6612 10 14.7144C10 13.7676 10.8394 13.0001 11.875 13.0001L38.125 13.0001C39.1605 13.0001 40 13.7676 40 14.7144Z" fill="black"/>
</svg>
