<?xml version="1.0" encoding="UTF-8"?>
<svg width="11px" height="8px" viewBox="0 0 11 8" version="1.1" xmlns="http://www.w3.org/2000/svg" xmlns:xlink="http://www.w3.org/1999/xlink">
    <g id="Icon-button/20px/cart---view-less" stroke="none" stroke-width="1" fill="none" fill-rule="evenodd">
        <path d="M2.17390824,9.83657532 C1.94203059,9.6191864 1.94203059,9.26701599 2.17390824,9.04962707 L7.56542766,4.0012798 L2.17390824,-1.04706747 C1.94203059,-1.26445639 1.94203059,-1.6166268 2.17390824,-1.83401572 C2.28434543,-1.94014073 2.43588259,-2 2.59412961,-2 C2.75237663,-2 2.90391379,-1.94014073 3.01435098,-1.83401572 L8.82609176,3.60780567 C9.05796941,3.82519459 9.05796941,4.177365 8.82609176,4.39475392 L3.01435098,9.83657532 C2.90344118,9.94172667 2.75196353,10.000602 2.59412961,9.99991636 C2.43629569,10.000602 2.28481804,9.94172667 2.17390824,9.83657532 Z" id="Arrowright/12x20/dark" fill="#20A8CE" fill-rule="nonzero" transform="translate(5.5, 4) scale(1, -1) rotate(90) translate(-5.5, -4)"></path>
    </g>
</svg>
