<svg width="35" height="34" viewBox="0 0 35 34" fill="none" xmlns="http://www.w3.org/2000/svg">
<path fill-rule="evenodd" clip-rule="evenodd" d="M17 3.25C9.40608 3.25 3.25 9.40608 3.25 17C3.25 24.5939 9.40608 30.75 17 30.75C24.5939 30.75 30.75 24.5939 30.75 17C30.75 16.3096 31.3096 15.75 32 15.75C32.6904 15.75 33.25 16.3096 33.25 17C33.25 25.9746 25.9746 33.25 17 33.25C8.02537 33.25 0.75 25.9746 0.75 17C0.75 8.02537 8.02537 0.75 17 0.75C19.0069 0.75 20.9316 1.11439 22.7095 1.78172C23.3558 2.02431 23.6831 2.74492 23.4406 3.39125C23.198 4.03758 22.4773 4.36488 21.831 4.12228C20.3297 3.55878 18.7023 3.25 17 3.25Z" fill="#1D892B"/>
<path fill-rule="evenodd" clip-rule="evenodd" d="M34.3112 2.04895C34.8365 2.49696 34.8991 3.28593 34.4511 3.81118L20.2763 20.4298C19.648 21.1664 18.5411 21.2529 17.806 20.6229L11.1865 14.9491C10.6624 14.4998 10.6017 13.7107 11.051 13.1865C11.5002 12.6623 12.2894 12.6016 12.8135 13.0509L18.8621 18.2355L32.549 2.18881C32.997 1.66356 33.786 1.60095 34.3112 2.04895Z" fill="#459C50"/>
</svg>
