<svg width="24" height="19" viewBox="0 0 24 19" fill="none" xmlns="http://www.w3.org/2000/svg">
<path d="M18.8947 3.5V3C18.8947 1.89543 17.9993 1 16.8947 1H3C1.89543 1 1 1.89543 1 3V11.5158C1 12.6244 1.90186 13.5216 3.01053 13.5157L4.50377 13.5079C5.39087 13.5032 6.17504 14.0835 6.42995 14.9332L7.2034 17.5113C7.32346 17.9115 7.85232 17.9967 8.09193 17.6544L10.3992 14.3583C10.7755 13.8208 11.3915 13.502 12.0477 13.5053L16.2105 13.5263" stroke="black" stroke-width="0.9" stroke-linecap="round"/>
<circle cx="19.0928" cy="8.75" r="3.85" stroke="black" stroke-width="0.8"/>
<path d="M17.2051 8.74997H20.9829" stroke="black" stroke-width="0.8" stroke-linecap="round"/>
<path d="M19.0947 10.6388V6.86105" stroke="black" stroke-width="0.8" stroke-linecap="round"/>
<path d="M3.52088 3.961V3.907H6.26588H9.01988V3.961C9.02588 3.973 9.05588 4.33 9.10988 5.032C9.15188 5.704 9.17888 6.061 9.19088 6.103V6.157H8.96588C8.81588 6.157 8.74088 6.154 8.74088 6.148L8.72288 5.932C8.68088 5.416 8.60888 5.059 8.50688 4.861C8.39888 4.651 8.18288 4.513 7.85888 4.447C7.71488 4.423 7.49888 4.411 7.21088 4.411C6.96488 4.417 6.82988 4.435 6.80588 4.465L6.78788 4.483V6.958L6.79688 9.424L6.83288 9.451C6.88688 9.475 7.13888 9.49 7.58888 9.496H8.09288V9.748V10H7.97588L7.06688 9.982C6.53888 9.976 6.01088 9.976 5.48288 9.982L4.57388 10H4.45688V9.748V9.496H4.96088C5.41088 9.49 5.66288 9.475 5.71688 9.451L5.76188 9.424V6.958V4.483L5.74388 4.465C5.71988 4.435 5.60588 4.417 5.40188 4.411H5.33888C5.04488 4.411 4.82888 4.423 4.69088 4.447C4.43288 4.501 4.24088 4.6 4.11488 4.744C3.99488 4.882 3.90788 5.161 3.85388 5.581C3.81788 5.797 3.79988 5.986 3.79988 6.148C3.79988 6.154 3.72488 6.157 3.57488 6.157H3.34988V6.103C3.35588 6.091 3.38588 5.734 3.43988 5.032C3.48188 4.36 3.50888 4.003 3.52088 3.961ZM10.505 8.968C10.6223 8.936 10.7423 8.94933 10.865 9.008C10.9663 9.06133 11.0437 9.13867 11.097 9.24C11.1663 9.39467 11.1663 9.552 11.097 9.712C11.0437 9.81333 10.9663 9.89067 10.865 9.944C10.705 10.0133 10.5477 10.0133 10.393 9.944C10.2917 9.89067 10.2143 9.81333 10.161 9.712C10.0917 9.552 10.0917 9.39467 10.161 9.24C10.225 9.10133 10.3397 9.01067 10.505 8.968ZM12.7316 8.968C12.8489 8.936 12.9689 8.94933 13.0916 9.008C13.1929 9.06133 13.2702 9.13867 13.3236 9.24C13.3929 9.39467 13.3929 9.552 13.3236 9.712C13.2702 9.81333 13.1929 9.89067 13.0916 9.944C12.9316 10.0133 12.7742 10.0133 12.6196 9.944C12.5182 9.89067 12.4409 9.81333 12.3876 9.712C12.3182 9.552 12.3182 9.39467 12.3876 9.24C12.4516 9.10133 12.5662 9.01067 12.7316 8.968Z" fill="black"/>
</svg>
