<?xml version="1.0" encoding="UTF-8"?>
<svg width="16px" height="18px" viewBox="0 0 16 18" version="1.1" xmlns="http://www.w3.org/2000/svg" xmlns:xlink="http://www.w3.org/1999/xlink">
    <title>Icon button/20px/delete1@2x</title>
    <defs>
        <polygon id="path-1" points="0 0 15.7497375 0 15.7497375 17.9998364 0 17.9998364"></polygon>
    </defs>
    <g id="Icon-button/20px/delete1" stroke="none" stroke-width="1" fill="none" fill-rule="evenodd">
        <g id="Delete/21x24/ultradark" transform="translate(-0.000000, 0.000000)">
            <path d="M7.8750875,15.5596909 C8.0562125,15.5596909 8.2032125,15.4230545 8.2032125,15.2545091 L8.2032125,5.18596364 C8.2032125,5.01741818 8.0562125,4.88078182 7.8750875,4.88078182 C7.6939625,4.88078182 7.5469625,5.01741818 7.5469625,5.18596364 L7.5469625,15.2545091 C7.5469625,15.4230545 7.6939625,15.5596909 7.8750875,15.5596909" id="Fill-1" fill-opacity="0.85" fill="#000000"></path>
            <path d="M4.5938375,15.5596909 C4.7749625,15.5596909 4.9219625,15.4230545 4.9219625,15.2545091 L4.9219625,5.18596364 C4.9219625,5.01741818 4.7749625,4.88078182 4.5938375,4.88078182 C4.4127125,4.88078182 4.2657125,5.01741818 4.2657125,5.18596364 L4.2657125,15.2545091 C4.2657125,15.4230545 4.4127125,15.5596909 4.5938375,15.5596909" id="Fill-3" fill-opacity="0.85" fill="#000000"></path>
            <path d="M11.1563375,15.5596909 C11.3374625,15.5596909 11.4844625,15.4230545 11.4844625,15.2545091 L11.4844625,5.18596364 C11.4844625,5.01741818 11.3374625,4.88078182 11.1563375,4.88078182 C10.9752125,4.88078182 10.8282125,5.01741818 10.8282125,5.18596364 L10.8282125,15.2545091 C10.8282125,15.4230545 10.9752125,15.5596909 11.1563375,15.5596909" id="Fill-5" fill-opacity="0.85" fill="#000000"></path>
            <mask id="mask-2" fill="white">
                <use xlink:href="#path-1"></use>
            </mask>
            <g id="Clip-8"></g>
            <path d="M13.4677375,16.4682 C13.4659875,16.5622909 13.4204875,17.3894727 12.5131125,17.3894727 L3.2363625,17.3894727 C2.3394875,17.3894727 2.2861125,16.5606545 2.2817375,16.4616545 L1.6543625,2.44047273 L14.0951125,2.44047273 L13.4677375,16.4682 Z M5.3459875,0.818018182 C5.4929875,0.678109091 5.6758625,0.6102 5.9059875,0.6102 L9.1872375,0.6102 C9.4173625,0.6102 9.6011125,0.678109091 9.7481125,0.818018182 C10.0114875,1.0692 10.1173625,1.51101818 10.1541125,1.83010909 L4.9391125,1.83010909 C4.9758625,1.51101818 5.0826125,1.0692 5.3459875,0.818018182 L5.3459875,0.818018182 Z M15.4216125,1.83010909 L10.8138625,1.83010909 C10.7779875,1.44965455 10.6511125,0.805745455 10.2188625,0.393381818 C9.9449875,0.132381818 9.5984875,-0.000163636364 9.1872375,-0.000163636364 L5.9059875,-0.000163636364 C5.4956125,-0.000163636364 5.1482375,0.132381818 4.8743625,0.393381818 C4.4421125,0.805745455 4.3161125,1.44965455 4.2802375,1.83010909 L0.3278625,1.83010909 C0.1467375,1.83010909 -0.0002625,1.96674545 -0.0002625,2.13529091 C-0.0002625,2.30383636 0.1467375,2.44047273 0.3278625,2.44047273 L0.9981125,2.44047273 L1.6263625,16.4812909 C1.6377375,17.0065636 1.9903625,17.9998364 3.2363625,17.9998364 L12.5131125,17.9998364 C13.7599875,17.9998364 14.1117375,17.0065636 14.1239875,16.4870182 L14.7522375,2.44047273 L15.4216125,2.44047273 C15.6027375,2.44047273 15.7497375,2.30383636 15.7497375,2.13529091 C15.7497375,1.96674545 15.6027375,1.83010909 15.4216125,1.83010909 L15.4216125,1.83010909 Z" id="Fill-7" fill="#000000" mask="url(#mask-2)"></path>
        </g>
    </g>
</svg>