<svg width="47" height="60" viewBox="0 0 47 60" fill="none" xmlns="http://www.w3.org/2000/svg">
<path d="M30.3677 7.16418H1.70148C1.25635 7.16418 0.895508 7.52503 0.895508 7.97015V58.2985C0.895508 58.7436 1.25635 59.1045 1.70148 59.1045H39.4925C39.9376 59.1045 40.2985 58.7436 40.2985 58.2985V18.2173C40.2985 18.0197 40.2259 17.8289 40.0944 17.6813L30.9696 7.43416C30.8167 7.26242 30.5977 7.16418 30.3677 7.16418Z" fill="white"/>
<path fill-rule="evenodd" clip-rule="evenodd" d="M0 7.97017C0 7.03046 0.761784 6.26868 1.70149 6.26868H30.3677C30.8532 6.26868 31.3156 6.47606 31.6384 6.83863L30.972 7.4321L31.6384 6.83863L40.7632 17.0858C41.0407 17.3974 41.194 17.8001 41.194 18.2173V58.2985C41.194 59.2382 40.4322 60 39.4925 60H1.70149C0.761781 60 0 59.2382 0 58.2985V7.97017ZM1.79104 8.05972V58.209H39.403V18.2514L30.3275 8.05972H1.79104Z" fill="#979797"/>
<path d="M7.07452 0.895508H36.1022L45.6715 11.6418V52.0298C45.6715 52.475 45.3107 52.8358 44.8656 52.8358H7.07452C6.6294 52.8358 6.26855 52.475 6.26855 52.0298V1.70148C6.26855 1.25635 6.6294 0.895508 7.07452 0.895508Z" fill="white"/>
<path fill-rule="evenodd" clip-rule="evenodd" d="M5.37305 1.70149C5.37305 0.761784 6.13483 0 7.07454 0H36.5039L46.5671 11.3009V52.0298C46.5671 52.9696 45.8053 53.7313 44.8656 53.7313H7.07454C6.13483 53.7313 5.37305 52.9696 5.37305 52.0298V1.70149ZM7.16409 1.79104V51.9403H44.776V12.5373H36.9082C35.9685 12.5373 35.2067 11.7755 35.2067 10.8358V1.79104H7.16409ZM36.9978 3.24779L43.675 10.7463H36.9978V3.24779Z" fill="#979797"/>
<path fill-rule="evenodd" clip-rule="evenodd" d="M11.7764 17.9105C11.7764 17.4901 12.1172 17.1493 12.5376 17.1493H39.4032C39.8236 17.1493 40.1644 17.4901 40.1644 17.9105C40.1644 18.3309 39.8236 18.6717 39.4032 18.6717H12.5376C12.1172 18.6717 11.7764 18.3309 11.7764 17.9105Z" fill="#969696"/>
<path fill-rule="evenodd" clip-rule="evenodd" d="M11.7764 25.0747C11.7764 24.6543 12.1172 24.3135 12.5376 24.3135H39.4032C39.8236 24.3135 40.1644 24.6543 40.1644 25.0747C40.1644 25.4951 39.8236 25.8359 39.4032 25.8359H12.5376C12.1172 25.8359 11.7764 25.4951 11.7764 25.0747Z" fill="#969696"/>
<path fill-rule="evenodd" clip-rule="evenodd" d="M11.7764 32.2389C11.7764 31.8185 12.1172 31.4777 12.5376 31.4777H39.4032C39.8236 31.4777 40.1644 31.8185 40.1644 32.2389C40.1644 32.6593 39.8236 33 39.4032 33H12.5376C12.1172 33 11.7764 32.6593 11.7764 32.2389Z" fill="#969696"/>
<path fill-rule="evenodd" clip-rule="evenodd" d="M11.7764 38.5075C11.7764 38.0871 12.1172 37.7463 12.5376 37.7463H39.4032C39.8236 37.7463 40.1644 38.0871 40.1644 38.5075C40.1644 38.9279 39.8236 39.2687 39.4032 39.2687H12.5376C12.1172 39.2687 11.7764 38.9279 11.7764 38.5075Z" fill="#969696"/>
<path fill-rule="evenodd" clip-rule="evenodd" d="M11.7764 44.7761C11.7764 44.3557 12.1172 44.0149 12.5376 44.0149H39.4032C39.8236 44.0149 40.1644 44.3557 40.1644 44.7761C40.1644 45.1965 39.8236 45.5373 39.4032 45.5373H12.5376C12.1172 45.5373 11.7764 45.1965 11.7764 44.7761Z" fill="#969696"/>
<path fill-rule="evenodd" clip-rule="evenodd" d="M28.6565 6.71645H13.4326C13.1854 6.71645 12.9849 6.91692 12.9849 7.16421V10.7463C12.9849 10.9936 13.1854 11.1941 13.4326 11.1941H28.6565C28.9038 11.1941 29.1043 10.9936 29.1043 10.7463V7.16421C29.1043 6.91692 28.9038 6.71645 28.6565 6.71645ZM13.4326 5.37317C12.4435 5.37317 11.6416 6.17505 11.6416 7.16421V10.7463C11.6416 11.7355 12.4435 12.5373 13.4326 12.5373H28.6565C29.6457 12.5373 30.4476 11.7355 30.4476 10.7463V7.16421C30.4476 6.17505 29.6457 5.37317 28.6565 5.37317H13.4326Z" fill="#969696"/>
</svg>
