<svg width="26" height="26" viewBox="0 0 26 26" fill="none" xmlns="http://www.w3.org/2000/svg">
<path fill-rule="evenodd" clip-rule="evenodd" d="M13 25C19.6274 25 25 19.6274 25 13C25 6.37258 19.6274 1 13 1C6.37258 1 1 6.37258 1 13C1 19.6274 6.37258 25 13 25ZM13 26C20.1797 26 26 20.1797 26 13C26 5.8203 20.1797 0 13 0C5.8203 0 0 5.8203 0 13C0 20.1797 5.8203 26 13 26Z" fill="#187790"/>
<path fill-rule="evenodd" clip-rule="evenodd" d="M19 13C19 13.5523 18.5523 14 18 14H8C7.44771 14 7 13.5523 7 13C7 12.4477 7.44771 12 8 12H18C18.5523 12 19 12.4477 19 13Z" fill="#187790"/>
</svg>
