<svg width="34" height="33" viewBox="0 0 34 33" fill="none" xmlns="http://www.w3.org/2000/svg">
<path fill-rule="evenodd" clip-rule="evenodd" d="M16.25 2.5C8.65608 2.5 2.5 8.65608 2.5 16.25C2.5 23.8439 8.65608 30 16.25 30C23.8439 30 30 23.8439 30 16.25C30 15.5596 30.5596 15 31.25 15C31.9404 15 32.5 15.5596 32.5 16.25C32.5 25.2246 25.2246 32.5 16.25 32.5C7.27537 32.5 0 25.2246 0 16.25C0 7.27537 7.27537 0 16.25 0C18.2569 0 20.1816 0.364391 21.9595 1.03172C22.6058 1.27431 22.9331 1.99492 22.6906 2.64125C22.448 3.28758 21.7273 3.61488 21.081 3.37228C19.5797 2.80878 17.9523 2.5 16.25 2.5Z" fill="#1D892B"/>
<path fill-rule="evenodd" clip-rule="evenodd" d="M33.5612 1.29896C34.0865 1.74696 34.1491 2.53594 33.7011 3.06118L19.5263 19.6798C18.898 20.4165 17.7911 20.503 17.056 19.8729L10.4365 14.1991C9.91238 13.7498 9.85167 12.9607 10.301 12.4365C10.7502 11.9124 11.5394 11.8517 12.0635 12.3009L18.1121 17.4855L31.799 1.43882C32.247 0.913572 33.036 0.850955 33.5612 1.29896Z" fill="#459C50"/>
</svg>
