<?xml version="1.0" encoding="UTF-8"?>
<svg width="19px" height="19px" viewBox="0 0 19 19" version="1.1" xmlns="http://www.w3.org/2000/svg" xmlns:xlink="http://www.w3.org/1999/xlink">
    <title>Icon button/20px/link1</title>
    <g id="Icon-button/20px/link1" stroke="none" stroke-width="1" fill="none" fill-rule="evenodd">
        <g id="link-(2)" transform="translate(0.000000, -0.000000)" fill="#000000" fill-rule="nonzero">
            <path d="M7.46201279,13.7193479 L5.34100799,15.8403527 C4.46168273,16.7196779 3.03768346,16.7196779 2.15909648,15.8405285 C1.28033372,14.9617657 1.28033372,13.5376258 2.1589207,12.6590388 L6.40166859,8.41629093 C7.28025557,7.5376688 8.70439546,7.5376688 9.58298244,8.41629093 C9.87586821,8.7091767 10.3507573,8.7091767 10.643643,8.41629093 C10.9365288,8.12340517 10.9365288,7.64851609 10.643643,7.35563033 C9.17924938,5.89123666 6.80540165,5.89123666 5.34100799,7.35563033 L1.09829525,11.5983431 C-0.366098416,13.0627367 -0.366098416,15.4365845 1.09829525,16.9009781 C2.56251313,18.3661452 4.93653665,18.3661452 6.40170375,16.9009781 L8.52270855,14.7799733 C8.81559432,14.4870876 8.81559432,14.0121985 8.52270855,13.7193127 C8.22982279,13.4264269 7.75489856,13.4264621 7.46201279,13.7193479 Z" id="Path"></path>
            <path d="M16.9011188,1.09829525 C15.4367251,-0.366098416 13.0621039,-0.366098416 11.5977103,1.09829525 L9.05296855,3.64303696 C8.76008278,3.93592272 8.76008278,4.4108118 9.05296855,4.70369756 C9.34585431,4.99658333 9.82074339,4.99658333 10.1136292,4.70369756 L12.6583709,2.15895586 C13.5369578,1.28033372 14.961836,1.28033372 15.8404581,2.15895586 C16.7190451,3.03754284 16.7190451,4.46168273 15.8404581,5.34026971 L11.1739734,10.0067897 C10.2953512,10.8854118 8.87124648,10.8854118 7.9926595,10.0067897 C7.69977374,9.71390389 7.22488466,9.71390389 6.93199889,10.0067897 C6.63911313,10.2996754 6.63911313,10.7745645 6.93199889,11.0674503 C8.39639256,12.5318439 10.7702403,12.5318439 12.234634,11.0674503 L16.9011188,6.40096547 C18.3655124,4.9365718 18.3655124,2.56268891 16.9011188,1.09829525 Z" id="Path"></path>
        </g>
    </g>
</svg>