<svg width="6" height="24" viewBox="0 0 6 24" fill="none" xmlns="http://www.w3.org/2000/svg">
<path d="M5.14286 2.57143C5.14286 3.99159 3.99159 5.14286 2.57143 5.14286C1.15127 5.14286 0 3.99159 0 2.57143C0 1.15127 1.15127 0 2.57143 0C3.99159 0 5.14286 1.15127 5.14286 2.57143Z" fill="black"/>
<path d="M5.14286 12.0011C5.14286 13.4213 3.99159 14.5725 2.57143 14.5725C1.15127 14.5725 0 13.4213 0 12.0011C0 10.581 1.15127 9.42969 2.57143 9.42969C3.99159 9.42969 5.14286 10.581 5.14286 12.0011Z" fill="black"/>
<path d="M5.14286 21.4289C5.14286 22.849 3.99159 24.0003 2.57143 24.0003C1.15127 24.0003 0 22.849 0 21.4289C0 20.0087 1.15127 18.8574 2.57143 18.8574C3.99159 18.8574 5.14286 20.0087 5.14286 21.4289Z" fill="black"/>
</svg>
