<svg width="22" height="22" viewBox="0 0 22 22" fill="none" xmlns="http://www.w3.org/2000/svg">
<circle cx="11" cy="11" r="10.5" stroke="black"/>
<path d="M6.75 10.125C6.33578 10.125 6 10.4608 6 10.875C6 11.2892 6.33578 11.625 6.75 11.625H10.125V15C10.125 15.4142 10.4608 15.75 10.875 15.75C11.2892 15.75 11.625 15.4142 11.625 15V11.625H15C15.4142 11.625 15.75 11.2892 15.75 10.875C15.75 10.4608 15.4142 10.125 15 10.125H11.625V6.75C11.625 6.33579 11.2892 6 10.875 6C10.4608 6 10.125 6.33579 10.125 6.75V10.125H6.75Z" fill="black"/>
</svg>
