<?xml version="1.0" encoding="UTF-8"?>
<svg width="20px" height="20px" viewBox="0 0 20 20" version="1.1" xmlns="http://www.w3.org/2000/svg" xmlns:xlink="http://www.w3.org/1999/xlink">
    <!-- Generator: Sketch 57.1 (83088) - https://sketch.com -->
    <title>upload 20x20</title>
    <desc>Created with Sketch.</desc>
    <g id="Symbols" stroke="none" stroke-width="1" fill="none" fill-rule="evenodd">
        <g id="upload-20x20" fill="#000000" fill-rule="nonzero">
            <g id="Shape">
                <path d="M18.92706,14.05878 C18.9210961,13.7621924 19.1566924,13.5169254 19.45328,13.51096 L19.45976,13.51087 C19.7599337,13.5126102 20.0018637,13.7573563 20.0001581,14.05753 L20.0001581,19.4442 C20.0031504,19.7464041 19.7619293,19.9945131 19.45976,20 L0.53283,20 C0.232454596,19.9938227 -0.00604170125,19.7453155 1.28707104e-05,19.44494 L1.28707104e-05,19.4442 L1.28707104e-05,14.05878 C-0.00583388932,13.7621924 0.229762382,13.5169254 0.52635,13.51096 L0.53283,13.51087 C0.833007592,13.5126047 1.07494366,13.7573524 1.07321,14.05753 L1.07321,18.89629 L18.92706,18.89629 L18.92706,14.05878 Z M4.84856799,5.06670421 C4.63567787,5.28415994 4.63567787,5.63190847 4.84856799,5.84936421 C4.94133538,5.94925274 5.06998385,6.00819837 5.20621217,6.01323372 C5.34244049,6.01826908 5.47508953,5.96898168 5.57497799,5.87621421 L5.60182799,5.84936421 L9.46018799,1.88825421 L9.46018799,14.9764542 C9.45702924,15.1207043 9.51130574,15.2603006 9.61107621,15.3645307 C9.71084669,15.4687609 9.84793765,15.529086 9.99218799,15.5322342 L9.99293799,15.5322342 C10.2951073,15.5267473 10.5363284,15.2786383 10.533308,14.9764342 L10.533308,1.88825421 L14.383998,5.84936421 C14.5820536,6.05949036 14.9129496,6.06927738 15.123078,5.87122421 L15.144938,5.84936421 C15.3578175,5.63190412 15.3578175,5.28416429 15.144938,5.06670421 L10.373168,0.158704205 C10.2732401,0.0577965621 10.1373194,0.000718376468 9.99530722,2e-05 C9.85329505,-0.000665644356 9.71682452,0.0550852072 9.61591799,0.155014205 L9.61222799,0.158704205 L4.84856799,5.06670421 Z"></path>
            </g>
        </g>
    </g>
</svg>
