<svg width="40" height="40" viewBox="0 0 40 40" fill="none" xmlns="http://www.w3.org/2000/svg">
<circle cx="20" cy="20" r="20" fill="#187790"/>
<path d="M7 10.6479H12.5333C12.7594 10.6479 12.9573 10.7996 13.0161 11.0179L14.5094 16.5642M14.5094 16.5642L16.9705 27.5595C17.0217 27.7879 17.2244 27.9503 17.4585 27.9503H23.862H30.2315C30.4807 27.9503 30.6918 27.7668 30.7266 27.5202L32 18.5M14.5094 16.5642H20.5" stroke="white" stroke-width="0.8"/>
<path d="M33.3681 14.4297C33.3681 18.036 30.4445 20.9594 26.8381 20.9594C23.2317 20.9594 20.3082 18.036 20.3082 14.4297C20.3082 10.8235 23.2317 7.9 26.8381 7.9C30.4445 7.9 33.3681 10.8235 33.3681 14.4297Z" stroke="white" stroke-width="0.8"/>
<path d="M23.7588 14.4296H29.9187" stroke="white" stroke-width="0.8" stroke-linecap="round"/>
<path d="M26.8398 17.5095V11.3498" stroke="white" stroke-width="0.8" stroke-linecap="round"/>
<ellipse cx="20.6071" cy="30.3167" rx="1.1833" ry="1.18326" fill="white"/>
<ellipse cx="20.6071" cy="30.3167" rx="1.1833" ry="1.18326" fill="white"/>
<ellipse cx="20.6071" cy="30.3167" rx="1.1833" ry="1.18326" fill="white"/>
<ellipse cx="27.7077" cy="30.3167" rx="1.1833" ry="1.18326" fill="white"/>
<ellipse cx="27.7077" cy="30.3167" rx="1.1833" ry="1.18326" fill="white"/>
<ellipse cx="27.7077" cy="30.3167" rx="1.1833" ry="1.18326" fill="white"/>
<path d="M7 10.6479H12.5333C12.7594 10.6479 12.9573 10.7996 13.0161 11.0179L14.5094 16.5642M14.5094 16.5642L16.9705 27.5595C17.0217 27.7879 17.2244 27.9503 17.4585 27.9503H23.862H30.2315C30.4807 27.9503 30.6918 27.7668 30.7266 27.5202L32 18.5M14.5094 16.5642H20.5" stroke="white" stroke-width="0.8"/>
<path d="M33.3681 14.4297C33.3681 18.036 30.4445 20.9594 26.8381 20.9594C23.2317 20.9594 20.3082 18.036 20.3082 14.4297C20.3082 10.8235 23.2317 7.9 26.8381 7.9C30.4445 7.9 33.3681 10.8235 33.3681 14.4297Z" stroke="white" stroke-width="0.8"/>
<path d="M23.7588 14.4296H29.9187" stroke="white" stroke-width="0.8" stroke-linecap="round"/>
<path d="M26.8398 17.5095V11.3498" stroke="white" stroke-width="0.8" stroke-linecap="round"/>
<ellipse cx="20.6071" cy="30.1335" rx="1.1833" ry="1.18326" fill="white"/>
<ellipse cx="20.6071" cy="30.1335" rx="1.1833" ry="1.18326" fill="white"/>
<ellipse cx="20.6071" cy="30.1335" rx="1.1833" ry="1.18326" fill="white"/>
<ellipse cx="27.7077" cy="30.1335" rx="1.1833" ry="1.18326" fill="white"/>
<ellipse cx="27.7077" cy="30.1335" rx="1.1833" ry="1.18326" fill="white"/>
<ellipse cx="27.7077" cy="30.1335" rx="1.1833" ry="1.18326" fill="white"/>
</svg>
