<svg width="39" height="34" viewBox="0 0 39 34" fill="none" xmlns="http://www.w3.org/2000/svg">
<path d="M17.7743 1.94644C18.5469 0.627515 20.4534 0.627512 21.2259 1.94644L38.2366 30.9892C39.0176 32.3225 38.056 34 36.5109 34H2.48935C0.94419 34 -0.0173448 32.3225 0.763585 30.9892L17.7743 1.94644Z" fill="#FF625A"/>
<path d="M18.2764 23.7471L17.8789 13.166H21.0908L20.6934 23.7471H18.2764ZM19.501 29.1826C18.9925 29.1826 18.5592 29.0036 18.2012 28.6455C17.8431 28.2874 17.6641 27.8506 17.6641 27.335C17.6641 26.8193 17.8431 26.3825 18.2012 26.0244C18.5592 25.6663 18.9925 25.4873 19.501 25.4873C20.0238 25.4873 20.4606 25.6663 20.8115 26.0244C21.1696 26.3825 21.3486 26.8193 21.3486 27.335C21.3486 27.8506 21.1696 28.2874 20.8115 28.6455C20.4606 29.0036 20.0238 29.1826 19.501 29.1826Z" fill="white"/>
</svg>
