<?xml version="1.0" encoding="UTF-8"?>
<svg width="14px" height="16px" viewBox="0 0 14 16" version="1.1" xmlns="http://www.w3.org/2000/svg" xmlns:xlink="http://www.w3.org/1999/xlink">
    <title>Icon button/16px/exported list</title>
    <g id="Icon-button/16px/exported-list" stroke="none" stroke-width="1" fill="none" fill-rule="evenodd">
        <g id="file-(7)" transform="translate(0, 0)" fill="#000000" fill-rule="nonzero">
            <path d="M13.6103516,3.34472656 L10.3415528,0.134277344 C10.2539063,0.0482177812 10.1359863,0 10.0130615,0 L1.74902344,0 C0.784667969,0 0,0.784545906 0,1.74902344 L0,14.2509766 C0,15.215332 0.784545906,16 1.74902344,16 L12.0015869,16 C12.9659424,16 13.7506103,15.2154541 13.7506103,14.2509766 L13.7506103,3.67919922 C13.7506103,3.55334472 13.7000732,3.43286131 13.6103516,3.34472656 Z M10.4818115,1.58618163 L12.1356201,3.21044922 L10.6308594,3.21044922 C10.5487061,3.21044922 10.4818115,3.14355469 10.4818115,3.06140137 L10.4818115,1.58618163 Z M12.0015869,15.0625 L1.74902344,15.0625 C1.30163575,15.0625 0.9375,14.6984863 0.9375,14.2509766 L0.9375,1.74902344 C0.9375,1.30151369 1.30151369,0.9375 1.74902344,0.9375 L9.54443359,0.9375 L9.54443359,3.06140137 C9.54443359,3.66052247 10.0318603,4.14794922 10.6309814,4.14794922 L12.8131103,4.14794922 L12.8131103,14.2509766 C12.8131103,14.6984863 12.4490967,15.0625 12.0015869,15.0625 Z" id="Shape"></path>
            <path d="M10.1295166,7.4375 L3.52160644,7.4375 C3.26269531,7.4375 3.05285644,7.64733887 3.05285644,7.90625 C3.05285644,8.16516113 3.26269531,8.375 3.52160644,8.375 L10.1295166,8.375 C10.3884278,8.375 10.5982666,8.16516112 10.5982666,7.90625 C10.5982666,7.64733888 10.3884278,7.4375 10.1295166,7.4375 Z" id="Path"></path>
            <path d="M3.52160644,10.25 L8.90954591,10.25 C9.16845703,10.25 9.37829591,10.0401611 9.37829591,9.78125 C9.37829591,9.52233887 9.16845703,9.3125 8.90954591,9.3125 L3.52160644,9.3125 C3.26269531,9.3125 3.05285644,9.52233887 3.05285644,9.78125 C3.05285644,10.0401611 3.26269531,10.25 3.52160644,10.25 Z" id="Path"></path>
            <path d="M9.55957031,11.1875 L3.52160644,11.1875 C3.26269531,11.1875 3.05285644,11.3973389 3.05285644,11.65625 C3.05285644,11.9151611 3.26269531,12.125 3.52160644,12.125 L9.55957031,12.125 C9.81835938,12.125 10.0283203,11.9151611 10.0283203,11.65625 C10.0283203,11.3973389 9.81835938,11.1875 9.55957031,11.1875 Z" id="Path"></path>
        </g>
    </g>
</svg>