<?xml version="1.0" encoding="UTF-8"?>
<svg width="19px" height="17px" viewBox="0 0 19 17" version="1.1" xmlns="http://www.w3.org/2000/svg" xmlns:xlink="http://www.w3.org/1999/xlink">
    <title>Icon button/20px/gallery - image duc</title>
    <g id="Icon-button/20px/gallery---image-duc" stroke="none" stroke-width="1" fill="none" fill-rule="evenodd">
        <g id="Group-16" fill="#484848" fill-rule="nonzero">
            <g id="gallery-(2)">
                <path d="M9.78300936,6.00025248 C8.69472173,6.00025248 7.81244406,6.88605117 7.81244406,7.97878267 C7.81244406,9.07146909 8.69467683,9.95731286 9.78300936,9.95731286 C10.871297,9.95731286 11.7535747,9.07151417 11.7535747,7.97878267 C11.7535747,6.88605117 10.8713419,6.00025248 9.78300936,6.00025248 Z M9.78300936,9.01511484 C9.21293469,9.01511484 8.75080422,8.55111646 8.75080422,7.97873759 C8.75080422,7.40635871 9.21293469,6.94236034 9.78300936,6.94236034 L9.78300936,6.94236034 C10.353084,6.94236034 10.8152145,7.40635871 10.8152145,7.97873759 C10.8152145,8.55111646 10.353084,9.01511484 9.78300936,9.01511484 Z" id="Shape"></path>
                <path d="M17.6417869,1.47789132 L4.83320222,0.0175948428 C4.33609315,-0.0533664322 3.83242841,0.0923431237 3.44914569,0.418025621 C3.06590787,0.716387577 2.82024951,1.15865575 2.76883683,1.64280641 L2.53426924,3.57422444 L1.80699297,3.57422444 C0.774787827,3.57422444 0.000633966295,4.49279876 0.000633966295,5.52917601 L0.000633966295,15.1626425 C-0.0253642406,16.1509157 0.751483735,16.9732821 1.73582344,16.9993854 C1.75953165,17 1.78328476,17 1.80699297,17 L14.6859389,17 C15.7181441,17 16.6565042,16.1990197 16.6565042,15.1626425 L16.6565042,14.7857903 C16.9765201,14.7237105 17.280102,14.595358 17.5479419,14.4089382 C17.9280365,14.0876288 18.1714049,13.632602 18.2282507,13.1370452 L19.3073784,3.57422444 C19.4173881,2.53545777 18.6749349,1.6010141 17.6417869,1.47789132 Z M15.718189,15.1626425 C15.718189,15.6808311 15.2020415,16.0576833 14.6859389,16.0576833 L1.80699297,16.0576833 C1.34077642,16.0714337 0.951746261,15.7031023 0.938051178,15.2350013 C0.937332747,15.2108817 0.937676345,15.1867621 0.938994118,15.1626425 L0.938994118,13.4196731 L4.57515093,10.7345507 C5.01195673,10.3978228 5.62720272,10.4277582 6.02961366,10.8051964 L8.58664283,13.0663544 C8.97495456,13.393705 9.46375677,13.5766986 9.97074426,13.5845431 C10.3671383,13.5894121 10.7570216,13.483421 11.0967944,13.2783366 L15.718189,10.5932142 L15.718189,15.1626425 L15.718189,15.1626425 Z M15.7181441,9.48619131 L10.6040857,12.4775201 C10.164945,12.7387334 9.60910426,12.6914409 9.21998429,12.3597623 L6.63951632,10.0750256 C5.89993694,9.43696023 4.81896831,9.39782784 4.03556466,9.98080131 L0.938994118,12.2419594 L0.938994118,5.52917601 C0.938994118,5.01098739 1.2908904,4.51637738 1.80699297,4.51637738 L14.6859389,4.51637738 C15.2373344,4.53932483 15.6826266,4.97627317 15.7181441,5.52917601 L15.7181441,9.48619131 L15.7181441,9.48619131 Z M18.3699163,3.44704417 C18.3696019,3.45015492 18.3693325,3.45331076 18.3689733,3.45642151 L17.2664069,13.0192423 C17.2682928,13.267201 17.1556788,13.5020404 16.9614331,13.6551888 C16.8675881,13.7494131 16.6564593,13.7965252 16.6564593,13.8436374 L16.6564593,5.52917601 C16.6194152,4.45614596 15.7549636,3.5985244 14.685894,3.57422444 L3.47258449,3.57422444 L3.68371328,1.73703072 C3.72951323,1.49912561 3.8533976,1.28353678 4.03560956,1.12461778 C4.24135012,0.981793566 4.49010671,0.915205381 4.73940213,0.936169163 L17.524548,2.42004426 C18.0403811,2.46923025 18.4189042,2.92903587 18.3699163,3.44704417 Z" id="Shape"></path>
            </g>
        </g>
    </g>
</svg>