<svg width="24" height="21" viewBox="0 0 24 21" fill="none" xmlns="http://www.w3.org/2000/svg">
<path fill-rule="evenodd" clip-rule="evenodd" d="M8.19843 15.3969C12.174 15.3969 15.3969 12.174 15.3969 8.19843C15.3969 4.22285 12.174 1 8.19843 1C4.22285 1 1 4.22285 1 8.19843C1 12.174 4.22285 15.3969 8.19843 15.3969ZM8.19843 16.3969C12.7263 16.3969 16.3969 12.7263 16.3969 8.19843C16.3969 3.67056 12.7263 0 8.19843 0C3.67056 0 0 3.67056 0 8.19843C0 12.7263 3.67056 16.3969 8.19843 16.3969Z" fill="white"/>
<path fill-rule="evenodd" clip-rule="evenodd" d="M22.3466 20.3902L13.8152 13.5559L14.4404 12.7755L22.9718 19.6098C23.1873 19.7824 23.2221 20.0971 23.0494 20.3126C22.8768 20.5281 22.5621 20.5629 22.3466 20.3902Z" fill="white"/>
</svg>
