<svg width="24" height="18" viewBox="0 0 24 18" fill="none" xmlns="http://www.w3.org/2000/svg">
<path fill-rule="evenodd" clip-rule="evenodd" d="M0.25 1C0.25 0.585786 0.585786 0.25 1 0.25H23C23.4142 0.25 23.75 0.585786 23.75 1C23.75 1.41421 23.4142 1.75 23 1.75H1C0.585786 1.75 0.25 1.41421 0.25 1Z" fill="black"/>
<path fill-rule="evenodd" clip-rule="evenodd" d="M0.25 9C0.25 8.58579 0.585786 8.25 1 8.25H23C23.4142 8.25 23.75 8.58579 23.75 9C23.75 9.41421 23.4142 9.75 23 9.75H1C0.585786 9.75 0.25 9.41421 0.25 9Z" fill="black"/>
<path fill-rule="evenodd" clip-rule="evenodd" d="M0.25 17C0.25 16.5858 0.585786 16.25 1 16.25H23C23.4142 16.25 23.75 16.5858 23.75 17C23.75 17.4142 23.4142 17.75 23 17.75H1C0.585786 17.75 0.25 17.4142 0.25 17Z" fill="black"/>
</svg>
