<svg width="20" height="24" viewBox="0 0 20 24" fill="none" xmlns="http://www.w3.org/2000/svg">
<path fill-rule="evenodd" clip-rule="evenodd" d="M0 1.28926C0 0.57722 0.57722 0 1.28926 0H17.157C17.8691 0 18.4463 0.577219 18.4463 1.28926V14.1818H17.4545V1.28926C17.4545 1.12494 17.3213 0.991736 17.157 0.991736H1.28926C1.12494 0.991736 0.991736 1.12494 0.991736 1.28926V22.7107C0.991736 22.8751 1.12494 23.0083 1.28926 23.0083H13.3884V24H1.28926C0.577219 24 0 23.4228 0 22.7107V1.28926Z" fill="black"/>
<path fill-rule="evenodd" clip-rule="evenodd" d="M2.77734 4.06612C2.77734 3.79226 2.99935 3.57025 3.27321 3.57025H15.174C15.4479 3.57025 15.6699 3.79226 15.6699 4.06612C15.6699 4.33998 15.4479 4.56199 15.174 4.56199H3.27321C2.99935 4.56199 2.77734 4.33998 2.77734 4.06612Z" fill="black"/>
<path fill-rule="evenodd" clip-rule="evenodd" d="M2.77734 7.63637C2.77734 7.36251 2.99935 7.1405 3.27321 7.1405H15.174C15.4479 7.1405 15.6699 7.36251 15.6699 7.63637C15.6699 7.91023 15.4479 8.13224 15.174 8.13224H3.27321C2.99935 8.13224 2.77734 7.91023 2.77734 7.63637Z" fill="black"/>
<path fill-rule="evenodd" clip-rule="evenodd" d="M2.77734 10.8099C2.77734 10.536 2.99935 10.314 3.27321 10.314H9.22362C9.49749 10.314 9.71949 10.536 9.71949 10.8099C9.71949 11.0838 9.49749 11.3058 9.22362 11.3058H3.27321C2.99935 11.3058 2.77734 11.0838 2.77734 10.8099Z" fill="black"/>
<path fill-rule="evenodd" clip-rule="evenodd" d="M13.1685 20.0904C14.581 20.0904 15.7261 18.9453 15.7261 17.5328C15.7261 16.1203 14.581 14.9752 13.1685 14.9752C11.756 14.9752 10.6109 16.1203 10.6109 17.5328C10.6109 18.9453 11.756 20.0904 13.1685 20.0904ZM13.1685 21.0821C15.1287 21.0821 16.7178 19.4931 16.7178 17.5328C16.7178 15.5726 15.1287 13.9835 13.1685 13.9835C11.2082 13.9835 9.61914 15.5726 9.61914 17.5328C9.61914 19.4931 11.2082 21.0821 13.1685 21.0821Z" fill="black" fill-opacity="0.85"/>
<path fill-rule="evenodd" clip-rule="evenodd" d="M18.9335 22.226C18.7631 22.4403 18.4511 22.4759 18.2368 22.3055L15.4274 20.0715L16.0447 19.2952L18.854 21.5292C19.0684 21.6997 19.104 22.0116 18.9335 22.226Z" fill="black" fill-opacity="0.85"/>
</svg>
