<svg width="33" height="52" viewBox="0 0 33 52" fill="none" xmlns="http://www.w3.org/2000/svg">
<path d="M21.633 21.6973L21.5279 16.1222C21.5038 14.769 20.9689 13.4811 20.0407 12.5421C19.1124 11.603 17.867 11.0896 16.5783 11.1149C15.2896 11.1401 14.0632 11.7018 13.1689 12.6765C12.2747 13.6513 11.7858 14.9591 11.8098 16.3123L11.9353 23.7395C11.9471 24.4105 12.0846 25.0725 12.3401 25.6876C12.5955 26.3027 12.9639 26.859 13.4241 27.3246C13.8843 27.7902 14.4274 28.156 15.0223 28.4012C15.6172 28.6463 16.2523 28.766 16.8913 28.7533C17.1249 28.748 17.347 28.6458 17.5092 28.4691C17.6713 28.2924 17.7603 28.0555 17.7566 27.8101C17.7515 27.5648 17.6543 27.3315 17.486 27.1613C17.3177 26.991 17.0921 26.8976 16.8584 26.9015C16.447 26.9127 16.0376 26.8379 15.654 26.6814C15.2704 26.525 14.9202 26.29 14.6238 25.9902C14.3274 25.6904 14.0908 25.3317 13.9276 24.9349C13.7644 24.5382 13.678 24.1114 13.6734 23.6793L13.604 16.2444C13.5862 15.5964 13.7532 14.9576 14.0837 14.4101C14.4142 13.8626 14.893 13.4313 15.4586 13.1717C16.0243 12.912 16.6509 12.8359 17.2581 12.953C17.8653 13.0702 18.4252 13.3753 18.866 13.8291C19.1599 14.1209 19.3961 14.4709 19.5608 14.8589C19.7255 15.2468 19.8155 15.6652 19.8257 16.0898L19.9245 21.6585C19.9262 21.7811 19.951 21.9021 19.9975 22.0146C20.044 22.1271 20.1112 22.2288 20.1953 22.3139C20.2794 22.399 20.3787 22.4657 20.4875 22.5103C20.5962 22.5548 20.7123 22.5764 20.8291 22.5736C21.0411 22.5535 21.2391 22.4539 21.3867 22.2929C21.5344 22.132 21.6218 21.9205 21.633 21.6973ZM16.7925 23.1847C16.6708 23.1772 16.5489 23.1962 16.4345 23.2405C16.3201 23.2848 16.2157 23.3534 16.1278 23.4421C16.0399 23.5308 15.9704 23.6376 15.9237 23.7559C15.877 23.8741 15.854 24.0012 15.8563 24.1292C15.8585 24.2572 15.886 24.3833 15.9369 24.4997C15.9878 24.616 16.061 24.72 16.152 24.8052C16.243 24.8904 16.3498 24.9549 16.4656 24.9947C16.5815 25.0345 16.704 25.0488 16.8253 25.0365C17.6456 25.0229 18.4378 25.3507 19.0286 25.9484C19.6194 26.5462 19.9609 27.3652 19.9785 28.2265L20.1104 35.6601C20.1283 36.3081 19.9612 36.9469 19.6307 37.4944C19.3003 38.042 18.8214 38.4732 18.2558 38.7329C17.6901 38.9925 17.0635 39.0686 16.4563 38.9515C15.8492 38.8343 15.2892 38.5292 14.8484 38.0754C14.2775 37.4749 13.9551 36.6621 13.9512 35.8135L13.8524 30.2448C13.8507 30.1222 13.8259 30.0012 13.7795 29.8887C13.733 29.7762 13.6658 29.6745 13.5817 29.5894C13.4976 29.5043 13.3983 29.4376 13.2895 29.393C13.1807 29.3485 13.0646 29.3269 12.9479 29.3297C12.7142 29.335 12.4921 29.4372 12.33 29.6139C12.1678 29.7906 12.0789 30.0275 12.0825 30.2729L12.1559 35.8158C12.1799 37.169 12.7149 38.4568 13.6431 39.3959C14.5713 40.3349 15.8168 40.8483 17.1055 40.8231C18.3941 40.7979 19.6205 40.2361 20.5148 39.2614C21.409 38.2867 21.898 36.9789 21.8739 35.6256L21.7484 28.1984C21.7366 27.5275 21.5991 26.8655 21.3437 26.2504C21.0882 25.6352 20.7198 25.079 20.2596 24.6134C19.7994 24.1478 19.2563 23.7819 18.6614 23.5368C18.0665 23.2917 17.4314 23.172 16.7925 23.1847Z" fill="#484848"/>
<path d="M21.633 21.6973L21.5279 16.1222C21.5038 14.769 20.9689 13.4811 20.0407 12.5421C19.1124 11.603 17.867 11.0896 16.5783 11.1149C15.2896 11.1401 14.0632 11.7018 13.1689 12.6765C12.2747 13.6513 11.7858 14.9591 11.8098 16.3123L11.9353 23.7395C11.9471 24.4105 12.0846 25.0725 12.3401 25.6876C12.5955 26.3027 12.9639 26.859 13.4241 27.3246C13.8843 27.7902 14.4274 28.156 15.0223 28.4012C15.6172 28.6463 16.2523 28.766 16.8913 28.7533C17.1249 28.748 17.347 28.6458 17.5092 28.4691C17.6713 28.2924 17.7603 28.0555 17.7566 27.8101C17.7515 27.5648 17.6543 27.3315 17.486 27.1613C17.3177 26.991 17.0921 26.8976 16.8584 26.9015C16.447 26.9127 16.0376 26.8379 15.654 26.6814C15.2704 26.525 14.9202 26.29 14.6238 25.9902C14.3274 25.6904 14.0908 25.3317 13.9276 24.9349C13.7644 24.5382 13.678 24.1114 13.6734 23.6793L13.604 16.2444C13.5862 15.5964 13.7532 14.9576 14.0837 14.4101C14.4142 13.8626 14.893 13.4313 15.4586 13.1717C16.0243 12.912 16.6509 12.8359 17.2581 12.953C17.8653 13.0702 18.4252 13.3753 18.866 13.8291C19.1599 14.1209 19.3961 14.4709 19.5608 14.8589C19.7255 15.2468 19.8155 15.6652 19.8257 16.0898L19.9245 21.6585C19.9262 21.7811 19.951 21.9021 19.9975 22.0146C20.044 22.1271 20.1112 22.2288 20.1953 22.3139C20.2794 22.399 20.3787 22.4657 20.4875 22.5103C20.5962 22.5548 20.7123 22.5764 20.8291 22.5736C21.0411 22.5535 21.2391 22.4539 21.3867 22.2929C21.5344 22.132 21.6218 21.9205 21.633 21.6973ZM16.7925 23.1847C16.6708 23.1772 16.5489 23.1962 16.4345 23.2405C16.3201 23.2848 16.2157 23.3534 16.1278 23.4421C16.0399 23.5308 15.9704 23.6376 15.9237 23.7559C15.877 23.8741 15.854 24.0012 15.8563 24.1292C15.8585 24.2572 15.886 24.3833 15.9369 24.4997C15.9878 24.616 16.061 24.72 16.152 24.8052C16.243 24.8904 16.3498 24.9549 16.4656 24.9947C16.5815 25.0345 16.704 25.0488 16.8253 25.0365C17.6456 25.0229 18.4378 25.3507 19.0286 25.9484C19.6194 26.5462 19.9609 27.3652 19.9785 28.2265L20.1104 35.6601C20.1283 36.3081 19.9612 36.9469 19.6307 37.4944C19.3003 38.042 18.8214 38.4732 18.2558 38.7329C17.6901 38.9925 17.0635 39.0686 16.4563 38.9515C15.8492 38.8343 15.2892 38.5292 14.8484 38.0754C14.2775 37.4749 13.9551 36.6621 13.9512 35.8135L13.8524 30.2448C13.8507 30.1222 13.8259 30.0012 13.7795 29.8887C13.733 29.7762 13.6658 29.6745 13.5817 29.5894C13.4976 29.5043 13.3983 29.4376 13.2895 29.393C13.1807 29.3485 13.0646 29.3269 12.9479 29.3297C12.7142 29.335 12.4921 29.4372 12.33 29.6139C12.1678 29.7906 12.0789 30.0275 12.0825 30.2729L12.1559 35.8158C12.1799 37.169 12.7149 38.4568 13.6431 39.3959C14.5713 40.3349 15.8168 40.8483 17.1055 40.8231C18.3941 40.7979 19.6205 40.2361 20.5148 39.2614C21.409 38.2867 21.898 36.9789 21.8739 35.6256L21.7484 28.1984C21.7366 27.5275 21.5991 26.8655 21.3437 26.2504C21.0882 25.6352 20.7198 25.079 20.2596 24.6134C19.7994 24.1478 19.2563 23.7819 18.6614 23.5368C18.0665 23.2917 17.4314 23.172 16.7925 23.1847Z" fill="#484848"/>
<path d="M16.5053 40.2264C16.5053 40.4528 16.5053 40.7343 16.5053 40.7343V45.2299C16.5053 46.6662 15.9496 48.0439 14.9606 49.0596C13.9715 50.0753 12.63 50.646 11.2313 50.646H9.91276C9.73792 50.646 9.57024 50.7173 9.4466 50.8443C9.32297 50.9712 9.25351 51.1434 9.25351 51.323C9.25351 51.5025 9.32297 51.6747 9.4466 51.8017C9.57024 51.9287 9.73792 52 9.91276 52H11.2313C12.9797 52 14.6565 51.2867 15.8929 50.0171C17.1292 48.7475 17.8238 47.0253 17.8238 45.2299C17.8238 45.2299 17.8242 40.4528 17.8242 40.2264C17.8242 40 17.3763 39.9998 17.1647 40C16.9532 40.0002 16.5053 40 16.5053 40.2264Z" fill="#484848"/>
<path d="M16.5182 11.9818C16.5217 11.7554 16.5261 11.4739 16.5261 11.4739L16.5955 6.97899C16.6177 5.54279 16.0873 4.15587 15.121 3.1236C14.1548 2.09132 12.8317 1.49804 11.443 1.47439L10.1339 1.45208C9.96035 1.44913 9.79498 1.37497 9.67419 1.24594C9.5534 1.1169 9.48711 0.943535 9.48988 0.76401C9.49265 0.584485 9.56427 0.41347 9.68898 0.288618C9.81369 0.163765 9.98127 0.0952781 10.1549 0.0982354L11.4639 0.120536C13.1998 0.150109 14.8536 0.891705 16.0615 2.18205C17.2693 3.47239 17.9323 5.20604 17.9046 7.00129C17.9046 7.00129 17.8312 11.7777 17.8277 12.0041C17.8242 12.2305 17.3795 12.2231 17.1695 12.2193C16.9595 12.2155 16.5147 12.2082 16.5182 11.9818Z" fill="#484848"/>
</svg>
