<svg width="51" height="49" viewBox="0 0 51 49" fill="none" xmlns="http://www.w3.org/2000/svg">
<path d="M0.308594 4.68164C0.308594 2.47251 2.09945 0.681641 4.30859 0.681641H46.5538C48.7629 0.681641 50.5538 2.4725 50.5538 4.68164V45C50.5538 47.2092 48.7629 49 46.5538 49H4.30859C2.09945 49 0.308594 47.2092 0.308594 45V4.68164Z" fill="white"/>
<g clip-path="url(#clip0_541_7710)">
<path d="M35.2336 34.9555L36.4277 36.1039H13.7197V14.2666L14.9139 15.4149L16.22 14.1589L12.7961 10.8662L9.37212 14.1589L10.6783 15.4149L11.8724 14.2666V36.1039H9.10156V37.8803H11.8724V40.5449H13.7197V37.8803H36.4277L35.2336 39.0286L36.5397 40.2847L39.9637 36.9921L36.5397 33.6994L35.2336 34.9555Z" fill="black"/>
<path d="M18.3379 10.3457V23.3472L23.8176 17.0238L29.4214 22.4127L34.0917 17.9214L40.5049 25.1166V10.3457L18.3379 10.3457ZM30.345 15.6749H28.4978V13.8985H30.345V15.6749Z" fill="black"/>
<path d="M29.4214 24.9248L23.9417 19.6553L18.3379 26.122V31.6626H40.5049V27.8462L33.9873 20.534L29.4214 24.9248Z" fill="black"/>
</g>
<defs>
<clipPath id="clip0_541_7710">
<rect width="31.4032" height="30.199" fill="white" transform="translate(9.10156 10.3457)"/>
</clipPath>
</defs>
</svg>
